<?xml version="1.0" encoding="UTF-8" standalone="no"?>
<!-- Created with Inkscape (http://www.inkscape.org/) -->

<svg
   xmlns:dc="http://purl.org/dc/elements/1.1/"
   xmlns:cc="http://creativecommons.org/ns#"
   xmlns:rdf="http://www.w3.org/1999/02/22-rdf-syntax-ns#"
   xmlns:svg="http://www.w3.org/2000/svg"
   xmlns="http://www.w3.org/2000/svg"
   xmlns:sodipodi="http://sodipodi.sourceforge.net/DTD/sodipodi-0.dtd"
   xmlns:inkscape="http://www.inkscape.org/namespaces/inkscape"
   width="210mm"
   height="297mm"
   viewBox="0 0 744.09448819 1052.3622047"
   id="svg2"
   version="1.1"
   inkscape:version="0.91 r13725"
   sodipodi:docname="3_behavioral_protocol.svg">
  <defs
     id="defs4">
    <pattern
       y="0"
       x="0"
       height="6"
       width="6"
       patternUnits="userSpaceOnUse"
       id="EMFhbasepattern" />
  </defs>
  <sodipodi:namedview
     id="base"
     pagecolor="#ffffff"
     bordercolor="#666666"
     borderopacity="1.0"
     inkscape:pageopacity="0.0"
     inkscape:pageshadow="2"
     inkscape:zoom="4"
     inkscape:cx="187.71603"
     inkscape:cy="734.53132"
     inkscape:document-units="px"
     inkscape:current-layer="layer1"
     showgrid="false"
     inkscape:window-width="1536"
     inkscape:window-height="801"
     inkscape:window-x="-8"
     inkscape:window-y="-8"
     inkscape:window-maximized="1" />
  <metadata
     id="metadata7">
    <rdf:RDF>
      <cc:Work
         rdf:about="">
        <dc:format>image/svg+xml</dc:format>
        <dc:type
           rdf:resource="http://purl.org/dc/dcmitype/StillImage" />
        <dc:title />
      </cc:Work>
    </rdf:RDF>
  </metadata>
  <g
     inkscape:label="Camada 1"
     inkscape:groupmode="layer"
     id="layer1">
    <path
       inkscape:connector-curvature="0"
       id="path4141"
       d="m 160.04916,285.4331 0,-1.27796 29.8927,-0.1997 0.01,2.55597 -29.8927,0.19967 -0.01,-1.27798 z"
       style="fill:#dddddd;fill-opacity:1;fill-rule:evenodd;stroke:none"
       inkscape:export-xdpi="600"
       inkscape:export-ydpi="600" />
    <path
       inkscape:connector-curvature="0"
       id="path4143"
       d="m 175.01541,300.88852 -1.38769,0 0,-30.71128 2.77538,0 0,30.71128 -1.38769,0 z"
       style="fill:#dddddd;fill-opacity:1;fill-rule:evenodd;stroke:none"
       inkscape:export-xdpi="600"
       inkscape:export-ydpi="600" />
    <path
       style="fill:#000000"
       d="m 174.16939,300.5228 c -0.0189,-0.01 -0.0259,-0.0223 -0.026,-0.0469 -8e-5,-0.0185 0.004,-0.0238 0.08,-0.0941 0.11573,-0.10759 0.18384,-0.15724 0.3613,-0.26337 0.11733,-0.0702 0.19881,-0.13539 0.22371,-0.17906 0.0123,-0.0216 0.0132,-0.0851 0.003,-0.19962 -0.0138,-0.15227 -0.0343,-0.22347 -0.10112,-0.35184 -0.0337,-0.0648 -0.0476,-0.0852 -0.087,-0.12841 -0.0557,-0.0611 -0.067,-0.0786 -0.0881,-0.13611 -0.0267,-0.073 -0.0311,-0.10507 -0.0307,-0.22601 5e-4,-0.15096 0.0117,-0.2252 0.0707,-0.46886 0.0687,-0.28372 0.0771,-0.40621 0.0364,-0.53004 -0.022,-0.0668 -0.0686,-0.15335 -0.098,-0.18184 -0.0228,-0.0222 -0.029,-0.0253 -0.0552,-0.0281 -0.0726,-0.008 -0.13191,-0.0869 -0.18973,-0.25307 -0.0421,-0.12086 -0.0461,-0.16698 -0.019,-0.21806 0.0141,-0.0267 0.0493,-0.0589 0.0757,-0.0694 0.0121,-0.005 0.0487,-0.008 0.11301,-0.009 0.0932,-0.002 0.0956,-0.002 0.11404,-0.0156 0.0506,-0.0365 0.0983,-0.11695 0.12235,-0.20604 0.0102,-0.0378 0.0233,-0.0722 0.0342,-0.0896 0.0237,-0.038 0.0967,-0.10664 0.13792,-0.1298 0.0269,-0.0151 0.0363,-0.024 0.0475,-0.045 0.0173,-0.0324 0.0385,-0.12342 0.0494,-0.21265 0.0119,-0.0974 0.0207,-0.12836 0.0507,-0.17811 0.0629,-0.10429 0.0711,-0.12897 0.0465,-0.13961 -0.0173,-0.007 -0.0308,0.003 -0.05,0.0395 -0.019,0.0359 -0.0275,0.0437 -0.0481,0.0437 -0.0257,0 -0.0348,-0.0149 -0.0345,-0.0564 2.5e-4,-0.0361 0.009,-0.0668 0.0244,-0.0826 0.0105,-0.011 0.0109,-0.018 0.005,-0.085 l -0.004,-0.0467 0.0202,-0.0212 c 0.0138,-0.0145 0.0211,-0.0277 0.0231,-0.0418 0.004,-0.0288 -0.0173,-0.11297 -0.0349,-0.1374 -0.0338,-0.0471 -0.0336,-0.0621 0.002,-0.0993 l 0.0202,-0.0212 -0.009,-0.0325 c -0.005,-0.0179 -0.009,-0.0374 -0.009,-0.0433 0,-0.006 -0.001,-0.0107 -0.002,-0.0107 -0.001,0 -0.0215,0.006 -0.0447,0.0127 -0.0451,0.0136 -0.0639,0.026 -0.14178,0.0937 -0.0405,0.0352 -0.0431,0.0367 -0.0515,0.028 -0.008,-0.009 -0.005,-0.0122 0.0509,-0.0603 0.0328,-0.0281 0.0712,-0.0575 0.0853,-0.0654 0.0216,-0.0121 0.023,-0.0138 0.009,-0.0109 -0.0197,0.004 -0.0471,0.0164 -0.1229,0.0552 -0.0553,0.0283 -0.058,0.0291 -0.0615,0.0187 -0.002,-0.006 -0.003,-0.0117 -0.002,-0.0126 0.006,-0.006 0.1396,-0.0723 0.15571,-0.0778 0.0439,-0.0149 -0.005,-0.006 -0.0719,0.0134 -0.0395,0.0113 -0.0737,0.0206 -0.0759,0.0206 -0.002,0 -0.003,-0.005 -0.002,-0.0111 0.001,-0.009 0.0123,-0.0143 0.0695,-0.0314 0.0754,-0.0225 0.11818,-0.0256 0.17485,-0.0124 0.0172,0.004 0.0312,0.005 0.0312,0.002 0,-0.003 0.008,-0.0115 0.0175,-0.0199 0.0168,-0.0146 0.0172,-0.0157 0.01,-0.0318 -0.004,-0.009 -0.009,-0.0289 -0.01,-0.0438 -0.002,-0.0259 -10e-4,-0.0279 0.0179,-0.0447 0.0245,-0.0213 0.0451,-0.0264 0.0658,-0.0165 0.009,0.004 0.0398,0.009 0.0722,0.0102 0.0313,0.002 0.0631,0.005 0.0708,0.008 0.0134,0.005 0.0146,0.003 0.0367,-0.0401 0.0126,-0.0248 0.0313,-0.0532 0.0415,-0.0632 0.0212,-0.0207 0.0674,-0.0437 0.0968,-0.0482 0.0173,-0.003 0.0199,-0.002 0.0199,0.007 0,0.008 -0.007,0.0128 -0.0312,0.0211 -0.0418,0.0144 -0.0654,0.0318 -0.0866,0.0637 -0.0225,0.0337 -0.0225,0.0411 -6e-5,0.0209 0.0254,-0.0228 0.0482,-0.0323 0.10392,-0.0432 0.0648,-0.0127 0.0694,-0.0125 0.0672,0.002 -0.001,0.01 -0.006,0.0121 -0.0326,0.0152 -0.0426,0.005 -0.0882,0.0182 -0.10308,0.0298 -0.0124,0.01 -0.0123,0.01 0.0115,0.004 0.0177,-0.004 0.0382,-0.004 0.0782,3.6e-4 0.0299,0.003 0.0551,0.007 0.0562,0.008 0.001,9.7e-4 3e-4,0.006 -0.002,0.0105 -0.003,0.008 -0.009,0.008 -0.0421,0.005 -0.0615,-0.006 -0.0863,-0.004 -0.12203,0.0113 -0.0182,0.008 -0.0354,0.0168 -0.0384,0.0202 -0.007,0.008 0.0506,0.0649 0.0752,0.0746 0.0146,0.006 0.0226,0.006 0.0509,-9.5e-4 0.0464,-0.0107 0.0614,-0.005 0.0811,0.0319 0.0119,0.0221 0.0147,0.0339 0.0138,0.0566 -0.001,0.0329 0.006,0.0456 0.0471,0.0815 0.0369,0.0323 0.0783,0.0488 0.11233,0.045 0.0345,-0.004 0.0549,0.004 0.0952,0.0369 0.017,0.0139 0.0517,0.0378 0.077,0.0533 0.0773,0.047 0.10861,0.0875 0.0893,0.11548 -0.0124,0.0179 -0.0321,0.0199 -0.0765,0.007 -0.0693,-0.0193 -0.0867,-0.0133 -0.0849,0.0295 6.8e-4,0.0171 0.009,0.0383 0.029,0.0763 0.0154,0.029 0.0299,0.0526 0.0321,0.0526 0.002,0 0.008,-0.009 0.0138,-0.0205 0.0107,-0.0225 0.0158,-0.0251 0.0236,-0.0118 0.006,0.01 0.0116,-5.4e-4 0.0329,-0.0613 0.0174,-0.0497 0.0228,-0.05 0.0305,-0.002 0.002,0.0131 0.005,0.0238 0.007,0.0238 0.002,4e-5 0.016,-0.0132 0.0314,-0.0295 0.0154,-0.0163 0.0295,-0.0281 0.0314,-0.0264 0.004,0.004 -0.0221,0.10402 -0.033,0.12392 -0.005,0.008 -0.007,0.0159 -0.006,0.0168 10e-4,9.9e-4 0.0125,-4.6e-4 0.0255,-0.003 0.013,-0.003 0.0251,-0.004 0.027,-0.002 0.002,0.002 -0.0215,0.0256 -0.0519,0.0528 l -0.0552,0.0495 -0.009,0.13098 c -0.005,0.072 -0.0109,0.19916 -0.0135,0.2825 -0.004,0.12408 -0.007,0.1585 -0.0155,0.19005 -0.006,0.0212 -0.0402,0.10786 -0.0761,0.19261 -0.0848,0.1999 -0.0845,0.19836 -0.0794,0.30818 0.002,0.048 0.004,0.1035 0.004,0.12328 3.6e-4,0.0577 -0.0173,0.0921 -0.12235,0.23798 -0.065,0.0903 -0.0795,0.1235 -0.0797,0.1831 l -1.5e-4,0.0461 -0.0454,0.0414 c -0.0493,0.0449 -0.0615,0.0678 -0.0447,0.0837 0.008,0.007 0.0121,0.007 0.0338,0.002 0.0138,-0.004 0.0378,-0.0121 0.0534,-0.019 0.0347,-0.0156 0.0433,-0.0158 0.0538,-0.002 0.01,0.0132 0.005,0.0252 -0.0191,0.0464 -0.009,0.008 -0.0156,0.0157 -0.0156,0.018 -1e-5,0.002 0.0167,0.003 0.0371,0.002 0.048,-0.002 0.0767,0.008 0.0767,0.0272 0,0.0156 -0.0101,0.0202 -0.0567,0.0256 l -0.0323,0.004 0.0287,0.0129 c 0.0321,0.0145 0.0433,0.03 0.0338,0.0469 -0.011,0.0195 -0.037,0.0191 -0.10049,-0.002 -0.0605,-0.0198 -0.0843,-0.0208 -0.0843,-0.003 0,0.005 0.007,0.0158 0.016,0.0238 0.024,0.0218 0.0343,0.0453 0.0268,0.0609 -0.009,0.0178 -0.0276,0.0261 -0.0515,0.0224 -0.0248,-0.004 -0.0385,-0.0158 -0.0755,-0.0657 -0.045,-0.0608 -0.0757,-0.0672 -0.20595,-0.0426 -0.0622,0.0117 -0.0772,0.0128 -0.12741,0.009 -0.0894,-0.006 -0.10455,-0.005 -0.13099,0.009 -0.0625,0.0347 -0.12084,0.16495 -0.14773,0.33002 -0.005,0.0283 -0.016,0.12302 -0.0253,0.2106 -0.0137,0.12936 -0.0164,0.17319 -0.0141,0.2337 0.004,0.11617 0.0186,0.15531 0.0999,0.27737 0.0618,0.0928 0.14151,0.23542 0.15896,0.28459 0.0481,0.13562 0.0656,0.31325 0.04,0.40641 -0.0244,0.0887 -0.11149,0.20127 -0.22352,0.28889 -0.0187,0.0147 -0.0968,0.0669 -0.17349,0.11618 -0.0946,0.0607 -0.167,0.11197 -0.22508,0.15926 -0.0471,0.0383 -0.0902,0.0721 -0.0959,0.0749 -0.0148,0.007 -0.0492,0.006 -0.0664,-0.003 z"
       id="path4775"
       inkscape:connector-curvature="0"
       inkscape:export-xdpi="600"
       inkscape:export-ydpi="600" />
    <path
       inkscape:connector-curvature="0"
       id="path4149"
       d="m 175.33021,294.63541 -0.25964,0 -0.24977,0 0,-0.49925 0.24977,0 0.25964,0 0,0.49925 z"
       style="fill:#1c1c1c;fill-opacity:1;fill-rule:evenodd;stroke:none"
       inkscape:export-xdpi="600"
       inkscape:export-ydpi="600" />
    <path
       inkscape:connector-curvature="0"
       id="path4151"
       d="m 175.33021,293.6369 -0.25964,0 -0.24977,0 0,-0.49925 0.24977,0 0.25964,0 0,0.49925 z"
       style="fill:#1c1c1c;fill-opacity:1;fill-rule:evenodd;stroke:none"
       inkscape:export-xdpi="600"
       inkscape:export-ydpi="600" />
    <path
       inkscape:connector-curvature="0"
       id="path4153"
       d="m 175.33021,292.6384 -0.25964,0 -0.24977,0 0,-0.49914 0.24977,0 0.25964,0 0,0.49914 z"
       style="fill:#1c1c1c;fill-opacity:1;fill-rule:evenodd;stroke:none"
       inkscape:export-xdpi="600"
       inkscape:export-ydpi="600" />
    <path
       inkscape:connector-curvature="0"
       id="path4155"
       d="m 175.33021,291.64007 -0.25964,0 -0.24977,0 0,-0.49922 0.24977,0 0.25964,0 0,0.49922 z"
       style="fill:#1c1c1c;fill-opacity:1;fill-rule:evenodd;stroke:none"
       inkscape:export-xdpi="600"
       inkscape:export-ydpi="600" />
    <path
       inkscape:connector-curvature="0"
       id="path4157"
       d="m 175.33021,290.64165 -0.25964,0 -0.24977,0 0,-0.49922 0.24977,0 0.25964,0 0,0.49922 z"
       style="fill:#1c1c1c;fill-opacity:1;fill-rule:evenodd;stroke:none"
       inkscape:export-xdpi="600"
       inkscape:export-ydpi="600" />
    <path
       inkscape:connector-curvature="0"
       id="path4159"
       d="m 175.33021,289.64321 -0.25964,0 -0.24977,0 0,-0.4992 0.24977,0 0.25964,0 0,0.4992 z"
       style="fill:#1c1c1c;fill-opacity:1;fill-rule:evenodd;stroke:none"
       inkscape:export-xdpi="600"
       inkscape:export-ydpi="600" />
    <path
       inkscape:connector-curvature="0"
       id="path4161"
       d="m 175.33021,288.64479 -0.25964,0 -0.24977,0 0,-0.4992 0.24977,0 0.25964,0 0,0.4992 z"
       style="fill:#1c1c1c;fill-opacity:1;fill-rule:evenodd;stroke:none"
       inkscape:export-xdpi="600"
       inkscape:export-ydpi="600" />
    <path
       inkscape:connector-curvature="0"
       id="path4163"
       d="m 175.33021,287.64637 -0.25964,0 -0.24977,0 0,-0.49919 0.24977,0 0.25964,0 0,0.49919 z"
       style="fill:#1c1c1c;fill-opacity:1;fill-rule:evenodd;stroke:none"
       inkscape:export-xdpi="600"
       inkscape:export-ydpi="600" />
    <path
       inkscape:connector-curvature="0"
       id="path4165"
       d="m 175.33021,286.64795 -0.25964,0 -0.24977,0 0,-0.49919 0.24977,0 0.25964,0 0,0.49919 z"
       style="fill:#1c1c1c;fill-opacity:1;fill-rule:evenodd;stroke:none"
       inkscape:export-xdpi="600"
       inkscape:export-ydpi="600" />
    <path
       inkscape:connector-curvature="0"
       id="path4169"
       d="m 161.92734,285.7394 0,-0.25959 0,-0.2496 0.49925,0 0,0.2496 0,0.25959 -0.49925,0 z"
       style="fill:#1c1c1c;fill-opacity:1;fill-rule:evenodd;stroke:none"
       inkscape:export-xdpi="600"
       inkscape:export-ydpi="600" />
    <path
       inkscape:connector-curvature="0"
       id="path4171"
       d="m 162.92585,285.7394 0,-0.25959 0,-0.2496 0.49925,0 0,0.2496 0,0.25959 -0.49925,0 z"
       style="fill:#1c1c1c;fill-opacity:1;fill-rule:evenodd;stroke:none"
       inkscape:export-xdpi="600"
       inkscape:export-ydpi="600" />
    <path
       inkscape:connector-curvature="0"
       id="path4173"
       d="m 163.92435,285.7394 0,-0.25959 0,-0.2496 0.49925,0 0,0.2496 0,0.25959 -0.49925,0 z"
       style="fill:#1c1c1c;fill-opacity:1;fill-rule:evenodd;stroke:none"
       inkscape:export-xdpi="600"
       inkscape:export-ydpi="600" />
    <path
       inkscape:connector-curvature="0"
       id="path4175"
       d="m 164.92285,285.7394 0,-0.25959 0,-0.2496 0.49897,0 0,0.2496 0,0.25959 -0.49897,0 z"
       style="fill:#1c1c1c;fill-opacity:1;fill-rule:evenodd;stroke:none"
       inkscape:export-xdpi="600"
       inkscape:export-ydpi="600" />
    <path
       inkscape:connector-curvature="0"
       id="path4177"
       d="m 165.92107,285.7394 0,-0.25959 0,-0.2496 0.49925,0 0,0.2496 0,0.25959 -0.49925,0 z"
       style="fill:#1c1c1c;fill-opacity:1;fill-rule:evenodd;stroke:none"
       inkscape:export-xdpi="600"
       inkscape:export-ydpi="600" />
    <path
       inkscape:connector-curvature="0"
       id="path4179"
       d="m 166.91957,285.7394 0,-0.25959 0,-0.2496 0.49925,0 0,0.2496 0,0.25959 -0.49925,0 z"
       style="fill:#1c1c1c;fill-opacity:1;fill-rule:evenodd;stroke:none"
       inkscape:export-xdpi="600"
       inkscape:export-ydpi="600" />
    <path
       inkscape:connector-curvature="0"
       id="path4181"
       d="m 167.91807,285.7394 0,-0.25959 0,-0.2496 0.49926,0 0,0.2496 0,0.25959 -0.49926,0 z"
       style="fill:#1c1c1c;fill-opacity:1;fill-rule:evenodd;stroke:none"
       inkscape:export-xdpi="600"
       inkscape:export-ydpi="600" />
    <path
       inkscape:connector-curvature="0"
       id="path4183"
       d="m 168.91629,285.7394 0,-0.25959 0,-0.2496 0.49926,0 0,0.2496 0,0.25959 -0.49926,0 z"
       style="fill:#1c1c1c;fill-opacity:1;fill-rule:evenodd;stroke:none"
       inkscape:export-xdpi="600"
       inkscape:export-ydpi="600" />
    <path
       inkscape:connector-curvature="0"
       id="path4185"
       d="m 169.9148,285.7394 0,-0.25959 0,-0.2496 0.49925,0 0,0.2496 0,0.25959 -0.49925,0 z"
       style="fill:#1c1c1c;fill-opacity:1;fill-rule:evenodd;stroke:none"
       inkscape:export-xdpi="600"
       inkscape:export-ydpi="600" />
    <path
       inkscape:connector-curvature="0"
       id="path4187"
       d="m 170.9133,285.7394 0,-0.25959 0,-0.2496 0.49925,0 0,0.2496 0,0.25959 -0.49925,0 z"
       style="fill:#1c1c1c;fill-opacity:1;fill-rule:evenodd;stroke:none"
       inkscape:export-xdpi="600"
       inkscape:export-ydpi="600" />
    <path
       inkscape:connector-curvature="0"
       id="path4189"
       d="m 171.9118,285.7394 0,-0.25959 0,-0.2496 0.49897,0 0,0.2496 0,0.25959 -0.49897,0 z"
       style="fill:#1c1c1c;fill-opacity:1;fill-rule:evenodd;stroke:none"
       inkscape:export-xdpi="600"
       inkscape:export-ydpi="600" />
    <path
       inkscape:connector-curvature="0"
       id="path4191"
       d="m 172.91002,285.7394 0,-0.25959 0,-0.2496 0.49925,0 0,0.2496 0,0.25959 -0.49925,0 z"
       style="fill:#1c1c1c;fill-opacity:1;fill-rule:evenodd;stroke:none"
       inkscape:export-xdpi="600"
       inkscape:export-ydpi="600" />
    <path
       inkscape:connector-curvature="0"
       id="path4193"
       d="m 173.90852,285.7394 0,-0.25959 0,-0.2496 0.49925,0 0,0.2496 0,0.25959 -0.49925,0 z"
       style="fill:#1c1c1c;fill-opacity:1;fill-rule:evenodd;stroke:none"
       inkscape:export-xdpi="600"
       inkscape:export-ydpi="600" />
    <path
       inkscape:connector-curvature="0"
       id="path4195"
       d="m 174.8439,285.7394 0,-0.25959 0,-0.2496 0.47921,0 0,0.2496 0,0.25959 -0.47921,0 z"
       style="fill:#1c1c1c;fill-opacity:1;fill-rule:evenodd;stroke:none"
       inkscape:export-xdpi="600"
       inkscape:export-ydpi="600" />
    <text
       sodipodi:linespacing="125%"
       id="text4197"
       y="307.19867"
       x="169.08481"
       style="font-style:normal;font-variant:normal;font-weight:700;font-size:4.21569443px;line-height:125%;font-family:'Liberation Sans Narrow';text-align:start;letter-spacing:0px;word-spacing:0px;text-anchor:start;fill:#000000;fill-opacity:1;stroke:none"
       xml:space="preserve"
       inkscape:export-xdpi="600"
       inkscape:export-ydpi="600"><tspan
         id="tspan4199"
         y="307.19867"
         x="169.08481"
         sodipodi:role="line"><tspan
           id="tspan4201"
           style="font-style:normal;font-variant:normal;font-weight:700;font-size:4.21569443px;font-family:'Liberation Sans Narrow';fill:#000000">sample</tspan></tspan></text>
    <path
       inkscape:connector-curvature="0"
       id="path4203"
       d="m 176.69173,283.80569 0,0.23961 -3.07797,-0.0199 0,-0.46925 3.07797,0.0199 0,0.22964 z"
       style="fill:#000000;fill-opacity:1;fill-rule:evenodd;stroke:none"
       inkscape:export-xdpi="600"
       inkscape:export-ydpi="600" />
    <path
       inkscape:connector-curvature="0"
       id="path4207"
       d="m 176.64434,283.57222 0.2396,0 -0.01,3.01699 -0.46933,0 0.0102,-3.01699 0.22945,0 z"
       style="fill:#000000;fill-opacity:1;fill-rule:evenodd;stroke:none"
       inkscape:export-xdpi="600"
       inkscape:export-ydpi="600" />
    <path
       inkscape:connector-curvature="0"
       id="path4211"
       d="m 250.49776,285.01377 0,-1.27799 30.70126,-0.0899 0.0102,2.55598 -30.70154,0.0899 -0.01,-1.27799 z"
       style="fill:#dddddd;fill-opacity:1;fill-rule:evenodd;stroke:none"
       inkscape:export-xdpi="600"
       inkscape:export-ydpi="600" />
    <path
       inkscape:connector-curvature="0"
       id="path4213"
       d="m 266.27257,300.45926 -1.39756,0 0,-30.70135 2.78553,0 0,30.70135 -1.38797,0 z"
       style="fill:#dddddd;fill-opacity:1;fill-rule:evenodd;stroke:none"
       inkscape:export-xdpi="600"
       inkscape:export-ydpi="600" />
    <path
       inkscape:connector-curvature="0"
       id="path4219"
       d="m 266.63789,294.27915 -0.25965,0 -0.24948,0 0,-0.49925 0.24948,0 0.25965,0 0,0.49925 z"
       style="fill:#1c1c1c;fill-opacity:1;fill-rule:evenodd;stroke:none"
       inkscape:export-xdpi="600"
       inkscape:export-ydpi="600" />
    <path
       inkscape:connector-curvature="0"
       id="path4221"
       d="m 266.63789,293.28065 -0.25965,0 -0.24948,0 0,-0.49925 0.24948,0 0.25965,0 0,0.49925 z"
       style="fill:#1c1c1c;fill-opacity:1;fill-rule:evenodd;stroke:none"
       inkscape:export-xdpi="600"
       inkscape:export-ydpi="600" />
    <path
       inkscape:connector-curvature="0"
       id="path4223"
       d="m 266.63789,292.28215 -0.25965,0 -0.24948,0 0,-0.49908 0.24948,0 0.25965,0 0,0.49908 z"
       style="fill:#1c1c1c;fill-opacity:1;fill-rule:evenodd;stroke:none"
       inkscape:export-xdpi="600"
       inkscape:export-ydpi="600" />
    <path
       inkscape:connector-curvature="0"
       id="path4225"
       d="m 266.63789,291.28385 -0.25965,0 -0.24948,0 0,-0.4992 0.24948,0 0.25965,0 0,0.4992 z"
       style="fill:#1c1c1c;fill-opacity:1;fill-rule:evenodd;stroke:none"
       inkscape:export-xdpi="600"
       inkscape:export-ydpi="600" />
    <path
       inkscape:connector-curvature="0"
       id="path4227"
       d="m 266.63789,290.28543 -0.25965,0 -0.24948,0 0,-0.4992 0.24948,0 0.25965,0 0,0.4992 z"
       style="fill:#1c1c1c;fill-opacity:1;fill-rule:evenodd;stroke:none"
       inkscape:export-xdpi="600"
       inkscape:export-ydpi="600" />
    <path
       inkscape:connector-curvature="0"
       id="path4229"
       d="m 266.63789,289.28701 -0.25965,0 -0.24948,0 0,-0.49919 0.24948,0 0.25965,0 0,0.49919 z"
       style="fill:#1c1c1c;fill-opacity:1;fill-rule:evenodd;stroke:none"
       inkscape:export-xdpi="600"
       inkscape:export-ydpi="600" />
    <path
       inkscape:connector-curvature="0"
       id="path4231"
       d="m 266.63789,288.28859 -0.25965,0 -0.24948,0 0,-0.49922 0.24948,0 0.25965,0 0,0.49922 z"
       style="fill:#1c1c1c;fill-opacity:1;fill-rule:evenodd;stroke:none"
       inkscape:export-xdpi="600"
       inkscape:export-ydpi="600" />
    <path
       inkscape:connector-curvature="0"
       id="path4233"
       d="m 266.63789,287.29018 -0.25965,0 -0.24948,0 0,-0.49923 0.24948,0 0.25965,0 0,0.49923 z"
       style="fill:#1c1c1c;fill-opacity:1;fill-rule:evenodd;stroke:none"
       inkscape:export-xdpi="600"
       inkscape:export-ydpi="600" />
    <path
       inkscape:connector-curvature="0"
       id="path4235"
       d="m 266.63789,286.29176 -0.25965,0 -0.24948,0 0,-0.49923 0.24948,0 0.25965,0 0,0.49923 z"
       style="fill:#1c1c1c;fill-opacity:1;fill-rule:evenodd;stroke:none"
       inkscape:export-xdpi="600"
       inkscape:export-ydpi="600" />
    <path
       inkscape:connector-curvature="0"
       id="path4239"
       d="m 266.12529,285.29481 0,-0.25959 0,-0.24962 0.49925,0 0,0.24962 0,0.25959 -0.49925,0 z"
       style="fill:#1c1c1c;fill-opacity:1;fill-rule:evenodd;stroke:none"
       inkscape:export-xdpi="600"
       inkscape:export-ydpi="600" />
    <path
       inkscape:connector-curvature="0"
       id="path4241"
       d="m 267.10141,285.29481 0,-0.25959 0,-0.24962 0.49925,0 0,0.24962 0,0.25959 -0.49925,0 z"
       style="fill:#1c1c1c;fill-opacity:1;fill-rule:evenodd;stroke:none"
       inkscape:export-xdpi="600"
       inkscape:export-ydpi="600" />
    <path
       inkscape:connector-curvature="0"
       id="path4243"
       d="m 268.09992,285.29481 0,-0.25959 0,-0.24962 0.49925,0 0,0.24962 0,0.25959 -0.49925,0 z"
       style="fill:#1c1c1c;fill-opacity:1;fill-rule:evenodd;stroke:none"
       inkscape:export-xdpi="600"
       inkscape:export-ydpi="600" />
    <path
       inkscape:connector-curvature="0"
       id="path4245"
       d="m 269.09842,285.29481 0,-0.25959 0,-0.24962 0.49925,0 0,0.24962 0,0.25959 -0.49925,0 z"
       style="fill:#1c1c1c;fill-opacity:1;fill-rule:evenodd;stroke:none"
       inkscape:export-xdpi="600"
       inkscape:export-ydpi="600" />
    <path
       inkscape:connector-curvature="0"
       id="path4247"
       d="m 270.09692,285.29481 0,-0.25959 0,-0.24962 0.49897,0 0,0.24962 0,0.25959 -0.49897,0 z"
       style="fill:#1c1c1c;fill-opacity:1;fill-rule:evenodd;stroke:none"
       inkscape:export-xdpi="600"
       inkscape:export-ydpi="600" />
    <path
       inkscape:connector-curvature="0"
       id="path4249"
       d="m 271.09514,285.29481 0,-0.25959 0,-0.24962 0.49925,0 0,0.24962 0,0.25959 -0.49925,0 z"
       style="fill:#1c1c1c;fill-opacity:1;fill-rule:evenodd;stroke:none"
       inkscape:export-xdpi="600"
       inkscape:export-ydpi="600" />
    <path
       inkscape:connector-curvature="0"
       id="path4251"
       d="m 272.09364,285.29481 0,-0.25959 0,-0.24962 0.49925,0 0,0.24962 0,0.25959 -0.49925,0 z"
       style="fill:#1c1c1c;fill-opacity:1;fill-rule:evenodd;stroke:none"
       inkscape:export-xdpi="600"
       inkscape:export-ydpi="600" />
    <path
       inkscape:connector-curvature="0"
       id="path4253"
       d="m 273.09214,285.29481 0,-0.25959 0,-0.24962 0.49926,0 0,0.24962 0,0.25959 -0.49926,0 z"
       style="fill:#1c1c1c;fill-opacity:1;fill-rule:evenodd;stroke:none"
       inkscape:export-xdpi="600"
       inkscape:export-ydpi="600" />
    <path
       inkscape:connector-curvature="0"
       id="path4255"
       d="m 274.09036,285.29481 0,-0.25959 0,-0.24962 0.49926,0 0,0.24962 0,0.25959 -0.49926,0 z"
       style="fill:#1c1c1c;fill-opacity:1;fill-rule:evenodd;stroke:none"
       inkscape:export-xdpi="600"
       inkscape:export-ydpi="600" />
    <path
       inkscape:connector-curvature="0"
       id="path4257"
       d="m 275.08887,285.29481 0,-0.25959 0,-0.24962 0.49925,0 0,0.24962 0,0.25959 -0.49925,0 z"
       style="fill:#1c1c1c;fill-opacity:1;fill-rule:evenodd;stroke:none"
       inkscape:export-xdpi="600"
       inkscape:export-ydpi="600" />
    <path
       inkscape:connector-curvature="0"
       id="path4259"
       d="m 276.08737,285.29481 0,-0.25959 0,-0.24962 0.49925,0 0,0.24962 0,0.25959 -0.49925,0 z"
       style="fill:#1c1c1c;fill-opacity:1;fill-rule:evenodd;stroke:none"
       inkscape:export-xdpi="600"
       inkscape:export-ydpi="600" />
    <path
       inkscape:connector-curvature="0"
       id="path4261"
       d="m 277.08587,285.29481 0,-0.25959 0,-0.24962 0.49897,0 0,0.24962 0,0.25959 -0.49897,0 z"
       style="fill:#1c1c1c;fill-opacity:1;fill-rule:evenodd;stroke:none"
       inkscape:export-xdpi="600"
       inkscape:export-ydpi="600" />
    <path
       inkscape:connector-curvature="0"
       id="path4263"
       d="m 278.08409,285.29481 0,-0.25959 0,-0.24962 0.49925,0 0,0.24962 0,0.25959 -0.49925,0 z"
       style="fill:#1c1c1c;fill-opacity:1;fill-rule:evenodd;stroke:none"
       inkscape:export-xdpi="600"
       inkscape:export-ydpi="600" />
    <text
       sodipodi:linespacing="125%"
       id="text4265"
       y="295.39377"
       x="273.74722"
       style="font-style:normal;font-variant:normal;font-weight:700;font-size:4.39118814px;line-height:125%;font-family:'Liberation Sans Narrow';text-align:start;letter-spacing:0px;word-spacing:0px;text-anchor:start;fill:#000000;fill-opacity:1;stroke:none"
       xml:space="preserve"
       inkscape:export-xdpi="600"
       inkscape:export-ydpi="600"
       transform="scale(0.96003508,1.0416286)"><tspan
         y="295.39377"
         x="273.74722"
         sodipodi:role="line"
         id="tspan3529"><tspan
           id="tspan4269"
           style="font-style:normal;font-variant:normal;font-weight:700;font-size:4.39118814px;font-family:'Liberation Sans Narrow';fill:#000000">test</tspan></tspan></text>
    <path
       inkscape:connector-curvature="0"
       id="path4271"
       d="m 267.66972,283.43053 0,0.22964 -2.81499,-0.0199 0,-0.45929 2.81499,0.02 0,0.22962 z"
       style="fill:#000000;fill-opacity:1;fill-rule:evenodd;stroke:none"
       inkscape:export-xdpi="600"
       inkscape:export-ydpi="600" />
    <path
       inkscape:connector-curvature="0"
       id="path4275"
       d="m 206.57454,285.34327 0,-1.27799 29.88253,-0.0799 0.0102,2.55594 -29.88281,0.0799 -0.01,-1.27795 z"
       style="fill:#dddddd;fill-opacity:1;fill-rule:evenodd;stroke:none"
       inkscape:export-xdpi="600"
       inkscape:export-ydpi="600" />
    <path
       inkscape:connector-curvature="0"
       id="path4277"
       d="m 221.52074,300.86876 -1.39756,0 0,-30.69152 2.78553,0 0,30.69152 -1.38797,0 z"
       style="fill:#dddddd;fill-opacity:1;fill-rule:evenodd;stroke:none"
       inkscape:export-xdpi="600"
       inkscape:export-ydpi="600" />
    <text
       sodipodi:linespacing="125%"
       id="text4279"
       y="307.19867"
       x="212.69481"
       style="font-style:normal;font-variant:normal;font-weight:700;font-size:4.21569443px;line-height:125%;font-family:'Liberation Sans Narrow';text-align:start;letter-spacing:0px;word-spacing:0px;text-anchor:start;fill:#000000;fill-opacity:1;stroke:none"
       xml:space="preserve"
       inkscape:export-xdpi="600"
       inkscape:export-ydpi="600"><tspan
         id="tspan4281"
         y="307.19867"
         x="212.69481"
         sodipodi:role="line"><tspan
           id="tspan4283"
           style="font-style:normal;font-variant:normal;font-weight:700;font-size:4.21569443px;font-family:'Liberation Sans Narrow';fill:#000000">delay (30s)</tspan></tspan></text>
    <path
       inkscape:connector-curvature="0"
       id="path4285"
       d="m 223.02838,283.81568 0,0.22962 -3.23484,-0.0199 0,-0.45929 3.23484,0.02 0,0.22964 z"
       style="fill:#000000;fill-opacity:1;fill-rule:evenodd;stroke:none"
       inkscape:export-xdpi="600"
       inkscape:export-ydpi="600" />
    <path
       inkscape:connector-curvature="0"
       id="path4287"
       d="m 223.02838,283.81568 0,0.22962 -3.23484,-0.0199 0,-0.45929 3.23484,0.02 0,0.22964"
       style="fill:none;stroke:#000000;stroke-width:0.0099842px;stroke-linecap:round;stroke-linejoin:round;stroke-miterlimit:4;stroke-dasharray:none;stroke-opacity:1"
       inkscape:export-xdpi="600"
       inkscape:export-ydpi="600" />
    <path
       inkscape:connector-curvature="0"
       id="path4289"
       d="m 210.05885,292.82148 -0.01,-3.34476 7.57795,-0.03 0.02,6.69931 -7.57795,0.0302 -0.0102,-3.35478 z"
       style="fill:#dddddd;fill-opacity:1;fill-rule:evenodd;stroke:none"
       inkscape:export-xdpi="600"
       inkscape:export-ydpi="600" />
    <text
       sodipodi:linespacing="125%"
       id="text4295"
       y="321.06506"
       x="143.35522"
       style="font-style:normal;font-variant:normal;font-weight:400;font-size:4.21569443px;line-height:125%;font-family:Arial;text-align:start;letter-spacing:0px;word-spacing:0px;text-anchor:start;fill:#000000;fill-opacity:1;stroke:none"
       xml:space="preserve"
       inkscape:export-xdpi="600"
       inkscape:export-ydpi="600"><tspan
         id="tspan4297"
         y="321.06506"
         x="143.35522"
         sodipodi:role="line"><tspan
           id="tspan4299"
           style="font-style:normal;font-variant:normal;font-weight:400;font-size:4.21569443px;font-family:Arial;fill:#000000"
           dy="0"
           dx="0">Catch trial</tspan></tspan></text>
    <path
       inkscape:connector-curvature="0"
       id="path4361"
       d="m 251.16663,327.47836 0,-1.27791 30.69138,-0.0897 0.01,2.55581 -30.69139,0.09 -0.01,-1.27819 z"
       style="fill:#dddddd;fill-opacity:1;fill-rule:evenodd;stroke:none"
       inkscape:export-xdpi="600"
       inkscape:export-ydpi="600" />
    <path
       inkscape:connector-curvature="0"
       id="path4363"
       d="m 266.9516,342.94385 -1.38769,0 0,-30.71114 2.77566,0 0,30.71114 -1.38797,0 z"
       style="fill:#dddddd;fill-opacity:1;fill-rule:evenodd;stroke:none"
       inkscape:export-xdpi="600"
       inkscape:export-ydpi="600" />
    <path
       inkscape:connector-curvature="0"
       id="path4369"
       d="m 267.12997,327.50559 -0.25964,0 -0.24949,0 0,-0.49925 0.24949,0 0.25964,0 0,0.49925 z"
       style="fill:#1c1c1c;fill-opacity:1;fill-rule:evenodd;stroke:none"
       inkscape:export-xdpi="600"
       inkscape:export-ydpi="600" />
    <path
       inkscape:connector-curvature="0"
       id="path4371"
       d="m 267.12997,326.50709 -0.25964,0 -0.24949,0 0,-0.49925 0.24949,0 0.25964,0 0,0.49925 z"
       style="fill:#1c1c1c;fill-opacity:1;fill-rule:evenodd;stroke:none"
       inkscape:export-xdpi="600"
       inkscape:export-ydpi="600" />
    <path
       inkscape:connector-curvature="0"
       id="path4373"
       d="m 267.12997,325.50859 -0.25964,0 -0.24949,0 0,-0.49897 0.24949,0 0.25964,0 0,0.49897 z"
       style="fill:#1c1c1c;fill-opacity:1;fill-rule:evenodd;stroke:none"
       inkscape:export-xdpi="600"
       inkscape:export-ydpi="600" />
    <path
       inkscape:connector-curvature="0"
       id="path4375"
       d="m 267.12997,324.51037 -0.25964,0 -0.24949,0 0,-0.49925 0.24949,0 0.25964,0 0,0.49925 z"
       style="fill:#1c1c1c;fill-opacity:1;fill-rule:evenodd;stroke:none"
       inkscape:export-xdpi="600"
       inkscape:export-ydpi="600" />
    <path
       inkscape:connector-curvature="0"
       id="path4377"
       d="m 267.12997,323.51187 -0.25964,0 -0.24949,0 0,-0.49925 0.24949,0 0.25964,0 0,0.49925 z"
       style="fill:#1c1c1c;fill-opacity:1;fill-rule:evenodd;stroke:none"
       inkscape:export-xdpi="600"
       inkscape:export-ydpi="600" />
    <path
       inkscape:connector-curvature="0"
       id="path4379"
       d="m 267.12997,322.51336 -0.25964,0 -0.24949,0 0,-0.49925 0.24949,0 0.25964,0 0,0.49925 z"
       style="fill:#1c1c1c;fill-opacity:1;fill-rule:evenodd;stroke:none"
       inkscape:export-xdpi="600"
       inkscape:export-ydpi="600" />
    <path
       inkscape:connector-curvature="0"
       id="path4381"
       d="m 267.12997,321.51514 -0.25964,0 -0.24949,0 0,-0.49925 0.24949,0 0.25964,0 0,0.49925 z"
       style="fill:#1c1c1c;fill-opacity:1;fill-rule:evenodd;stroke:none"
       inkscape:export-xdpi="600"
       inkscape:export-ydpi="600" />
    <path
       inkscape:connector-curvature="0"
       id="path4383"
       d="m 268.32548,328.95331 0,0.22973 -2.77633,-0.02 0,-0.45917 2.77633,0.0198 0,0.22973 z"
       style="fill:#000000;fill-opacity:1;fill-rule:evenodd;stroke:none"
       inkscape:export-xdpi="600"
       inkscape:export-ydpi="600" />
    <text
       sodipodi:linespacing="125%"
       id="text4401"
       y="275.2261"
       x="144.17688"
       style="font-style:normal;font-variant:normal;font-weight:400;font-size:4.21569443px;line-height:125%;font-family:Arial;text-align:start;letter-spacing:0px;word-spacing:0px;text-anchor:start;fill:#000000;fill-opacity:1;stroke:none"
       xml:space="preserve"
       inkscape:export-xdpi="600"
       inkscape:export-ydpi="600"><tspan
         id="tspan4403"
         y="275.2261"
         x="144.17688"
         sodipodi:role="line"><tspan
           id="tspan4405"
           style="font-style:normal;font-variant:normal;font-weight:400;font-size:4.21569443px;font-family:Arial;fill:#000000"
           dy="0"
           dx="0">Training</tspan></tspan></text>
    <text
       sodipodi:linespacing="935.57272%"
       id="text4407"
       y="272.39401"
       x="141.91663"
       style="font-style:normal;font-variant:normal;font-weight:700;font-size:4.89024734px;line-height:935.57271957%;font-family:'Liberation Sans';text-align:start;letter-spacing:0px;word-spacing:0px;text-anchor:start;fill:#000000;fill-opacity:1;stroke:none"
       xml:space="preserve"
       inkscape:export-xdpi="600"
       inkscape:export-ydpi="600"
       transform="scale(1.0099466,0.99015132)"><tspan
         id="tspan4409"
         y="272.39401"
         x="141.91663"
         sodipodi:role="line"><tspan
           id="tspan4411"
           style="font-style:normal;font-variant:normal;font-weight:700;font-size:4.89024734px;font-family:'Liberation Sans';fill:#000000"
           dy="0"
           dx="0">A.</tspan></tspan><tspan
         id="tspan4413"
         y="318.60092"
         x="141.91663"
         sodipodi:role="line"><tspan
           id="tspan4415"
           style="font-style:normal;font-variant:normal;font-weight:700;font-size:4.89024734px;font-family:'Liberation Sans';fill:#000000"
           dy="0"
           dx="0">B.</tspan></tspan></text>
    <path
       inkscape:connector-curvature="0"
       id="path4421"
       d="m 265.84331,327.10893 0,0.2698 0,0.26952 -0.2794,0 0,-0.26952 0,-0.2698 0.2794,0 z"
       style="fill:#009933;fill-opacity:1;fill-rule:evenodd;stroke:none"
       inkscape:export-xdpi="600"
       inkscape:export-ydpi="600" />
    <path
       inkscape:connector-curvature="0"
       id="path4423"
       d="m 265.28423,327.10893 0,0.2698 0,0.26952 -0.2794,0 0,-0.26952 0,-0.2698 0.2794,0 z"
       style="fill:#009933;fill-opacity:1;fill-rule:evenodd;stroke:none"
       inkscape:export-xdpi="600"
       inkscape:export-ydpi="600" />
    <path
       inkscape:connector-curvature="0"
       id="path4425"
       d="m 264.72515,327.10893 0,0.2698 0,0.26952 -0.27969,0 0,-0.26952 0,-0.2698 0.27969,0 z"
       style="fill:#009933;fill-opacity:1;fill-rule:evenodd;stroke:none"
       inkscape:export-xdpi="600"
       inkscape:export-ydpi="600" />
    <path
       inkscape:connector-curvature="0"
       id="path4427"
       d="m 264.16606,327.10893 0,0.2698 0,0.26952 -0.28956,0 0,-0.26952 0,-0.2698 0.28956,0 z"
       style="fill:#009933;fill-opacity:1;fill-rule:evenodd;stroke:none"
       inkscape:export-xdpi="600"
       inkscape:export-ydpi="600" />
    <path
       inkscape:connector-curvature="0"
       id="path4429"
       d="m 263.59682,327.10893 0,0.2698 0,0.26952 -0.2794,0 0,-0.26952 0,-0.2698 0.2794,0 z"
       style="fill:#009933;fill-opacity:1;fill-rule:evenodd;stroke:none"
       inkscape:export-xdpi="600"
       inkscape:export-ydpi="600" />
    <path
       inkscape:connector-curvature="0"
       id="path4431"
       d="m 263.03774,327.10893 0,0.2698 0,0.26952 -0.2794,0 0,-0.26952 0,-0.2698 0.2794,0 z"
       style="fill:#009933;fill-opacity:1;fill-rule:evenodd;stroke:none"
       inkscape:export-xdpi="600"
       inkscape:export-ydpi="600" />
    <path
       inkscape:connector-curvature="0"
       id="path4433"
       d="m 262.47866,327.10893 0,0.2698 0,0.26952 -0.2794,0 0,-0.26952 0,-0.2698 0.2794,0 z"
       style="fill:#009933;fill-opacity:1;fill-rule:evenodd;stroke:none"
       inkscape:export-xdpi="600"
       inkscape:export-ydpi="600" />
    <path
       inkscape:connector-curvature="0"
       id="path4435"
       d="m 261.91958,327.10893 0,0.2698 0,0.26952 -0.27969,0 0,-0.26952 0,-0.2698 0.27969,0 z"
       style="fill:#009933;fill-opacity:1;fill-rule:evenodd;stroke:none"
       inkscape:export-xdpi="600"
       inkscape:export-ydpi="600" />
    <path
       inkscape:connector-curvature="0"
       id="path4437"
       d="m 261.36049,327.10893 0,0.2698 0,0.26952 -0.27968,0 0,-0.26952 0,-0.2698 0.27968,0 z"
       style="fill:#009933;fill-opacity:1;fill-rule:evenodd;stroke:none"
       inkscape:export-xdpi="600"
       inkscape:export-ydpi="600" />
    <path
       inkscape:connector-curvature="0"
       id="path4439"
       d="m 260.79125,327.10893 0,0.2698 0,0.26952 -0.2794,0 0,-0.26952 0,-0.2698 0.2794,0 z"
       style="fill:#009933;fill-opacity:1;fill-rule:evenodd;stroke:none"
       inkscape:export-xdpi="600"
       inkscape:export-ydpi="600" />
    <path
       inkscape:connector-curvature="0"
       id="path4441"
       d="m 260.23217,327.10893 0,0.2698 0,0.26952 -0.2794,0 0,-0.26952 0,-0.2698 0.2794,0 z"
       style="fill:#009933;fill-opacity:1;fill-rule:evenodd;stroke:none"
       inkscape:export-xdpi="600"
       inkscape:export-ydpi="600" />
    <path
       inkscape:connector-curvature="0"
       id="path4443"
       d="m 259.67309,327.10893 0,0.2698 0,0.26952 -0.2794,0 0,-0.26952 0,-0.2698 0.2794,0 z"
       style="fill:#009933;fill-opacity:1;fill-rule:evenodd;stroke:none"
       inkscape:export-xdpi="600"
       inkscape:export-ydpi="600" />
    <path
       inkscape:connector-curvature="0"
       id="path4445"
       d="m 259.114,327.10893 0,0.2698 0,0.26952 -0.2794,0 0,-0.26952 0,-0.2698 0.2794,0 z"
       style="fill:#009933;fill-opacity:1;fill-rule:evenodd;stroke:none"
       inkscape:export-xdpi="600"
       inkscape:export-ydpi="600" />
    <path
       inkscape:connector-curvature="0"
       id="path4447"
       d="m 258.55492,327.10893 0,0.2698 0,0.26952 -0.27968,0 0,-0.26952 0,-0.2698 0.27968,0 z"
       style="fill:#009933;fill-opacity:1;fill-rule:evenodd;stroke:none"
       inkscape:export-xdpi="600"
       inkscape:export-ydpi="600" />
    <path
       inkscape:connector-curvature="0"
       id="path4449"
       d="m 257.99584,327.10893 0,0.2698 0,0.26952 -0.28956,0 0,-0.26952 0,-0.2698 0.28956,0 z"
       style="fill:#009933;fill-opacity:1;fill-rule:evenodd;stroke:none"
       inkscape:export-xdpi="600"
       inkscape:export-ydpi="600" />
    <path
       inkscape:connector-curvature="0"
       id="path4451"
       d="m 257.4266,327.10893 0,0.2698 0,0.26952 -0.2794,0 0,-0.26952 0,-0.2698 0.2794,0 z"
       style="fill:#009933;fill-opacity:1;fill-rule:evenodd;stroke:none"
       inkscape:export-xdpi="600"
       inkscape:export-ydpi="600" />
    <path
       inkscape:connector-curvature="0"
       id="path4453"
       d="m 256.86752,327.10893 0,0.2698 0,0.26952 -0.2794,0 0,-0.26952 0,-0.2698 0.2794,0 z"
       style="fill:#009933;fill-opacity:1;fill-rule:evenodd;stroke:none"
       inkscape:export-xdpi="600"
       inkscape:export-ydpi="600" />
    <path
       inkscape:connector-curvature="0"
       id="path4455"
       d="m 256.30843,327.10893 0,0.2698 0,0.26952 -0.2794,0 0,-0.26952 0,-0.2698 0.2794,0 z"
       style="fill:#009933;fill-opacity:1;fill-rule:evenodd;stroke:none"
       inkscape:export-xdpi="600"
       inkscape:export-ydpi="600" />
    <path
       inkscape:connector-curvature="0"
       id="path4457"
       d="m 255.74935,327.10893 0,0.2698 0,0.26952 -0.27968,0 0,-0.26952 0,-0.2698 0.27968,0 z"
       style="fill:#009933;fill-opacity:1;fill-rule:evenodd;stroke:none"
       inkscape:export-xdpi="600"
       inkscape:export-ydpi="600" />
    <path
       inkscape:connector-curvature="0"
       id="path4459"
       d="m 255.19027,327.10893 0,0.2698 0,0.26952 -0.27968,0 0,-0.26952 0,-0.2698 0.27968,0 z"
       style="fill:#009933;fill-opacity:1;fill-rule:evenodd;stroke:none"
       inkscape:export-xdpi="600"
       inkscape:export-ydpi="600" />
    <path
       inkscape:connector-curvature="0"
       id="path4461"
       d="m 254.62103,327.10893 0,0.2698 0,0.26952 -0.2794,0 0,-0.26952 0,-0.2698 0.2794,0 z"
       style="fill:#009933;fill-opacity:1;fill-rule:evenodd;stroke:none"
       inkscape:export-xdpi="600"
       inkscape:export-ydpi="600" />
    <path
       inkscape:connector-curvature="0"
       id="path4463"
       d="m 254.06194,327.10893 0,0.2698 0,0.26952 -0.2794,0 0,-0.26952 0,-0.2698 0.2794,0 z"
       style="fill:#009933;fill-opacity:1;fill-rule:evenodd;stroke:none"
       inkscape:export-xdpi="600"
       inkscape:export-ydpi="600" />
    <path
       inkscape:connector-curvature="0"
       id="path4465"
       d="m 252.14985,327.35526 1.34663,-0.7281 0,1.45601 -1.34663,-0.72791 z"
       style="fill:#009933;fill-opacity:1;fill-rule:evenodd;stroke:none"
       inkscape:export-xdpi="600"
       inkscape:export-ydpi="600" />
    <text
       sodipodi:linespacing="119.71611%"
       id="text4467"
       y="320.67624"
       x="255.37781"
       style="font-style:normal;font-variant:normal;font-weight:700;font-size:3.52777767px;line-height:119.71610785%;font-family:Arial;text-align:center;letter-spacing:0px;word-spacing:0px;text-anchor:middle;fill:#000000;fill-opacity:1;stroke:none"
       xml:space="preserve"
       inkscape:export-xdpi="600"
       inkscape:export-ydpi="600"><tspan
         id="tspan4469"
         y="320.67624"
         x="255.867"
         sodipodi:role="line"><tspan
           id="tspan4471"
           style="font-style:normal;font-variant:normal;font-weight:700;font-size:3.52777767px;font-family:Arial;fill:#009900">non match </tspan></tspan><tspan
         y="324.89957"
         x="255.867"
         sodipodi:role="line"
         id="tspan3517"><tspan
           style="font-style:normal;font-variant:normal;font-weight:700;font-size:3.52777767px;font-family:Arial;fill:#009900"
           id="tspan3519">to action </tspan></tspan><tspan
         id="tspan4473"
         y="324.89957"
         x="255.867"
         sodipodi:role="line"><tspan
           id="tspan4475"
           style="font-style:normal;font-variant:normal;font-weight:700;font-size:3.52777767px;font-family:Arial;fill:#009900" /></tspan></text>
    <path
       inkscape:connector-curvature="0"
       id="path4477"
       d="m 267.98095,327.64343 0,-0.26952 0,-0.2698 0.2794,0 0,0.2698 0,0.26952 -0.2794,0 z"
       style="fill:#0066ff;fill-opacity:1;fill-rule:evenodd;stroke:none"
       inkscape:export-xdpi="600"
       inkscape:export-ydpi="600" />
    <path
       inkscape:connector-curvature="0"
       id="path4479"
       d="m 268.52987,327.64343 0.0102,-0.26952 0.01,-0.2698 0.27968,0.0102 -0.0102,0.26952 -0.01,0.26952 -0.27968,-0.01 z"
       style="fill:#0066ff;fill-opacity:1;fill-rule:evenodd;stroke:none"
       inkscape:export-xdpi="600"
       inkscape:export-ydpi="600" />
    <path
       inkscape:connector-curvature="0"
       id="path4481"
       d="m 269.09911,327.65331 0,-0.26952 0,-0.26952 0.2794,0 0,0.26952 0,0.26952 -0.2794,0 z"
       style="fill:#0066ff;fill-opacity:1;fill-rule:evenodd;stroke:none"
       inkscape:export-xdpi="600"
       inkscape:export-ydpi="600" />
    <path
       inkscape:connector-curvature="0"
       id="path4483"
       d="m 269.66807,327.65331 0,-0.26952 0,-0.26952 0.27968,0 0,0.26952 0,0.26952 -0.27968,0 z"
       style="fill:#0066ff;fill-opacity:1;fill-rule:evenodd;stroke:none"
       inkscape:export-xdpi="600"
       inkscape:export-ydpi="600" />
    <path
       inkscape:connector-curvature="0"
       id="path4485"
       d="m 270.22715,327.66347 0,-0.2698 0,-0.26953 0.27968,0 0,0.26953 0,0.2698 -0.27968,0 z"
       style="fill:#0066ff;fill-opacity:1;fill-rule:evenodd;stroke:none"
       inkscape:export-xdpi="600"
       inkscape:export-ydpi="600" />
    <path
       inkscape:connector-curvature="0"
       id="path4487"
       d="m 270.78652,327.66347 0,-0.2698 0,-0.26953 0.2794,0 0,0.26953 0,0.2698 -0.2794,0 z"
       style="fill:#0066ff;fill-opacity:1;fill-rule:evenodd;stroke:none"
       inkscape:export-xdpi="600"
       inkscape:export-ydpi="600" />
    <path
       inkscape:connector-curvature="0"
       id="path4489"
       d="m 271.33544,327.66347 0.0102,-0.2698 0.01,-0.26953 0.27968,0.0102 -0.0102,0.26953 -0.01,0.26952 -0.27968,-0.01 z"
       style="fill:#0066ff;fill-opacity:1;fill-rule:evenodd;stroke:none"
       inkscape:export-xdpi="600"
       inkscape:export-ydpi="600" />
    <path
       inkscape:connector-curvature="0"
       id="path4491"
       d="m 271.90468,327.67335 0,-0.26952 0,-0.26953 0.2794,0 0,0.26953 0,0.26952 -0.2794,0 z"
       style="fill:#0066ff;fill-opacity:1;fill-rule:evenodd;stroke:none"
       inkscape:export-xdpi="600"
       inkscape:export-ydpi="600" />
    <path
       inkscape:connector-curvature="0"
       id="path4493"
       d="m 272.46376,327.67335 0,-0.26952 0,-0.26953 0.28956,0 0,0.26953 0,0.26952 -0.28956,0 z"
       style="fill:#0066ff;fill-opacity:1;fill-rule:evenodd;stroke:none"
       inkscape:export-xdpi="600"
       inkscape:export-ydpi="600" />
    <path
       inkscape:connector-curvature="0"
       id="path4495"
       d="m 273.03272,327.68323 0,-0.26953 0,-0.26952 0.27969,0 0,0.26952 0,0.26953 -0.27969,0 z"
       style="fill:#0066ff;fill-opacity:1;fill-rule:evenodd;stroke:none"
       inkscape:export-xdpi="600"
       inkscape:export-ydpi="600" />
    <path
       inkscape:connector-curvature="0"
       id="path4497"
       d="m 273.59209,327.68323 0,-0.26953 0,-0.26952 0.2794,0 0,0.26952 0,0.26953 -0.2794,0 z"
       style="fill:#0066ff;fill-opacity:1;fill-rule:evenodd;stroke:none"
       inkscape:export-xdpi="600"
       inkscape:export-ydpi="600" />
    <path
       inkscape:connector-curvature="0"
       id="path4499"
       d="m 274.15117,327.69339 0,-0.26953 0,-0.2698 0.2794,0 0,0.2698 0,0.26953 -0.2794,0 z"
       style="fill:#0066ff;fill-opacity:1;fill-rule:evenodd;stroke:none"
       inkscape:export-xdpi="600"
       inkscape:export-ydpi="600" />
    <path
       inkscape:connector-curvature="0"
       id="path4501"
       d="m 274.71025,327.69339 0,-0.26953 0,-0.2698 0.2794,0 0,0.2698 0,0.26953 -0.2794,0 z"
       style="fill:#0066ff;fill-opacity:1;fill-rule:evenodd;stroke:none"
       inkscape:export-xdpi="600"
       inkscape:export-ydpi="600" />
    <path
       inkscape:connector-curvature="0"
       id="path4503"
       d="m 275.25946,327.69339 0.01,-0.26953 0.01,-0.2698 0.27968,0.0102 -0.0102,0.26952 -0.01,0.26952 -0.2794,-0.01 z"
       style="fill:#0066ff;fill-opacity:1;fill-rule:evenodd;stroke:none"
       inkscape:export-xdpi="600"
       inkscape:export-ydpi="600" />
    <path
       inkscape:connector-curvature="0"
       id="path4505"
       d="m 275.82842,327.70326 0,-0.26952 0,-0.26952 0.28956,0 0,0.26952 0,0.26952 -0.28956,0 z"
       style="fill:#0066ff;fill-opacity:1;fill-rule:evenodd;stroke:none"
       inkscape:export-xdpi="600"
       inkscape:export-ydpi="600" />
    <path
       inkscape:connector-curvature="0"
       id="path4507"
       d="m 276.39766,327.70326 0,-0.26952 0,-0.26952 0.2794,0 0,0.26952 0,0.26952 -0.2794,0 z"
       style="fill:#0066ff;fill-opacity:1;fill-rule:evenodd;stroke:none"
       inkscape:export-xdpi="600"
       inkscape:export-ydpi="600" />
    <path
       inkscape:connector-curvature="0"
       id="path4509"
       d="m 276.95674,327.71314 0,-0.26952 0,-0.26952 0.2794,0 0,0.26952 0,0.26952 -0.2794,0 z"
       style="fill:#0066ff;fill-opacity:1;fill-rule:evenodd;stroke:none"
       inkscape:export-xdpi="600"
       inkscape:export-ydpi="600" />
    <path
       inkscape:connector-curvature="0"
       id="path4511"
       d="m 277.51582,327.71314 0,-0.26952 0,-0.26952 0.2794,0 0,0.26952 0,0.26952 -0.2794,0 z"
       style="fill:#0066ff;fill-opacity:1;fill-rule:evenodd;stroke:none"
       inkscape:export-xdpi="600"
       inkscape:export-ydpi="600" />
    <path
       inkscape:connector-curvature="0"
       id="path4513"
       d="m 278.06503,327.71314 0.01,-0.26952 0.01,-0.26952 0.27969,0.0102 -0.0102,0.26952 -0.01,0.26952 -0.2794,-0.0102 z"
       style="fill:#0066ff;fill-opacity:1;fill-rule:evenodd;stroke:none"
       inkscape:export-xdpi="600"
       inkscape:export-ydpi="600" />
    <path
       inkscape:connector-curvature="0"
       id="path4515"
       d="m 278.63399,327.7233 0,-0.26952 0,-0.26952 0.27968,0 0,0.26952 0,0.26952 -0.27968,0 z"
       style="fill:#0066ff;fill-opacity:1;fill-rule:evenodd;stroke:none"
       inkscape:export-xdpi="600"
       inkscape:export-ydpi="600" />
    <path
       inkscape:connector-curvature="0"
       id="path4517"
       d="m 279.20323,327.7233 0,-0.26952 0,-0.26952 0.2794,0 0,0.26952 0,0.26952 -0.2794,0 z"
       style="fill:#0066ff;fill-opacity:1;fill-rule:evenodd;stroke:none"
       inkscape:export-xdpi="600"
       inkscape:export-ydpi="600" />
    <path
       inkscape:connector-curvature="0"
       id="path4519"
       d="m 281.02558,327.47646 -1.32553,0.7755 0.0126,-1.58101 1.31293,0.80551 z"
       style="fill:#0066ff;fill-opacity:1;fill-rule:evenodd;stroke:none"
       inkscape:export-xdpi="600"
       inkscape:export-ydpi="600" />
    <text
       sodipodi:linespacing="119.71611%"
       id="text4521"
       y="320.52274"
       x="279.19281"
       style="font-style:normal;font-variant:normal;font-weight:700;font-size:3.52777767px;line-height:119.71610785%;font-family:Arial;text-align:center;letter-spacing:0px;word-spacing:0px;text-anchor:middle;fill:#000000;fill-opacity:1;stroke:none"
       xml:space="preserve"
       inkscape:export-xdpi="600"
       inkscape:export-ydpi="600"><tspan
         id="tspan4523"
         y="320.52274"
         x="279.19281"
         sodipodi:role="line"><tspan
           id="tspan4525"
           style="font-style:normal;font-variant:normal;font-weight:700;font-size:3.52777767px;font-family:Arial;fill:#0066ff">non match</tspan></tspan><tspan
         id="tspan4527"
         y="324.74606"
         x="279.19281"
         sodipodi:role="line"><tspan
           style="font-style:normal;font-variant:normal;font-weight:700;font-size:3.52777767px;font-family:Arial;fill:#0066ff"
           id="tspan3523"
           dx="0 0 0 0 0"
           dy="0 0 0 0 0"> to location</tspan></tspan></text>
    <path
       style="fill:#000000"
       d="m 213.67941,296.00835 c -0.0189,-0.01 -0.0259,-0.0223 -0.026,-0.0469 -8e-5,-0.0185 0.004,-0.0238 0.08,-0.0941 0.11573,-0.10759 0.18384,-0.15724 0.3613,-0.26337 0.11733,-0.0702 0.19881,-0.13539 0.22371,-0.17906 0.0123,-0.0216 0.0132,-0.0851 0.003,-0.19962 -0.0138,-0.15227 -0.0343,-0.22347 -0.10112,-0.35184 -0.0337,-0.0648 -0.0476,-0.0852 -0.087,-0.12841 -0.0557,-0.0611 -0.067,-0.0786 -0.0881,-0.13611 -0.0267,-0.073 -0.0311,-0.10507 -0.0307,-0.22601 5e-4,-0.15096 0.0117,-0.2252 0.0707,-0.46886 0.0687,-0.28372 0.0771,-0.40621 0.0364,-0.53004 -0.022,-0.0668 -0.0686,-0.15335 -0.098,-0.18184 -0.0228,-0.0222 -0.029,-0.0253 -0.0552,-0.0281 -0.0726,-0.008 -0.13191,-0.0869 -0.18973,-0.25307 -0.0421,-0.12086 -0.0461,-0.16698 -0.019,-0.21806 0.0141,-0.0267 0.0493,-0.0589 0.0757,-0.0694 0.0121,-0.005 0.0487,-0.008 0.11301,-0.009 0.0932,-0.002 0.0956,-0.002 0.11404,-0.0156 0.0506,-0.0365 0.0983,-0.11695 0.12235,-0.20604 0.0102,-0.0378 0.0233,-0.0722 0.0342,-0.0896 0.0237,-0.038 0.0967,-0.10664 0.13792,-0.1298 0.0269,-0.0151 0.0363,-0.024 0.0475,-0.045 0.0173,-0.0324 0.0385,-0.12342 0.0494,-0.21265 0.0119,-0.0974 0.0207,-0.12836 0.0507,-0.17811 0.0629,-0.10429 0.0711,-0.12897 0.0465,-0.13961 -0.0173,-0.007 -0.0308,0.003 -0.05,0.0395 -0.019,0.0359 -0.0275,0.0437 -0.0481,0.0437 -0.0257,0 -0.0348,-0.0149 -0.0345,-0.0564 2.5e-4,-0.0361 0.009,-0.0668 0.0244,-0.0826 0.0105,-0.011 0.0109,-0.018 0.005,-0.085 l -0.004,-0.0467 0.0202,-0.0212 c 0.0138,-0.0145 0.0211,-0.0277 0.0231,-0.0418 0.004,-0.0288 -0.0173,-0.11297 -0.0349,-0.1374 -0.0338,-0.0471 -0.0336,-0.0621 0.002,-0.0993 l 0.0202,-0.0212 -0.009,-0.0325 c -0.005,-0.0179 -0.009,-0.0374 -0.009,-0.0433 0,-0.006 -0.001,-0.0107 -0.002,-0.0107 -10e-4,0 -0.0215,0.006 -0.0447,0.0127 -0.0451,0.0136 -0.0639,0.026 -0.14178,0.0937 -0.0405,0.0352 -0.0431,0.0367 -0.0515,0.028 -0.008,-0.009 -0.005,-0.0122 0.0509,-0.0603 0.0328,-0.0281 0.0712,-0.0575 0.0853,-0.0654 0.0216,-0.0121 0.023,-0.0138 0.009,-0.0109 -0.0197,0.004 -0.0471,0.0164 -0.1229,0.0552 -0.0553,0.0283 -0.058,0.0291 -0.0615,0.0187 -0.002,-0.006 -0.003,-0.0117 -0.002,-0.0126 0.006,-0.006 0.1396,-0.0723 0.15571,-0.0778 0.0439,-0.0149 -0.005,-0.006 -0.0719,0.0134 -0.0395,0.0113 -0.0737,0.0206 -0.0759,0.0206 -0.002,0 -0.003,-0.005 -0.002,-0.0111 0.001,-0.009 0.0123,-0.0143 0.0695,-0.0314 0.0754,-0.0225 0.11818,-0.0256 0.17485,-0.0124 0.0172,0.004 0.0312,0.005 0.0312,0.002 0,-0.003 0.008,-0.0115 0.0175,-0.0199 0.0168,-0.0146 0.0172,-0.0157 0.01,-0.0318 -0.004,-0.009 -0.009,-0.0289 -0.01,-0.0438 -0.002,-0.0259 -10e-4,-0.0279 0.0179,-0.0447 0.0245,-0.0213 0.0451,-0.0264 0.0658,-0.0165 0.009,0.004 0.0398,0.009 0.0722,0.0102 0.0313,0.002 0.0631,0.005 0.0708,0.008 0.0134,0.005 0.0146,0.003 0.0367,-0.0401 0.0126,-0.0248 0.0313,-0.0532 0.0415,-0.0632 0.0212,-0.0207 0.0674,-0.0437 0.0968,-0.0482 0.0173,-0.003 0.0199,-0.002 0.0199,0.007 0,0.008 -0.007,0.0128 -0.0312,0.0211 -0.0418,0.0144 -0.0654,0.0318 -0.0866,0.0637 -0.0225,0.0337 -0.0225,0.0411 -6e-5,0.0209 0.0254,-0.0228 0.0482,-0.0323 0.10392,-0.0432 0.0648,-0.0127 0.0694,-0.0125 0.0672,0.002 -0.001,0.01 -0.006,0.0121 -0.0326,0.0152 -0.0426,0.005 -0.0882,0.0182 -0.10308,0.0298 -0.0124,0.01 -0.0123,0.01 0.0115,0.004 0.0177,-0.004 0.0382,-0.004 0.0782,3.6e-4 0.0299,0.003 0.0551,0.007 0.0562,0.008 0.001,9.7e-4 3e-4,0.006 -0.002,0.0105 -0.003,0.008 -0.009,0.008 -0.0421,0.005 -0.0615,-0.006 -0.0863,-0.004 -0.12203,0.0113 -0.0182,0.008 -0.0354,0.0168 -0.0384,0.0202 -0.007,0.008 0.0506,0.0649 0.0752,0.0746 0.0146,0.006 0.0226,0.006 0.0509,-9.5e-4 0.0464,-0.0107 0.0614,-0.005 0.0811,0.0319 0.0119,0.0221 0.0147,0.0339 0.0138,0.0566 -0.001,0.0329 0.006,0.0456 0.0471,0.0815 0.0369,0.0323 0.0783,0.0488 0.11233,0.045 0.0345,-0.004 0.0549,0.004 0.0952,0.0369 0.017,0.0139 0.0517,0.0378 0.077,0.0533 0.0773,0.047 0.10861,0.0875 0.0893,0.11548 -0.0124,0.0179 -0.0321,0.0199 -0.0765,0.007 -0.0693,-0.0193 -0.0867,-0.0133 -0.0849,0.0295 6.8e-4,0.0171 0.009,0.0383 0.029,0.0763 0.0154,0.029 0.0299,0.0526 0.0321,0.0526 0.002,0 0.008,-0.009 0.0138,-0.0205 0.0107,-0.0225 0.0158,-0.0251 0.0236,-0.0118 0.006,0.01 0.0116,-5.4e-4 0.0329,-0.0613 0.0174,-0.0497 0.0228,-0.05 0.0305,-0.002 0.002,0.0131 0.005,0.0238 0.007,0.0238 0.002,4e-5 0.016,-0.0132 0.0314,-0.0295 0.0154,-0.0163 0.0295,-0.0281 0.0314,-0.0264 0.004,0.004 -0.0221,0.10402 -0.033,0.12392 -0.005,0.008 -0.007,0.0159 -0.006,0.0168 10e-4,9.9e-4 0.0125,-4.6e-4 0.0255,-0.003 0.013,-0.003 0.0251,-0.004 0.027,-0.002 0.002,0.002 -0.0215,0.0256 -0.0519,0.0528 l -0.0552,0.0495 -0.009,0.13098 c -0.005,0.072 -0.0109,0.19916 -0.0135,0.2825 -0.004,0.12408 -0.007,0.1585 -0.0155,0.19005 -0.006,0.0212 -0.0402,0.10786 -0.0761,0.19261 -0.0848,0.1999 -0.0845,0.19836 -0.0794,0.30818 0.002,0.048 0.004,0.1035 0.004,0.12328 3.6e-4,0.0577 -0.0173,0.0921 -0.12235,0.23798 -0.065,0.0903 -0.0795,0.1235 -0.0797,0.1831 l -1.5e-4,0.0461 -0.0454,0.0414 c -0.0493,0.0449 -0.0615,0.0678 -0.0447,0.0837 0.008,0.007 0.0121,0.007 0.0338,0.002 0.0138,-0.004 0.0378,-0.0121 0.0534,-0.019 0.0347,-0.0156 0.0433,-0.0158 0.0538,-0.002 0.01,0.0132 0.005,0.0252 -0.0191,0.0464 -0.009,0.008 -0.0156,0.0157 -0.0156,0.018 -1e-5,0.002 0.0167,0.003 0.0371,0.002 0.048,-0.002 0.0767,0.008 0.0767,0.0272 0,0.0156 -0.0101,0.0202 -0.0567,0.0256 l -0.0323,0.004 0.0287,0.0129 c 0.0321,0.0145 0.0433,0.03 0.0338,0.0469 -0.011,0.0195 -0.037,0.0191 -0.10049,-0.002 -0.0605,-0.0198 -0.0843,-0.0208 -0.0843,-0.003 0,0.005 0.007,0.0158 0.016,0.0238 0.024,0.0218 0.0343,0.0453 0.0268,0.0609 -0.009,0.0178 -0.0276,0.0261 -0.0515,0.0224 -0.0248,-0.004 -0.0385,-0.0158 -0.0755,-0.0657 -0.045,-0.0608 -0.0757,-0.0672 -0.20595,-0.0426 -0.0622,0.0117 -0.0772,0.0128 -0.12741,0.009 -0.0894,-0.006 -0.10455,-0.005 -0.13099,0.009 -0.0625,0.0347 -0.12084,0.16495 -0.14773,0.33002 -0.005,0.0283 -0.016,0.12302 -0.0253,0.2106 -0.0137,0.12936 -0.0164,0.17319 -0.0141,0.2337 0.004,0.11617 0.0186,0.15531 0.0999,0.27737 0.0618,0.0928 0.14151,0.23542 0.15896,0.28459 0.0481,0.13562 0.0656,0.31325 0.04,0.40641 -0.0244,0.0887 -0.11149,0.20127 -0.22352,0.28889 -0.0187,0.0147 -0.0968,0.0669 -0.17349,0.11618 -0.0946,0.0607 -0.167,0.11197 -0.22508,0.15926 -0.0471,0.0383 -0.0902,0.0721 -0.0959,0.0749 -0.0148,0.007 -0.0492,0.006 -0.0664,-0.003 z"
       id="path4775-0"
       inkscape:connector-curvature="0"
       inkscape:export-xdpi="600"
       inkscape:export-ydpi="600" />
    <path
       style="fill:#000000"
       d="m 265.36236,300.18513 c -0.0189,-0.01 -0.0259,-0.0223 -0.026,-0.0469 -8e-5,-0.0185 0.004,-0.0238 0.08,-0.0941 0.11573,-0.10759 0.18384,-0.15724 0.3613,-0.26337 0.11733,-0.0702 0.19881,-0.13539 0.22371,-0.17906 0.0123,-0.0216 0.0132,-0.0851 0.003,-0.19962 -0.0138,-0.15227 -0.0343,-0.22347 -0.10112,-0.35184 -0.0337,-0.0648 -0.0476,-0.0852 -0.087,-0.12841 -0.0557,-0.0611 -0.067,-0.0786 -0.0881,-0.13611 -0.0267,-0.073 -0.0311,-0.10507 -0.0307,-0.22601 5e-4,-0.15096 0.0117,-0.2252 0.0707,-0.46886 0.0687,-0.28372 0.0771,-0.40621 0.0364,-0.53004 -0.022,-0.0668 -0.0686,-0.15335 -0.098,-0.18184 -0.0228,-0.0222 -0.029,-0.0253 -0.0552,-0.0281 -0.0726,-0.008 -0.13191,-0.0869 -0.18973,-0.25307 -0.0421,-0.12086 -0.0461,-0.16698 -0.019,-0.21806 0.0141,-0.0267 0.0493,-0.0589 0.0757,-0.0694 0.0121,-0.005 0.0487,-0.008 0.11301,-0.009 0.0932,-0.002 0.0956,-0.002 0.11404,-0.0156 0.0506,-0.0365 0.0983,-0.11695 0.12235,-0.20604 0.0102,-0.0378 0.0233,-0.0722 0.0342,-0.0896 0.0237,-0.038 0.0967,-0.10664 0.13792,-0.1298 0.0269,-0.0151 0.0363,-0.024 0.0475,-0.045 0.0173,-0.0324 0.0385,-0.12342 0.0494,-0.21265 0.0119,-0.0974 0.0207,-0.12836 0.0507,-0.17811 0.0629,-0.10429 0.0711,-0.12897 0.0465,-0.13961 -0.0173,-0.007 -0.0308,0.003 -0.05,0.0395 -0.019,0.0359 -0.0275,0.0437 -0.0481,0.0437 -0.0257,0 -0.0348,-0.0149 -0.0345,-0.0564 2.5e-4,-0.0361 0.009,-0.0668 0.0244,-0.0826 0.0105,-0.011 0.0109,-0.018 0.005,-0.085 l -0.004,-0.0467 0.0202,-0.0212 c 0.0138,-0.0145 0.0211,-0.0277 0.0231,-0.0418 0.004,-0.0288 -0.0173,-0.11297 -0.0349,-0.1374 -0.0338,-0.0471 -0.0336,-0.0621 0.002,-0.0993 l 0.0202,-0.0212 -0.009,-0.0325 c -0.005,-0.0179 -0.009,-0.0374 -0.009,-0.0433 0,-0.006 -10e-4,-0.0107 -0.002,-0.0107 -10e-4,0 -0.0215,0.006 -0.0447,0.0127 -0.0451,0.0136 -0.0639,0.026 -0.14178,0.0937 -0.0405,0.0352 -0.0431,0.0367 -0.0515,0.028 -0.008,-0.009 -0.005,-0.0122 0.0509,-0.0603 0.0328,-0.0281 0.0712,-0.0575 0.0853,-0.0654 0.0216,-0.0121 0.023,-0.0138 0.009,-0.0109 -0.0197,0.004 -0.0471,0.0164 -0.1229,0.0552 -0.0553,0.0283 -0.058,0.0291 -0.0615,0.0187 -0.002,-0.006 -0.003,-0.0117 -0.002,-0.0126 0.006,-0.006 0.1396,-0.0723 0.15571,-0.0778 0.0439,-0.0149 -0.005,-0.006 -0.0719,0.0134 -0.0395,0.0113 -0.0737,0.0206 -0.0759,0.0206 -0.002,0 -0.003,-0.005 -0.002,-0.0111 10e-4,-0.009 0.0123,-0.0143 0.0695,-0.0314 0.0754,-0.0225 0.11818,-0.0256 0.17485,-0.0124 0.0172,0.004 0.0312,0.005 0.0312,0.002 0,-0.003 0.008,-0.0115 0.0175,-0.0199 0.0168,-0.0146 0.0172,-0.0157 0.01,-0.0318 -0.004,-0.009 -0.009,-0.0289 -0.01,-0.0438 -0.002,-0.0259 -0.001,-0.0279 0.0179,-0.0447 0.0245,-0.0213 0.0451,-0.0264 0.0658,-0.0165 0.009,0.004 0.0398,0.009 0.0722,0.0102 0.0313,0.002 0.0631,0.005 0.0708,0.008 0.0134,0.005 0.0146,0.003 0.0367,-0.0401 0.0126,-0.0248 0.0313,-0.0532 0.0415,-0.0632 0.0212,-0.0207 0.0674,-0.0437 0.0968,-0.0482 0.0173,-0.003 0.0199,-0.002 0.0199,0.007 0,0.008 -0.007,0.0128 -0.0312,0.0211 -0.0418,0.0144 -0.0654,0.0318 -0.0866,0.0637 -0.0225,0.0337 -0.0225,0.0411 -6e-5,0.0209 0.0254,-0.0228 0.0482,-0.0323 0.10392,-0.0432 0.0648,-0.0127 0.0694,-0.0125 0.0672,0.002 -10e-4,0.01 -0.006,0.0121 -0.0326,0.0152 -0.0426,0.005 -0.0882,0.0182 -0.10308,0.0298 -0.0124,0.01 -0.0123,0.01 0.0115,0.004 0.0177,-0.004 0.0382,-0.004 0.0782,3.6e-4 0.0299,0.003 0.0551,0.007 0.0562,0.008 10e-4,9.7e-4 3e-4,0.006 -0.002,0.0105 -0.003,0.008 -0.009,0.008 -0.0421,0.005 -0.0615,-0.006 -0.0863,-0.004 -0.12203,0.0113 -0.0182,0.008 -0.0354,0.0168 -0.0384,0.0202 -0.007,0.008 0.0506,0.0649 0.0752,0.0746 0.0146,0.006 0.0226,0.006 0.0509,-9.5e-4 0.0464,-0.0107 0.0614,-0.005 0.0811,0.0319 0.0119,0.0221 0.0147,0.0339 0.0138,0.0566 -10e-4,0.0329 0.006,0.0456 0.0471,0.0815 0.0369,0.0323 0.0783,0.0488 0.11233,0.045 0.0345,-0.004 0.0549,0.004 0.0952,0.0369 0.017,0.0139 0.0517,0.0378 0.077,0.0533 0.0773,0.047 0.10861,0.0875 0.0893,0.11548 -0.0124,0.0179 -0.0321,0.0199 -0.0765,0.007 -0.0693,-0.0193 -0.0867,-0.0133 -0.0849,0.0295 6.8e-4,0.0171 0.009,0.0383 0.029,0.0763 0.0154,0.029 0.0299,0.0526 0.0321,0.0526 0.002,0 0.008,-0.009 0.0138,-0.0205 0.0107,-0.0225 0.0158,-0.0251 0.0236,-0.0118 0.006,0.01 0.0116,-5.4e-4 0.0329,-0.0613 0.0174,-0.0497 0.0228,-0.05 0.0305,-0.002 0.002,0.0131 0.005,0.0238 0.007,0.0238 0.002,4e-5 0.016,-0.0132 0.0314,-0.0295 0.0154,-0.0163 0.0295,-0.0281 0.0314,-0.0264 0.004,0.004 -0.0221,0.10402 -0.033,0.12392 -0.005,0.008 -0.007,0.0159 -0.006,0.0168 10e-4,9.9e-4 0.0125,-4.6e-4 0.0255,-0.003 0.013,-0.003 0.0251,-0.004 0.027,-0.002 0.002,0.002 -0.0215,0.0256 -0.0519,0.0528 l -0.0552,0.0495 -0.009,0.13098 c -0.005,0.072 -0.0109,0.19916 -0.0135,0.2825 -0.004,0.12408 -0.007,0.1585 -0.0155,0.19005 -0.006,0.0212 -0.0402,0.10786 -0.0761,0.19261 -0.0848,0.1999 -0.0845,0.19836 -0.0794,0.30818 0.002,0.048 0.004,0.1035 0.004,0.12328 3.6e-4,0.0577 -0.0173,0.0921 -0.12235,0.23798 -0.065,0.0903 -0.0795,0.1235 -0.0797,0.1831 l -1.5e-4,0.0461 -0.0454,0.0414 c -0.0493,0.0449 -0.0615,0.0678 -0.0447,0.0837 0.008,0.007 0.0121,0.007 0.0338,0.002 0.0138,-0.004 0.0378,-0.0121 0.0534,-0.019 0.0347,-0.0156 0.0433,-0.0158 0.0538,-0.002 0.01,0.0132 0.005,0.0252 -0.0191,0.0464 -0.009,0.008 -0.0156,0.0157 -0.0156,0.018 -10e-6,0.002 0.0167,0.003 0.0371,0.002 0.048,-0.002 0.0767,0.008 0.0767,0.0272 0,0.0156 -0.0101,0.0202 -0.0567,0.0256 l -0.0323,0.004 0.0287,0.0129 c 0.0321,0.0145 0.0433,0.03 0.0338,0.0469 -0.011,0.0195 -0.037,0.0191 -0.10049,-0.002 -0.0605,-0.0198 -0.0843,-0.0208 -0.0843,-0.003 0,0.005 0.007,0.0158 0.016,0.0238 0.024,0.0218 0.0343,0.0453 0.0268,0.0609 -0.009,0.0178 -0.0276,0.0261 -0.0515,0.0224 -0.0248,-0.004 -0.0385,-0.0158 -0.0755,-0.0657 -0.045,-0.0608 -0.0757,-0.0672 -0.20595,-0.0426 -0.0622,0.0117 -0.0772,0.0128 -0.12741,0.009 -0.0894,-0.006 -0.10455,-0.005 -0.13099,0.009 -0.0625,0.0347 -0.12084,0.16495 -0.14773,0.33002 -0.005,0.0283 -0.016,0.12302 -0.0253,0.2106 -0.0137,0.12936 -0.0164,0.17319 -0.0141,0.2337 0.004,0.11617 0.0186,0.15531 0.0999,0.27737 0.0618,0.0928 0.14151,0.23542 0.15896,0.28459 0.0481,0.13562 0.0656,0.31325 0.04,0.40641 -0.0244,0.0887 -0.11149,0.20127 -0.22352,0.28889 -0.0187,0.0147 -0.0968,0.0669 -0.17349,0.11618 -0.0946,0.0607 -0.167,0.11197 -0.22508,0.15926 -0.0471,0.0383 -0.0902,0.0721 -0.0959,0.0749 -0.0148,0.007 -0.0492,0.006 -0.0664,-0.003 z"
       id="path4775-5"
       inkscape:connector-curvature="0"
       inkscape:export-xdpi="600"
       inkscape:export-ydpi="600" />
    <path
       inkscape:connector-curvature="0"
       id="path4377-1"
       d="m 267.1259,320.46775 -0.25964,0 -0.24949,0 0,-0.49925 0.24949,0 0.25964,0 0,0.49925 z"
       style="fill:#1c1c1c;fill-opacity:1;fill-rule:evenodd;stroke:none"
       inkscape:export-xdpi="600"
       inkscape:export-ydpi="600" />
    <path
       inkscape:connector-curvature="0"
       id="path4379-6"
       d="m 267.1259,319.46924 -0.25964,0 -0.24949,0 0,-0.49925 0.24949,0 0.25964,0 0,0.49925 z"
       style="fill:#1c1c1c;fill-opacity:1;fill-rule:evenodd;stroke:none"
       inkscape:export-xdpi="600"
       inkscape:export-ydpi="600" />
    <path
       inkscape:connector-curvature="0"
       id="path4381-9"
       d="m 267.1259,318.47102 -0.25964,0 -0.24949,0 0,-0.49925 0.24949,0 0.25964,0 0,0.49925 z"
       style="fill:#1c1c1c;fill-opacity:1;fill-rule:evenodd;stroke:none"
       inkscape:export-xdpi="600"
       inkscape:export-ydpi="600" />
    <path
       style="fill:#000000"
       d="m 267.53626,312.38029 c 0.0198,0.008 0.0279,0.0197 0.0303,0.0442 0.002,0.0184 -0.002,0.0241 -0.0707,0.1013 -0.10495,0.11813 -0.16802,0.17405 -0.33455,0.29661 -0.1101,0.0811 -0.185,0.15373 -0.20562,0.19957 -0.0102,0.0227 -0.005,0.086 0.016,0.199 0.0283,0.15026 0.0554,0.21918 0.1342,0.3406 0.0397,0.0613 0.0555,0.0803 0.0988,0.11953 0.0613,0.0555 0.0742,0.0718 0.10067,0.12709 0.0335,0.0701 0.041,0.10163 0.0521,0.22205 0.0139,0.15032 0.01,0.22529 -0.0257,0.47347 -0.0413,0.28897 -0.038,0.41171 0.0143,0.53109 0.0283,0.0644 0.0829,0.14612 0.11489,0.17167 0.0248,0.0199 0.0313,0.0224 0.0576,0.0227 0.073,10e-4 0.13959,0.0739 0.21299,0.23383 0.0534,0.1163 0.0618,0.16183 0.0397,0.21526 -0.0115,0.0279 -0.0435,0.0633 -0.0687,0.0763 -0.0116,0.006 -0.0477,0.0126 -0.11163,0.0197 -0.0926,0.0109 -0.095,0.0111 -0.11204,0.0264 -0.0469,0.0412 -0.0867,0.12579 -0.10215,0.21677 -0.007,0.0386 -0.0163,0.0741 -0.0255,0.0925 -0.02,0.0401 -0.0861,0.11537 -0.12492,0.14236 -0.0253,0.0176 -0.0338,0.0273 -0.043,0.0493 -0.0141,0.0339 -0.0266,0.12653 -0.0289,0.21639 -0.003,0.0981 -0.008,0.12975 -0.0335,0.18213 -0.0527,0.10981 -0.0585,0.13516 -0.033,0.14341 0.0179,0.005 0.0304,-0.006 0.046,-0.0441 0.0155,-0.0375 0.0232,-0.0461 0.0437,-0.0481 0.0256,-0.002 0.0361,0.0115 0.0397,0.0528 0.003,0.036 -0.003,0.0674 -0.0164,0.0846 -0.009,0.0119 -0.009,0.019 0.003,0.0851 l 0.008,0.0461 -0.0181,0.023 c -0.0124,0.0157 -0.0184,0.0296 -0.019,0.0438 -10e-4,0.029 0.028,0.1108 0.0478,0.13344 0.0381,0.0437 0.0394,0.0586 0.007,0.099 l -0.0181,0.023 0.012,0.0315 c 0.007,0.0173 0.0125,0.0364 0.0131,0.0422 5.7e-4,0.006 0.002,0.0106 0.003,0.0105 10e-4,-9e-5 0.0208,-0.008 0.0433,-0.0169 0.0436,-0.0178 0.0611,-0.032 0.1322,-0.10679 0.037,-0.0389 0.0394,-0.0406 0.0486,-0.0328 0.009,0.008 0.006,0.0117 -0.0449,0.0649 -0.03,0.0311 -0.0654,0.064 -0.0787,0.0732 -0.0203,0.0141 -0.0216,0.0159 -0.008,0.0117 0.0192,-0.006 0.0453,-0.0208 0.11708,-0.0667 0.0523,-0.0334 0.055,-0.0345 0.0594,-0.0245 0.003,0.006 0.004,0.0114 0.003,0.0124 -0.005,0.007 -0.13207,0.0853 -0.14758,0.0923 -0.0423,0.019 0.006,0.005 0.0703,-0.0202 0.0382,-0.015 0.0714,-0.0275 0.0736,-0.0277 0.002,-1.9e-4 0.003,0.005 0.003,0.0109 -1.4e-4,0.009 -0.0109,0.0154 -0.0662,0.0379 -0.0729,0.0296 -0.11521,0.0367 -0.17288,0.029 -0.0175,-0.002 -0.0315,-0.002 -0.0312,9.9e-4 2.9e-4,0.003 -0.007,0.0122 -0.0155,0.0215 -0.0153,0.0161 -0.0156,0.0173 -0.007,0.0326 0.005,0.009 0.0117,0.0279 0.0141,0.0426 0.004,0.0256 0.004,0.0277 -0.0136,0.0462 -0.0224,0.0235 -0.0424,0.0306 -0.0639,0.0227 -0.009,-0.003 -0.0405,-0.005 -0.0728,-0.003 -0.0314,9.9e-4 -0.0633,10e-4 -0.0712,-0.001 -0.0138,-0.004 -0.0148,-0.002 -0.0327,0.0434 -0.0102,0.0259 -0.0261,0.0559 -0.0353,0.0669 -0.0191,0.0226 -0.0629,0.0499 -0.0918,0.0572 -0.0169,0.005 -0.0196,0.004 -0.0205,-0.005 -7.6e-4,-0.008 0.006,-0.0134 0.0291,-0.024 0.0402,-0.0183 0.0621,-0.0379 0.0801,-0.0717 0.0192,-0.0357 0.0185,-0.043 -0.002,-0.0208 -0.0231,0.0251 -0.0449,0.0367 -0.0993,0.0529 -0.0633,0.0188 -0.0679,0.0191 -0.0671,0.004 4e-5,-0.01 0.005,-0.0126 0.031,-0.0182 0.0419,-0.009 0.0861,-0.0265 0.0998,-0.0395 0.0114,-0.0111 0.0113,-0.0111 -0.0118,-0.003 -0.0172,0.006 -0.0376,0.008 -0.0779,0.007 -0.03,-1.3e-4 -0.0555,-0.002 -0.0567,-0.003 -0.001,-8.7e-4 -8.7e-4,-0.006 9.9e-4,-0.0106 0.002,-0.008 0.008,-0.009 0.0414,-0.009 0.0618,1.1e-4 0.0863,-0.004 0.12039,-0.0229 0.0174,-0.01 0.0336,-0.0201 0.0363,-0.0238 0.006,-0.009 -0.0566,-0.0598 -0.082,-0.0671 -0.0151,-0.005 -0.0231,-0.004 -0.0506,0.006 -0.0452,0.0151 -0.0607,0.0108 -0.0838,-0.024 -0.014,-0.0209 -0.0179,-0.0323 -0.0191,-0.055 -0.002,-0.0328 -0.0103,-0.0448 -0.0546,-0.0766 -0.0398,-0.0286 -0.0826,-0.0411 -0.11611,-0.0341 -0.034,0.007 -0.055,10e-4 -0.0983,-0.0276 -0.0182,-0.0122 -0.0551,-0.0327 -0.0817,-0.0457 -0.0814,-0.0394 -0.11645,-0.0768 -0.0999,-0.10644 0.0106,-0.019 0.0301,-0.0229 0.0755,-0.0143 0.0708,0.0126 0.0876,0.005 0.0817,-0.0375 -0.002,-0.017 -0.0126,-0.0373 -0.0361,-0.0732 -0.0181,-0.0274 -0.0348,-0.0495 -0.037,-0.0493 -0.002,1.9e-4 -0.007,0.01 -0.0118,0.0217 -0.008,0.0234 -0.0133,0.0265 -0.0224,0.014 -0.007,-0.009 -0.0115,0.002 -0.0269,0.0642 -0.0126,0.0511 -0.0179,0.0519 -0.0302,0.005 -0.003,-0.0129 -0.007,-0.0232 -0.009,-0.023 -0.002,1.5e-4 -0.0147,0.0147 -0.0284,0.0324 -0.0138,0.0177 -0.0267,0.0308 -0.0287,0.0293 -0.004,-0.004 0.0121,-0.10565 0.021,-0.1265 0.004,-0.008 0.005,-0.0165 0.004,-0.0173 -10e-4,-8.9e-4 -0.0124,0.002 -0.0251,0.005 -0.0127,0.004 -0.0246,0.006 -0.0267,0.005 -0.002,-0.002 0.019,-0.0275 0.0466,-0.0575 l 0.0502,-0.0545 -0.004,-0.13124 c -0.002,-0.0721 -0.008,-0.19929 -0.0135,-0.2825 -0.008,-0.12389 -0.008,-0.15844 -0.003,-0.19066 0.004,-0.0217 0.0297,-0.1112 0.0574,-0.19899 0.0654,-0.20707 0.0652,-0.20551 0.0497,-0.31434 -0.007,-0.0476 -0.0139,-0.10265 -0.0157,-0.12234 -0.006,-0.0574 0.008,-0.0933 0.0991,-0.24856 0.0561,-0.0961 0.0674,-0.13052 0.0619,-0.18986 l -0.004,-0.0459 0.0412,-0.0455 c 0.0448,-0.0494 0.0548,-0.0734 0.0365,-0.0876 -0.009,-0.006 -0.0127,-0.006 -0.0338,0.001 -0.0134,0.005 -0.0365,0.0156 -0.0513,0.024 -0.0331,0.0188 -0.0416,0.0199 -0.0534,0.007 -0.0112,-0.0122 -0.007,-0.0246 0.0146,-0.048 0.008,-0.009 0.014,-0.0171 0.0138,-0.0194 -1.8e-4,-0.002 -0.0169,-10e-4 -0.0371,0.002 -0.0476,0.007 -0.0771,-6.5e-4 -0.0789,-0.0198 -10e-4,-0.0155 0.008,-0.0211 0.054,-0.0309 l 0.0318,-0.007 -0.0298,-0.0101 c -0.0333,-0.0114 -0.046,-0.0257 -0.0381,-0.0435 0.009,-0.0205 0.035,-0.0225 0.10022,-0.008 0.0621,0.0139 0.0859,0.0127 0.0842,-0.005 -4.8e-4,-0.005 -0.008,-0.0151 -0.0182,-0.0222 -0.026,-0.0194 -0.0385,-0.0418 -0.0325,-0.0581 0.007,-0.0186 0.025,-0.0286 0.0491,-0.0272 0.0251,0.002 0.0398,0.0121 0.0814,0.0582 0.0506,0.0562 0.0818,0.0597 0.20907,0.0228 0.0608,-0.0176 0.0756,-0.0201 0.12597,-0.0211 0.0896,-0.003 0.10455,-0.005 0.12954,-0.0214 0.0589,-0.0405 0.10456,-0.17572 0.11559,-0.3426 0.002,-0.0287 0.004,-0.12399 0.005,-0.21206 10e-4,-0.13007 -1.8e-4,-0.17396 -0.008,-0.23398 -0.0151,-0.11525 -0.0333,-0.15282 -0.12589,-0.26658 -0.0704,-0.0865 -0.16331,-0.22086 -0.18537,-0.26814 -0.0608,-0.13042 -0.0952,-0.30557 -0.0786,-0.40074 0.0158,-0.0906 0.0918,-0.21099 0.19496,-0.30889 0.0172,-0.0164 0.09,-0.0758 0.16163,-0.13219 0.0884,-0.0694 0.15556,-0.12738 0.20887,-0.17999 0.0432,-0.0426 0.0829,-0.0804 0.0883,-0.0837 0.0141,-0.008 0.0484,-0.0107 0.0664,-0.003 z"
       id="path4775-5-1"
       inkscape:connector-curvature="0"
       inkscape:export-xdpi="600"
       inkscape:export-ydpi="600" />
    <path
       inkscape:connector-curvature="0"
       id="path4141-1"
       d="m 160.22844,327.76243 0,-1.27796 29.8927,-0.1997 0.01,2.55597 -29.8927,0.19967 -0.01,-1.27798 z"
       style="fill:#dddddd;fill-opacity:1;fill-rule:evenodd;stroke:none"
       inkscape:export-xdpi="600"
       inkscape:export-ydpi="600" />
    <path
       inkscape:connector-curvature="0"
       id="path4143-7"
       d="m 175.19469,343.21785 -1.38769,0 0,-30.71128 2.77538,0 0,30.71128 -1.38769,0 z"
       style="fill:#dddddd;fill-opacity:1;fill-rule:evenodd;stroke:none"
       inkscape:export-xdpi="600"
       inkscape:export-ydpi="600" />
    <path
       style="fill:#000000"
       d="m 174.34867,342.85213 c -0.0189,-0.01 -0.0259,-0.0223 -0.026,-0.0469 -8e-5,-0.0185 0.004,-0.0238 0.08,-0.0941 0.11573,-0.10759 0.18384,-0.15724 0.3613,-0.26337 0.11733,-0.0702 0.19881,-0.13539 0.22371,-0.17906 0.0123,-0.0216 0.0132,-0.0851 0.003,-0.19962 -0.0138,-0.15227 -0.0343,-0.22347 -0.10112,-0.35184 -0.0337,-0.0648 -0.0476,-0.0852 -0.087,-0.12841 -0.0557,-0.0611 -0.067,-0.0786 -0.0881,-0.13611 -0.0267,-0.073 -0.0311,-0.10507 -0.0307,-0.22601 5e-4,-0.15096 0.0117,-0.2252 0.0707,-0.46886 0.0687,-0.28372 0.0771,-0.40621 0.0364,-0.53004 -0.022,-0.0668 -0.0686,-0.15335 -0.098,-0.18184 -0.0228,-0.0222 -0.029,-0.0253 -0.0552,-0.0281 -0.0726,-0.008 -0.13191,-0.0869 -0.18973,-0.25307 -0.0421,-0.12086 -0.0461,-0.16698 -0.019,-0.21806 0.0141,-0.0267 0.0493,-0.0589 0.0757,-0.0694 0.0121,-0.005 0.0487,-0.008 0.11301,-0.009 0.0932,-0.002 0.0956,-0.002 0.11404,-0.0156 0.0506,-0.0365 0.0983,-0.11695 0.12235,-0.20604 0.0102,-0.0378 0.0233,-0.0722 0.0342,-0.0896 0.0237,-0.038 0.0967,-0.10664 0.13792,-0.1298 0.0269,-0.0151 0.0363,-0.024 0.0475,-0.045 0.0173,-0.0324 0.0385,-0.12342 0.0494,-0.21265 0.0119,-0.0974 0.0207,-0.12836 0.0507,-0.17811 0.0629,-0.10429 0.0711,-0.12897 0.0465,-0.13961 -0.0173,-0.007 -0.0308,0.003 -0.05,0.0395 -0.019,0.0359 -0.0275,0.0437 -0.0481,0.0437 -0.0257,0 -0.0348,-0.0149 -0.0345,-0.0564 2.5e-4,-0.0361 0.009,-0.0668 0.0244,-0.0826 0.0105,-0.011 0.0109,-0.018 0.005,-0.085 l -0.004,-0.0467 0.0202,-0.0212 c 0.0138,-0.0145 0.0211,-0.0277 0.0231,-0.0418 0.004,-0.0288 -0.0173,-0.11297 -0.0349,-0.1374 -0.0338,-0.0471 -0.0336,-0.0621 0.002,-0.0993 l 0.0202,-0.0212 -0.009,-0.0325 c -0.005,-0.0179 -0.009,-0.0374 -0.009,-0.0433 0,-0.006 -0.001,-0.0107 -0.002,-0.0107 -0.001,0 -0.0215,0.006 -0.0447,0.0127 -0.0451,0.0136 -0.0639,0.026 -0.14178,0.0937 -0.0405,0.0352 -0.0431,0.0367 -0.0515,0.028 -0.008,-0.009 -0.005,-0.0122 0.0509,-0.0603 0.0328,-0.0281 0.0712,-0.0575 0.0853,-0.0654 0.0216,-0.0121 0.023,-0.0138 0.009,-0.0109 -0.0197,0.004 -0.0471,0.0164 -0.1229,0.0552 -0.0553,0.0283 -0.058,0.0291 -0.0615,0.0187 -0.002,-0.006 -0.003,-0.0117 -0.002,-0.0126 0.006,-0.006 0.1396,-0.0723 0.15571,-0.0778 0.0439,-0.0149 -0.005,-0.006 -0.0719,0.0134 -0.0395,0.0113 -0.0737,0.0206 -0.0759,0.0206 -0.002,0 -0.003,-0.005 -0.002,-0.0111 0.001,-0.009 0.0123,-0.0143 0.0695,-0.0314 0.0754,-0.0225 0.11818,-0.0256 0.17485,-0.0124 0.0172,0.004 0.0312,0.005 0.0312,0.002 0,-0.003 0.008,-0.0115 0.0175,-0.0199 0.0168,-0.0146 0.0172,-0.0157 0.01,-0.0318 -0.004,-0.009 -0.009,-0.0289 -0.01,-0.0438 -0.002,-0.0259 -0.001,-0.0279 0.0179,-0.0447 0.0245,-0.0213 0.0451,-0.0264 0.0658,-0.0165 0.009,0.004 0.0398,0.009 0.0722,0.0102 0.0313,0.002 0.0631,0.005 0.0708,0.008 0.0134,0.005 0.0146,0.003 0.0367,-0.0401 0.0126,-0.0248 0.0313,-0.0532 0.0415,-0.0632 0.0212,-0.0207 0.0674,-0.0437 0.0968,-0.0482 0.0173,-0.003 0.0199,-0.002 0.0199,0.007 0,0.008 -0.007,0.0128 -0.0312,0.0211 -0.0418,0.0144 -0.0654,0.0318 -0.0866,0.0637 -0.0225,0.0337 -0.0225,0.0411 -6e-5,0.0209 0.0254,-0.0228 0.0482,-0.0323 0.10392,-0.0432 0.0648,-0.0127 0.0694,-0.0125 0.0672,0.002 -0.001,0.01 -0.006,0.0121 -0.0326,0.0152 -0.0426,0.005 -0.0882,0.0182 -0.10308,0.0298 -0.0124,0.01 -0.0123,0.01 0.0115,0.004 0.0177,-0.004 0.0382,-0.004 0.0782,3.6e-4 0.0299,0.003 0.0551,0.007 0.0562,0.008 0.001,9.7e-4 3e-4,0.006 -0.002,0.0105 -0.003,0.008 -0.009,0.008 -0.0421,0.005 -0.0615,-0.006 -0.0863,-0.004 -0.12203,0.0113 -0.0182,0.008 -0.0354,0.0168 -0.0384,0.0202 -0.007,0.008 0.0506,0.0649 0.0752,0.0746 0.0146,0.006 0.0226,0.006 0.0509,-9.5e-4 0.0464,-0.0107 0.0614,-0.005 0.0811,0.0319 0.0119,0.0221 0.0147,0.0339 0.0138,0.0566 -0.001,0.0329 0.006,0.0456 0.0471,0.0815 0.0369,0.0323 0.0783,0.0488 0.11233,0.045 0.0345,-0.004 0.0549,0.004 0.0952,0.0369 0.017,0.0139 0.0517,0.0378 0.077,0.0533 0.0773,0.047 0.10861,0.0875 0.0893,0.11548 -0.0124,0.0179 -0.0321,0.0199 -0.0765,0.007 -0.0693,-0.0193 -0.0867,-0.0133 -0.0849,0.0295 6.8e-4,0.0171 0.009,0.0383 0.029,0.0763 0.0154,0.029 0.0299,0.0526 0.0321,0.0526 0.002,0 0.008,-0.009 0.0138,-0.0205 0.0107,-0.0225 0.0158,-0.0251 0.0236,-0.0118 0.006,0.01 0.0116,-5.4e-4 0.0329,-0.0613 0.0174,-0.0497 0.0228,-0.05 0.0305,-0.002 0.002,0.0131 0.005,0.0238 0.007,0.0238 0.002,4e-5 0.016,-0.0132 0.0314,-0.0295 0.0154,-0.0163 0.0295,-0.0281 0.0314,-0.0264 0.004,0.004 -0.0221,0.10402 -0.033,0.12392 -0.005,0.008 -0.007,0.0159 -0.006,0.0168 0.001,9.9e-4 0.0125,-4.6e-4 0.0255,-0.003 0.013,-0.003 0.0251,-0.004 0.027,-0.002 0.002,0.002 -0.0215,0.0256 -0.0519,0.0528 l -0.0552,0.0495 -0.009,0.13098 c -0.005,0.072 -0.0109,0.19916 -0.0135,0.2825 -0.004,0.12408 -0.007,0.1585 -0.0155,0.19005 -0.006,0.0212 -0.0402,0.10786 -0.0761,0.19261 -0.0848,0.1999 -0.0845,0.19836 -0.0794,0.30818 0.002,0.048 0.004,0.1035 0.004,0.12328 3.6e-4,0.0577 -0.0173,0.0921 -0.12235,0.23798 -0.065,0.0903 -0.0795,0.1235 -0.0797,0.1831 l -1.5e-4,0.0461 -0.0454,0.0414 c -0.0493,0.0449 -0.0615,0.0678 -0.0447,0.0837 0.008,0.007 0.0121,0.007 0.0338,0.002 0.0138,-0.004 0.0378,-0.0121 0.0534,-0.019 0.0347,-0.0156 0.0433,-0.0158 0.0538,-0.002 0.01,0.0132 0.005,0.0252 -0.0191,0.0464 -0.009,0.008 -0.0156,0.0157 -0.0156,0.018 -1e-5,0.002 0.0167,0.003 0.0371,0.002 0.048,-0.002 0.0767,0.008 0.0767,0.0272 0,0.0156 -0.0101,0.0202 -0.0567,0.0256 l -0.0323,0.004 0.0287,0.0129 c 0.0321,0.0145 0.0433,0.03 0.0338,0.0469 -0.011,0.0195 -0.037,0.0191 -0.10049,-0.002 -0.0605,-0.0198 -0.0843,-0.0208 -0.0843,-0.003 0,0.005 0.007,0.0158 0.016,0.0238 0.024,0.0218 0.0343,0.0453 0.0268,0.0609 -0.009,0.0178 -0.0276,0.0261 -0.0515,0.0224 -0.0248,-0.004 -0.0385,-0.0158 -0.0755,-0.0657 -0.045,-0.0608 -0.0757,-0.0672 -0.20595,-0.0426 -0.0622,0.0117 -0.0772,0.0128 -0.12741,0.009 -0.0894,-0.006 -0.10455,-0.005 -0.13099,0.009 -0.0625,0.0347 -0.12084,0.16495 -0.14773,0.33002 -0.005,0.0283 -0.016,0.12302 -0.0253,0.2106 -0.0137,0.12936 -0.0164,0.17319 -0.0141,0.2337 0.004,0.11617 0.0186,0.15531 0.0999,0.27737 0.0618,0.0928 0.14151,0.23542 0.15896,0.28459 0.0481,0.13562 0.0656,0.31325 0.04,0.40641 -0.0244,0.0887 -0.11149,0.20127 -0.22352,0.28889 -0.0187,0.0147 -0.0968,0.0669 -0.17349,0.11618 -0.0946,0.0607 -0.167,0.11197 -0.22508,0.15926 -0.0471,0.0383 -0.0902,0.0721 -0.0959,0.0749 -0.0148,0.007 -0.0492,0.006 -0.0664,-0.003 z"
       id="path4775-2"
       inkscape:connector-curvature="0"
       inkscape:export-xdpi="600"
       inkscape:export-ydpi="600" />
    <path
       inkscape:connector-curvature="0"
       id="path4149-0"
       d="m 175.50949,336.96474 -0.25964,0 -0.24977,0 0,-0.49925 0.24977,0 0.25964,0 0,0.49925 z"
       style="fill:#1c1c1c;fill-opacity:1;fill-rule:evenodd;stroke:none"
       inkscape:export-xdpi="600"
       inkscape:export-ydpi="600" />
    <path
       inkscape:connector-curvature="0"
       id="path4151-2"
       d="m 175.50949,335.96623 -0.25964,0 -0.24977,0 0,-0.49925 0.24977,0 0.25964,0 0,0.49925 z"
       style="fill:#1c1c1c;fill-opacity:1;fill-rule:evenodd;stroke:none"
       inkscape:export-xdpi="600"
       inkscape:export-ydpi="600" />
    <path
       inkscape:connector-curvature="0"
       id="path4153-4"
       d="m 175.50949,334.96773 -0.25964,0 -0.24977,0 0,-0.49914 0.24977,0 0.25964,0 0,0.49914 z"
       style="fill:#1c1c1c;fill-opacity:1;fill-rule:evenodd;stroke:none"
       inkscape:export-xdpi="600"
       inkscape:export-ydpi="600" />
    <path
       inkscape:connector-curvature="0"
       id="path4155-3"
       d="m 175.50949,333.9694 -0.25964,0 -0.24977,0 0,-0.49922 0.24977,0 0.25964,0 0,0.49922 z"
       style="fill:#1c1c1c;fill-opacity:1;fill-rule:evenodd;stroke:none"
       inkscape:export-xdpi="600"
       inkscape:export-ydpi="600" />
    <path
       inkscape:connector-curvature="0"
       id="path4157-0"
       d="m 175.50949,332.97098 -0.25964,0 -0.24977,0 0,-0.49922 0.24977,0 0.25964,0 0,0.49922 z"
       style="fill:#1c1c1c;fill-opacity:1;fill-rule:evenodd;stroke:none"
       inkscape:export-xdpi="600"
       inkscape:export-ydpi="600" />
    <path
       inkscape:connector-curvature="0"
       id="path4159-3"
       d="m 175.50949,331.97254 -0.25964,0 -0.24977,0 0,-0.4992 0.24977,0 0.25964,0 0,0.4992 z"
       style="fill:#1c1c1c;fill-opacity:1;fill-rule:evenodd;stroke:none"
       inkscape:export-xdpi="600"
       inkscape:export-ydpi="600" />
    <path
       inkscape:connector-curvature="0"
       id="path4161-3"
       d="m 175.50949,330.97412 -0.25964,0 -0.24977,0 0,-0.4992 0.24977,0 0.25964,0 0,0.4992 z"
       style="fill:#1c1c1c;fill-opacity:1;fill-rule:evenodd;stroke:none"
       inkscape:export-xdpi="600"
       inkscape:export-ydpi="600" />
    <path
       inkscape:connector-curvature="0"
       id="path4163-9"
       d="m 175.50949,329.9757 -0.25964,0 -0.24977,0 0,-0.49919 0.24977,0 0.25964,0 0,0.49919 z"
       style="fill:#1c1c1c;fill-opacity:1;fill-rule:evenodd;stroke:none"
       inkscape:export-xdpi="600"
       inkscape:export-ydpi="600" />
    <path
       inkscape:connector-curvature="0"
       id="path4165-6"
       d="m 175.50949,328.97728 -0.25964,0 -0.24977,0 0,-0.49919 0.24977,0 0.25964,0 0,0.49919 z"
       style="fill:#1c1c1c;fill-opacity:1;fill-rule:evenodd;stroke:none"
       inkscape:export-xdpi="600"
       inkscape:export-ydpi="600" />
    <path
       inkscape:connector-curvature="0"
       id="path4169-0"
       d="m 162.10662,328.06873 0,-0.25959 0,-0.2496 0.49925,0 0,0.2496 0,0.25959 -0.49925,0 z"
       style="fill:#1c1c1c;fill-opacity:1;fill-rule:evenodd;stroke:none"
       inkscape:export-xdpi="600"
       inkscape:export-ydpi="600" />
    <path
       inkscape:connector-curvature="0"
       id="path4171-4"
       d="m 163.10513,328.06873 0,-0.25959 0,-0.2496 0.49925,0 0,0.2496 0,0.25959 -0.49925,0 z"
       style="fill:#1c1c1c;fill-opacity:1;fill-rule:evenodd;stroke:none"
       inkscape:export-xdpi="600"
       inkscape:export-ydpi="600" />
    <path
       inkscape:connector-curvature="0"
       id="path4173-9"
       d="m 164.10363,328.06873 0,-0.25959 0,-0.2496 0.49925,0 0,0.2496 0,0.25959 -0.49925,0 z"
       style="fill:#1c1c1c;fill-opacity:1;fill-rule:evenodd;stroke:none"
       inkscape:export-xdpi="600"
       inkscape:export-ydpi="600" />
    <path
       inkscape:connector-curvature="0"
       id="path4175-1"
       d="m 165.10213,328.06873 0,-0.25959 0,-0.2496 0.49897,0 0,0.2496 0,0.25959 -0.49897,0 z"
       style="fill:#1c1c1c;fill-opacity:1;fill-rule:evenodd;stroke:none"
       inkscape:export-xdpi="600"
       inkscape:export-ydpi="600" />
    <path
       inkscape:connector-curvature="0"
       id="path4177-2"
       d="m 166.10035,328.06873 0,-0.25959 0,-0.2496 0.49925,0 0,0.2496 0,0.25959 -0.49925,0 z"
       style="fill:#1c1c1c;fill-opacity:1;fill-rule:evenodd;stroke:none"
       inkscape:export-xdpi="600"
       inkscape:export-ydpi="600" />
    <path
       inkscape:connector-curvature="0"
       id="path4179-9"
       d="m 167.09885,328.06873 0,-0.25959 0,-0.2496 0.49925,0 0,0.2496 0,0.25959 -0.49925,0 z"
       style="fill:#1c1c1c;fill-opacity:1;fill-rule:evenodd;stroke:none"
       inkscape:export-xdpi="600"
       inkscape:export-ydpi="600" />
    <path
       inkscape:connector-curvature="0"
       id="path4181-6"
       d="m 168.09735,328.06873 0,-0.25959 0,-0.2496 0.49926,0 0,0.2496 0,0.25959 -0.49926,0 z"
       style="fill:#1c1c1c;fill-opacity:1;fill-rule:evenodd;stroke:none"
       inkscape:export-xdpi="600"
       inkscape:export-ydpi="600" />
    <path
       inkscape:connector-curvature="0"
       id="path4183-7"
       d="m 169.09557,328.06873 0,-0.25959 0,-0.2496 0.49926,0 0,0.2496 0,0.25959 -0.49926,0 z"
       style="fill:#1c1c1c;fill-opacity:1;fill-rule:evenodd;stroke:none"
       inkscape:export-xdpi="600"
       inkscape:export-ydpi="600" />
    <path
       inkscape:connector-curvature="0"
       id="path4185-2"
       d="m 170.09408,328.06873 0,-0.25959 0,-0.2496 0.49925,0 0,0.2496 0,0.25959 -0.49925,0 z"
       style="fill:#1c1c1c;fill-opacity:1;fill-rule:evenodd;stroke:none"
       inkscape:export-xdpi="600"
       inkscape:export-ydpi="600" />
    <path
       inkscape:connector-curvature="0"
       id="path4187-9"
       d="m 171.09258,328.06873 0,-0.25959 0,-0.2496 0.49925,0 0,0.2496 0,0.25959 -0.49925,0 z"
       style="fill:#1c1c1c;fill-opacity:1;fill-rule:evenodd;stroke:none"
       inkscape:export-xdpi="600"
       inkscape:export-ydpi="600" />
    <path
       inkscape:connector-curvature="0"
       id="path4189-4"
       d="m 172.09108,328.06873 0,-0.25959 0,-0.2496 0.49897,0 0,0.2496 0,0.25959 -0.49897,0 z"
       style="fill:#1c1c1c;fill-opacity:1;fill-rule:evenodd;stroke:none"
       inkscape:export-xdpi="600"
       inkscape:export-ydpi="600" />
    <path
       inkscape:connector-curvature="0"
       id="path4191-8"
       d="m 173.0893,328.06873 0,-0.25959 0,-0.2496 0.49925,0 0,0.2496 0,0.25959 -0.49925,0 z"
       style="fill:#1c1c1c;fill-opacity:1;fill-rule:evenodd;stroke:none"
       inkscape:export-xdpi="600"
       inkscape:export-ydpi="600" />
    <path
       inkscape:connector-curvature="0"
       id="path4193-7"
       d="m 174.0878,328.06873 0,-0.25959 0,-0.2496 0.49925,0 0,0.2496 0,0.25959 -0.49925,0 z"
       style="fill:#1c1c1c;fill-opacity:1;fill-rule:evenodd;stroke:none"
       inkscape:export-xdpi="600"
       inkscape:export-ydpi="600" />
    <path
       inkscape:connector-curvature="0"
       id="path4195-5"
       d="m 175.02318,328.06873 0,-0.25959 0,-0.2496 0.47921,0 0,0.2496 0,0.25959 -0.47921,0 z"
       style="fill:#1c1c1c;fill-opacity:1;fill-rule:evenodd;stroke:none"
       inkscape:export-xdpi="600"
       inkscape:export-ydpi="600" />
    <path
       inkscape:connector-curvature="0"
       id="path4203-5"
       d="m 176.87101,326.13502 0,0.23961 -3.07797,-0.0199 0,-0.46925 3.07797,0.0199 0,0.22964 z"
       style="fill:#000000;fill-opacity:1;fill-rule:evenodd;stroke:none"
       inkscape:export-xdpi="600"
       inkscape:export-ydpi="600" />
    <path
       inkscape:connector-curvature="0"
       id="path4207-5"
       d="m 176.82362,325.90155 0.2396,0 -0.01,3.01699 -0.46933,0 0.0102,-3.01699 0.22945,0 z"
       style="fill:#000000;fill-opacity:1;fill-rule:evenodd;stroke:none"
       inkscape:export-xdpi="600"
       inkscape:export-ydpi="600" />
    <path
       inkscape:connector-curvature="0"
       id="path4275-6"
       d="m 206.75382,327.6726 0,-1.27799 29.88253,-0.0799 0.0102,2.55594 -29.88281,0.0799 -0.01,-1.27795 z"
       style="fill:#dddddd;fill-opacity:1;fill-rule:evenodd;stroke:none"
       inkscape:export-xdpi="600"
       inkscape:export-ydpi="600" />
    <path
       inkscape:connector-curvature="0"
       id="path4277-5"
       d="m 221.70002,343.19809 -1.39756,0 0,-30.69152 2.78553,0 0,30.69152 -1.38797,0 z"
       style="fill:#dddddd;fill-opacity:1;fill-rule:evenodd;stroke:none"
       inkscape:export-xdpi="600"
       inkscape:export-ydpi="600" />
    <path
       inkscape:connector-curvature="0"
       id="path4285-7"
       d="m 223.20766,326.14501 0,0.22962 -3.23484,-0.0199 0,-0.45929 3.23484,0.02 0,0.22964 z"
       style="fill:#000000;fill-opacity:1;fill-rule:evenodd;stroke:none"
       inkscape:export-xdpi="600"
       inkscape:export-ydpi="600" />
    <path
       inkscape:connector-curvature="0"
       id="path4287-6"
       d="m 223.20766,326.14501 0,0.22962 -3.23484,-0.0199 0,-0.45929 3.23484,0.02 0,0.22964"
       style="fill:none;stroke:#000000;stroke-width:0.0099842px;stroke-linecap:round;stroke-linejoin:round;stroke-miterlimit:4;stroke-dasharray:none;stroke-opacity:1"
       inkscape:export-xdpi="600"
       inkscape:export-ydpi="600" />
    <path
       inkscape:connector-curvature="0"
       id="path4289-3"
       d="m 210.23813,335.15081 -0.01,-3.34476 7.57795,-0.03 0.02,6.69931 -7.57795,0.0302 -0.0102,-3.35478 z"
       style="fill:#dddddd;fill-opacity:1;fill-rule:evenodd;stroke:none"
       inkscape:export-xdpi="600"
       inkscape:export-ydpi="600" />
    <path
       style="fill:#000000"
       d="m 213.85869,338.33768 c -0.0189,-0.01 -0.0259,-0.0223 -0.026,-0.0469 -8e-5,-0.0185 0.004,-0.0238 0.08,-0.0941 0.11573,-0.10759 0.18384,-0.15724 0.3613,-0.26337 0.11733,-0.0702 0.19881,-0.13539 0.22371,-0.17906 0.0123,-0.0216 0.0132,-0.0851 0.003,-0.19962 -0.0138,-0.15227 -0.0343,-0.22347 -0.10112,-0.35184 -0.0337,-0.0648 -0.0476,-0.0852 -0.087,-0.12841 -0.0557,-0.0611 -0.067,-0.0786 -0.0881,-0.13611 -0.0267,-0.073 -0.0311,-0.10507 -0.0307,-0.22601 5e-4,-0.15096 0.0117,-0.2252 0.0707,-0.46886 0.0687,-0.28372 0.0771,-0.40621 0.0364,-0.53004 -0.022,-0.0668 -0.0686,-0.15335 -0.098,-0.18184 -0.0228,-0.0222 -0.029,-0.0253 -0.0552,-0.0281 -0.0726,-0.008 -0.13191,-0.0869 -0.18973,-0.25307 -0.0421,-0.12086 -0.0461,-0.16698 -0.019,-0.21806 0.0141,-0.0267 0.0493,-0.0589 0.0757,-0.0694 0.0121,-0.005 0.0487,-0.008 0.11301,-0.009 0.0932,-0.002 0.0956,-0.002 0.11404,-0.0156 0.0506,-0.0365 0.0983,-0.11695 0.12235,-0.20604 0.0102,-0.0378 0.0233,-0.0722 0.0342,-0.0896 0.0237,-0.038 0.0967,-0.10664 0.13792,-0.1298 0.0269,-0.0151 0.0363,-0.024 0.0475,-0.045 0.0173,-0.0324 0.0385,-0.12342 0.0494,-0.21265 0.0119,-0.0974 0.0207,-0.12836 0.0507,-0.17811 0.0629,-0.10429 0.0711,-0.12897 0.0465,-0.13961 -0.0173,-0.007 -0.0308,0.003 -0.05,0.0395 -0.019,0.0359 -0.0275,0.0437 -0.0481,0.0437 -0.0257,0 -0.0348,-0.0149 -0.0345,-0.0564 2.5e-4,-0.0361 0.009,-0.0668 0.0244,-0.0826 0.0105,-0.011 0.0109,-0.018 0.005,-0.085 l -0.004,-0.0467 0.0202,-0.0212 c 0.0138,-0.0145 0.0211,-0.0277 0.0231,-0.0418 0.004,-0.0288 -0.0173,-0.11297 -0.0349,-0.1374 -0.0338,-0.0471 -0.0336,-0.0621 0.002,-0.0993 l 0.0202,-0.0212 -0.009,-0.0325 c -0.005,-0.0179 -0.009,-0.0374 -0.009,-0.0433 0,-0.006 -0.001,-0.0107 -0.002,-0.0107 -0.001,0 -0.0215,0.006 -0.0447,0.0127 -0.0451,0.0136 -0.0639,0.026 -0.14178,0.0937 -0.0405,0.0352 -0.0431,0.0367 -0.0515,0.028 -0.008,-0.009 -0.005,-0.0122 0.0509,-0.0603 0.0328,-0.0281 0.0712,-0.0575 0.0853,-0.0654 0.0216,-0.0121 0.023,-0.0138 0.009,-0.0109 -0.0197,0.004 -0.0471,0.0164 -0.1229,0.0552 -0.0553,0.0283 -0.058,0.0291 -0.0615,0.0187 -0.002,-0.006 -0.003,-0.0117 -0.002,-0.0126 0.006,-0.006 0.1396,-0.0723 0.15571,-0.0778 0.0439,-0.0149 -0.005,-0.006 -0.0719,0.0134 -0.0395,0.0113 -0.0737,0.0206 -0.0759,0.0206 -0.002,0 -0.003,-0.005 -0.002,-0.0111 0.001,-0.009 0.0123,-0.0143 0.0695,-0.0314 0.0754,-0.0225 0.11818,-0.0256 0.17485,-0.0124 0.0172,0.004 0.0312,0.005 0.0312,0.002 0,-0.003 0.008,-0.0115 0.0175,-0.0199 0.0168,-0.0146 0.0172,-0.0157 0.01,-0.0318 -0.004,-0.009 -0.009,-0.0289 -0.01,-0.0438 -0.002,-0.0259 -0.001,-0.0279 0.0179,-0.0447 0.0245,-0.0213 0.0451,-0.0264 0.0658,-0.0165 0.009,0.004 0.0398,0.009 0.0722,0.0102 0.0313,0.002 0.0631,0.005 0.0708,0.008 0.0134,0.005 0.0146,0.003 0.0367,-0.0401 0.0126,-0.0248 0.0313,-0.0532 0.0415,-0.0632 0.0212,-0.0207 0.0674,-0.0437 0.0968,-0.0482 0.0173,-0.003 0.0199,-0.002 0.0199,0.007 0,0.008 -0.007,0.0128 -0.0312,0.0211 -0.0418,0.0144 -0.0654,0.0318 -0.0866,0.0637 -0.0225,0.0337 -0.0225,0.0411 -6e-5,0.0209 0.0254,-0.0228 0.0482,-0.0323 0.10392,-0.0432 0.0648,-0.0127 0.0694,-0.0125 0.0672,0.002 -0.001,0.01 -0.006,0.0121 -0.0326,0.0152 -0.0426,0.005 -0.0882,0.0182 -0.10308,0.0298 -0.0124,0.01 -0.0123,0.01 0.0115,0.004 0.0177,-0.004 0.0382,-0.004 0.0782,3.6e-4 0.0299,0.003 0.0551,0.007 0.0562,0.008 0.001,9.7e-4 3e-4,0.006 -0.002,0.0105 -0.003,0.008 -0.009,0.008 -0.0421,0.005 -0.0615,-0.006 -0.0863,-0.004 -0.12203,0.0113 -0.0182,0.008 -0.0354,0.0168 -0.0384,0.0202 -0.007,0.008 0.0506,0.0649 0.0752,0.0746 0.0146,0.006 0.0226,0.006 0.0509,-9.5e-4 0.0464,-0.0107 0.0614,-0.005 0.0811,0.0319 0.0119,0.0221 0.0147,0.0339 0.0138,0.0566 -0.001,0.0329 0.006,0.0456 0.0471,0.0815 0.0369,0.0323 0.0783,0.0488 0.11233,0.045 0.0345,-0.004 0.0549,0.004 0.0952,0.0369 0.017,0.0139 0.0517,0.0378 0.077,0.0533 0.0773,0.047 0.10861,0.0875 0.0893,0.11548 -0.0124,0.0179 -0.0321,0.0199 -0.0765,0.007 -0.0693,-0.0193 -0.0867,-0.0133 -0.0849,0.0295 6.8e-4,0.0171 0.009,0.0383 0.029,0.0763 0.0154,0.029 0.0299,0.0526 0.0321,0.0526 0.002,0 0.008,-0.009 0.0138,-0.0205 0.0107,-0.0225 0.0158,-0.0251 0.0236,-0.0118 0.006,0.01 0.0116,-5.4e-4 0.0329,-0.0613 0.0174,-0.0497 0.0228,-0.05 0.0305,-0.002 0.002,0.0131 0.005,0.0238 0.007,0.0238 0.002,4e-5 0.016,-0.0132 0.0314,-0.0295 0.0154,-0.0163 0.0295,-0.0281 0.0314,-0.0264 0.004,0.004 -0.0221,0.10402 -0.033,0.12392 -0.005,0.008 -0.007,0.0159 -0.006,0.0168 0.001,9.9e-4 0.0125,-4.6e-4 0.0255,-0.003 0.013,-0.003 0.0251,-0.004 0.027,-0.002 0.002,0.002 -0.0215,0.0256 -0.0519,0.0528 l -0.0552,0.0495 -0.009,0.13098 c -0.005,0.072 -0.0109,0.19916 -0.0135,0.2825 -0.004,0.12408 -0.007,0.1585 -0.0155,0.19005 -0.006,0.0212 -0.0402,0.10786 -0.0761,0.19261 -0.0848,0.1999 -0.0845,0.19836 -0.0794,0.30818 0.002,0.048 0.004,0.1035 0.004,0.12328 3.6e-4,0.0577 -0.0173,0.0921 -0.12235,0.23798 -0.065,0.0903 -0.0795,0.1235 -0.0797,0.1831 l -1.5e-4,0.0461 -0.0454,0.0414 c -0.0493,0.0449 -0.0615,0.0678 -0.0447,0.0837 0.008,0.007 0.0121,0.007 0.0338,0.002 0.0138,-0.004 0.0378,-0.0121 0.0534,-0.019 0.0347,-0.0156 0.0433,-0.0158 0.0538,-0.002 0.01,0.0132 0.005,0.0252 -0.0191,0.0464 -0.009,0.008 -0.0156,0.0157 -0.0156,0.018 -1e-5,0.002 0.0167,0.003 0.0371,0.002 0.048,-0.002 0.0767,0.008 0.0767,0.0272 0,0.0156 -0.0101,0.0202 -0.0567,0.0256 l -0.0323,0.004 0.0287,0.0129 c 0.0321,0.0145 0.0433,0.03 0.0338,0.0469 -0.011,0.0195 -0.037,0.0191 -0.10049,-0.002 -0.0605,-0.0198 -0.0843,-0.0208 -0.0843,-0.003 0,0.005 0.007,0.0158 0.016,0.0238 0.024,0.0218 0.0343,0.0453 0.0268,0.0609 -0.009,0.0178 -0.0276,0.0261 -0.0515,0.0224 -0.0248,-0.004 -0.0385,-0.0158 -0.0755,-0.0657 -0.045,-0.0608 -0.0757,-0.0672 -0.20595,-0.0426 -0.0622,0.0117 -0.0772,0.0128 -0.12741,0.009 -0.0894,-0.006 -0.10455,-0.005 -0.13099,0.009 -0.0625,0.0347 -0.12084,0.16495 -0.14773,0.33002 -0.005,0.0283 -0.016,0.12302 -0.0253,0.2106 -0.0137,0.12936 -0.0164,0.17319 -0.0141,0.2337 0.004,0.11617 0.0186,0.15531 0.0999,0.27737 0.0618,0.0928 0.14151,0.23542 0.15896,0.28459 0.0481,0.13562 0.0656,0.31325 0.04,0.40641 -0.0244,0.0887 -0.11149,0.20127 -0.22352,0.28889 -0.0187,0.0147 -0.0968,0.0669 -0.17349,0.11618 -0.0946,0.0607 -0.167,0.11197 -0.22508,0.15926 -0.0471,0.0383 -0.0902,0.0721 -0.0959,0.0749 -0.0148,0.007 -0.0492,0.006 -0.0664,-0.003 z"
       id="path4775-0-0"
       inkscape:connector-curvature="0"
       inkscape:export-xdpi="600"
       inkscape:export-ydpi="600" />
  </g>
</svg>
