<?xml version="1.0" encoding="UTF-8" standalone="no"?>
<!-- Created with Inkscape (http://www.inkscape.org/) -->

<svg
   xmlns:dc="http://purl.org/dc/elements/1.1/"
   xmlns:cc="http://creativecommons.org/ns#"
   xmlns:rdf="http://www.w3.org/1999/02/22-rdf-syntax-ns#"
   xmlns:svg="http://www.w3.org/2000/svg"
   xmlns="http://www.w3.org/2000/svg"
   xmlns:sodipodi="http://sodipodi.sourceforge.net/DTD/sodipodi-0.dtd"
   xmlns:inkscape="http://www.inkscape.org/namespaces/inkscape"
   width="210mm"
   height="297mm"
   viewBox="0 0 744.09448819 1052.3622047"
   id="svg3556"
   version="1.1"
   inkscape:version="0.91 r13725"
   sodipodi:docname="3_latency_to_choice_expression.svg"
   inkscape:export-filename="C:\Users\anasofiaccruz\Desktop\ego_allo_dnmp\figs\3_latency_to_choice_expression.png"
   inkscape:export-xdpi="299"
   inkscape:export-ydpi="299">
  <defs
     id="defs3558" />
  <sodipodi:namedview
     id="base"
     pagecolor="#ffffff"
     bordercolor="#666666"
     borderopacity="1.0"
     inkscape:pageopacity="0.0"
     inkscape:pageshadow="2"
     inkscape:zoom="2.8284271"
     inkscape:cx="389.27926"
     inkscape:cy="613.89674"
     inkscape:document-units="px"
     inkscape:current-layer="layer1"
     showgrid="false"
     inkscape:snap-text-baseline="false"
     inkscape:window-width="1536"
     inkscape:window-height="801"
     inkscape:window-x="-8"
     inkscape:window-y="-8"
     inkscape:window-maximized="1" />
  <metadata
     id="metadata3561">
    <rdf:RDF>
      <cc:Work
         rdf:about="">
        <dc:format>image/svg+xml</dc:format>
        <dc:type
           rdf:resource="http://purl.org/dc/dcmitype/StillImage" />
        <dc:title></dc:title>
      </cc:Work>
    </rdf:RDF>
  </metadata>
  <g
     inkscape:label="Camada 1"
     inkscape:groupmode="layer"
     id="layer1">
    <path
       inkscape:connector-curvature="0"
       id="path4211"
       d="m 360.82302,461.43769 0,-3.12881 84.9331,-0.2201 0.0282,6.25763 -84.93388,0.2201 -0.0277,-3.12882 z"
       style="fill:#dddddd;fill-opacity:1;fill-rule:evenodd;stroke:none"
       inkscape:export-xdpi="299"
       inkscape:export-ydpi="299" />
    <path
       inkscape:connector-curvature="0"
       id="path4213"
       d="m 404.46304,499.25183 -3.86626,0 0,-75.16402 7.70599,0 0,75.16402 -3.83973,0 z"
       style="fill:#dddddd;fill-opacity:1;fill-rule:evenodd;stroke:none"
       inkscape:export-xdpi="299"
       inkscape:export-ydpi="299" />
    <path
       inkscape:connector-curvature="0"
       id="path4271"
       d="m 408.32817,457.56155 0,0.56222 -7.7875,-0.0487 0,-1.12445 7.7875,0.049 0,0.56216 z"
       style="fill:#000000;fill-opacity:1;fill-rule:evenodd;stroke:none"
       inkscape:export-xdpi="299"
       inkscape:export-ydpi="299" />
    <path
       style="fill:#000000"
       d="m 401.945,498.5807 c -0.0523,-0.0245 -0.0716,-0.0546 -0.0719,-0.11482 -2.2e-4,-0.0453 0.0111,-0.0583 0.22132,-0.23038 0.32016,-0.26341 0.50858,-0.38496 0.99951,-0.64479 0.32459,-0.17187 0.55,-0.33147 0.61888,-0.43838 0.034,-0.0529 0.0365,-0.20835 0.008,-0.48872 -0.0382,-0.37279 -0.0949,-0.54711 -0.27974,-0.86139 -0.0932,-0.15864 -0.13168,-0.20859 -0.24068,-0.31437 -0.15409,-0.14959 -0.18535,-0.19243 -0.24372,-0.33323 -0.0739,-0.17872 -0.086,-0.25724 -0.0849,-0.55333 10e-4,-0.36958 0.0324,-0.55134 0.19558,-1.14787 0.19006,-0.69462 0.2133,-0.9945 0.1007,-1.29767 -0.0609,-0.16354 -0.18978,-0.37543 -0.27111,-0.44518 -0.0631,-0.0543 -0.0802,-0.0619 -0.15271,-0.0688 -0.20084,-0.0196 -0.36492,-0.21275 -0.52487,-0.61957 -0.11647,-0.29589 -0.12754,-0.40881 -0.0526,-0.53386 0.039,-0.0654 0.13639,-0.1442 0.20942,-0.16991 0.0335,-0.0122 0.13473,-0.0196 0.31264,-0.022 0.25783,-0.005 0.26447,-0.005 0.31548,-0.0382 0.13999,-0.0894 0.27194,-0.28632 0.33848,-0.50443 0.0282,-0.0925 0.0645,-0.17676 0.0946,-0.21936 0.0656,-0.093 0.26751,-0.26108 0.38155,-0.31778 0.0744,-0.037 0.10042,-0.0588 0.1314,-0.11017 0.0479,-0.0793 0.10651,-0.30216 0.13666,-0.52062 0.0329,-0.23846 0.0573,-0.31425 0.14026,-0.43605 0.17401,-0.25533 0.1967,-0.31575 0.12864,-0.3418 -0.0479,-0.0171 -0.0852,0.007 -0.13832,0.0967 -0.0526,0.0879 -0.0761,0.10699 -0.13307,0.10699 -0.0711,0 -0.0963,-0.0365 -0.0954,-0.13808 6.9e-4,-0.0884 0.0249,-0.16354 0.0675,-0.20222 0.029,-0.0269 0.0302,-0.0441 0.0138,-0.2081 l -0.0111,-0.11433 0.0559,-0.0519 c 0.0382,-0.0355 0.0584,-0.0678 0.0639,-0.10233 0.0111,-0.0705 -0.0479,-0.27658 -0.0965,-0.33639 -0.0935,-0.11531 -0.093,-0.15204 0.006,-0.24311 l 0.0559,-0.0519 -0.0249,-0.0796 c -0.0138,-0.0438 -0.0249,-0.0916 -0.0249,-0.10601 0,-0.0147 -0.003,-0.0262 -0.006,-0.0262 -0.003,0 -0.0595,0.0147 -0.12366,0.0311 -0.12476,0.0333 -0.17677,0.0636 -0.39222,0.2294 -0.11204,0.0862 -0.11923,0.0899 -0.14247,0.0686 -0.0221,-0.022 -0.0138,-0.0299 0.14081,-0.14763 0.0907,-0.0688 0.19697,-0.14077 0.23598,-0.16012 0.0598,-0.0296 0.0636,-0.0338 0.0249,-0.0267 -0.0545,0.01 -0.1303,0.0401 -0.33999,0.13514 -0.15299,0.0693 -0.16045,0.0713 -0.17014,0.0458 -0.006,-0.0147 -0.008,-0.0286 -0.006,-0.0308 0.0166,-0.0147 0.38619,-0.17701 0.43076,-0.19048 0.12145,-0.0365 -0.0138,-0.0147 -0.1989,0.0328 -0.10928,0.0277 -0.20389,0.0504 -0.20998,0.0504 -0.006,0 -0.008,-0.0122 -0.006,-0.0272 0.003,-0.022 0.034,-0.035 0.19227,-0.0769 0.20859,-0.0551 0.32693,-0.0627 0.48371,-0.0303 0.0476,0.01 0.0863,0.0122 0.0863,0.005 0,-0.007 0.0221,-0.0281 0.0484,-0.0487 0.0465,-0.0357 0.0476,-0.0384 0.0277,-0.0779 -0.0111,-0.022 -0.0249,-0.0708 -0.0277,-0.10723 -0.006,-0.0634 -0.003,-0.0683 0.0495,-0.10944 0.0678,-0.0522 0.12477,-0.0646 0.18203,-0.0404 0.0249,0.01 0.11011,0.022 0.19974,0.025 0.0866,0.005 0.17456,0.0122 0.19587,0.0196 0.0371,0.0122 0.0404,0.007 0.10152,-0.0982 0.0349,-0.0607 0.0866,-0.13025 0.11481,-0.15473 0.0587,-0.0507 0.18646,-0.10699 0.26779,-0.11801 0.0479,-0.007 0.055,-0.005 0.055,0.0171 0,0.0196 -0.0194,0.0313 -0.0863,0.0517 -0.11564,0.0353 -0.18092,0.0779 -0.23957,0.15595 -0.0623,0.0825 -0.0623,0.10062 -1.7e-4,0.0512 0.0703,-0.0558 0.13334,-0.0791 0.28749,-0.10576 0.17926,-0.0311 0.19199,-0.0306 0.1859,0.005 -0.003,0.0245 -0.0166,0.0296 -0.0902,0.0372 -0.11785,0.0122 -0.244,0.0446 -0.28517,0.0729 -0.0343,0.0245 -0.034,0.0245 0.0318,0.01 0.049,-0.01 0.10568,-0.01 0.21633,8.8e-4 0.0827,0.007 0.15243,0.0171 0.15548,0.0196 0.003,0.002 8.3e-4,0.0147 -0.006,0.0257 -0.008,0.0196 -0.0249,0.0196 -0.11646,0.0122 -0.17014,-0.0147 -0.23875,-0.01 -0.33759,0.0277 -0.0503,0.0196 -0.0979,0.0411 -0.10623,0.0494 -0.0194,0.0196 0.13998,0.15889 0.20803,0.18264 0.0404,0.0147 0.0625,0.0147 0.14082,-0.002 0.12836,-0.0262 0.16985,-0.0122 0.22435,0.0781 0.0329,0.0541 0.0407,0.083 0.0382,0.13857 -0.003,0.0805 0.0166,0.11164 0.1303,0.19953 0.10208,0.0791 0.21661,0.11948 0.31075,0.11017 0.0954,-0.01 0.15188,0.01 0.26337,0.0903 0.047,0.034 0.14302,0.0926 0.21301,0.13049 0.21385,0.11507 0.30047,0.21422 0.24705,0.28273 -0.0343,0.0438 -0.0888,0.0487 -0.21164,0.0171 -0.19171,-0.0472 -0.23985,-0.0326 -0.23487,0.0722 0.002,0.0419 0.0249,0.0938 0.0802,0.1868 0.0426,0.071 0.0827,0.12877 0.0888,0.12877 0.006,0 0.0221,-0.022 0.0382,-0.0502 0.0296,-0.0551 0.0437,-0.0615 0.0653,-0.0289 0.0166,0.0245 0.0321,-10e-4 0.091,-0.15007 0.0481,-0.12168 0.0631,-0.12241 0.0844,-0.005 0.006,0.0321 0.0138,0.0583 0.0194,0.0583 0.006,10e-5 0.0443,-0.0323 0.0869,-0.0722 0.0426,-0.0399 0.0816,-0.0688 0.0869,-0.0646 0.0111,0.01 -0.0611,0.25467 -0.0913,0.30339 -0.0138,0.0196 -0.0194,0.0389 -0.0166,0.0411 0.003,0.002 0.0346,-0.001 0.0705,-0.007 0.036,-0.007 0.0694,-0.01 0.0747,-0.005 0.006,0.005 -0.0595,0.0627 -0.14357,0.12926 l -0.15271,0.12119 -0.0249,0.32067 c -0.0138,0.17627 -0.0302,0.48759 -0.0374,0.69163 -0.0111,0.30377 -0.0194,0.38804 -0.0429,0.46528 -0.0166,0.0519 -0.11121,0.26407 -0.21052,0.47156 -0.2346,0.4894 -0.23377,0.48563 -0.21966,0.75449 0.006,0.11752 0.0111,0.25339 0.0111,0.30182 9.9e-4,0.14126 -0.0479,0.22548 -0.33847,0.58263 -0.17982,0.22108 -0.21994,0.30236 -0.22049,0.44827 l -4.1e-4,0.11287 -0.1256,0.10135 c -0.13639,0.10993 -0.17014,0.16599 -0.12366,0.20492 0.0221,0.0171 0.0335,0.0171 0.0935,0.005 0.0382,-0.01 0.10457,-0.0296 0.14772,-0.0465 0.096,-0.0382 0.11979,-0.0387 0.14884,-0.005 0.0277,0.0323 0.0138,0.0617 -0.0528,0.1136 -0.0249,0.0196 -0.0432,0.0384 -0.0432,0.0441 -3e-5,0.005 0.0462,0.007 0.10264,0.005 0.13279,-0.005 0.21218,0.0196 0.21218,0.0666 0,0.0382 -0.0279,0.0495 -0.15685,0.0627 l -0.0894,0.01 0.0794,0.0316 c 0.0888,0.0355 0.11978,0.0734 0.0935,0.11482 -0.0304,0.0477 -0.10236,0.0468 -0.278,-0.005 -0.16737,-0.0485 -0.23321,-0.0509 -0.23321,-0.007 0,0.0122 0.0194,0.0387 0.0443,0.0583 0.0664,0.0534 0.0949,0.1109 0.0741,0.14909 -0.0249,0.0436 -0.0764,0.0639 -0.14248,0.0548 -0.0686,-0.01 -0.1065,-0.0387 -0.20886,-0.16084 -0.12449,-0.14886 -0.20942,-0.16453 -0.56975,-0.1043 -0.17207,0.0286 -0.21357,0.0313 -0.35247,0.022 -0.24732,-0.0147 -0.28923,-0.0122 -0.36238,0.022 -0.1729,0.0849 -0.33429,0.40383 -0.40868,0.80796 -0.0138,0.0693 -0.0443,0.30119 -0.07,0.5156 -0.0379,0.31671 -0.0454,0.42401 -0.039,0.57215 0.0111,0.28441 0.0515,0.38024 0.27637,0.67907 0.17096,0.2272 0.39147,0.57636 0.43975,0.69674 0.13306,0.33203 0.18148,0.76691 0.11066,0.99499 -0.0675,0.21716 -0.30843,0.49275 -0.61836,0.70727 -0.0517,0.036 -0.26779,0.16378 -0.47995,0.28443 -0.2617,0.14861 -0.46199,0.27413 -0.62267,0.38991 -0.1303,0.0938 -0.24953,0.17652 -0.2653,0.18337 -0.0409,0.0171 -0.13611,0.0147 -0.18369,-0.007 z"
       id="path4775-5"
       inkscape:connector-curvature="0"
       inkscape:export-xdpi="299"
       inkscape:export-ydpi="299" />
    <rect
       style="opacity:0.49000005;fill:#0b5e21;fill-opacity:0.54509807;fill-rule:nonzero;stroke:none;stroke-width:0.6448819;stroke-miterlimit:4;stroke-dasharray:none;stroke-dashoffset:0;stroke-opacity:1"
       id="rect3626"
       width="7.7373786"
       height="27.486883"
       x="400.5177"
       y="457.84766"
       inkscape:export-xdpi="299"
       inkscape:export-ydpi="299" />
    <path
       style="opacity:1;fill:none;fill-rule:evenodd;stroke:#000000;stroke-width:0.807;stroke-linecap:butt;stroke-linejoin:miter;stroke-miterlimit:4;stroke-dasharray:0.807,0.807;stroke-dashoffset:0;stroke-opacity:0.97791796"
       d="M 405.22744,461.13076 422.2712,445.76314"
       id="path4434"
       inkscape:connector-curvature="0"
       inkscape:export-xdpi="299"
       inkscape:export-ydpi="299" />
    <text
       xml:space="preserve"
       style="font-style:normal;font-weight:normal;font-size:40px;line-height:125%;font-family:sans-serif;text-align:center;letter-spacing:0px;word-spacing:0px;text-anchor:middle;fill:#000000;fill-opacity:1;stroke:none;stroke-width:1px;stroke-linecap:butt;stroke-linejoin:miter;stroke-opacity:1"
       x="424.15625"
       y="446.29971"
       id="text4436"
       sodipodi:linespacing="125%"
       inkscape:export-xdpi="299"
       inkscape:export-ydpi="299"><tspan
         sodipodi:role="line"
         id="tspan4438"
         x="424.15625"
         y="446.29971"
         style="font-style:normal;font-variant:normal;font-weight:bold;font-stretch:normal;font-size:7.5px;line-height:125%;font-family:Arial;-inkscape-font-specification:'Arial, Bold';text-align:start;writing-mode:lr-tb;text-anchor:start">Choice point</tspan><tspan
         sodipodi:role="line"
         x="424.15625"
         y="455.67471"
         id="tspan4440"
         style="font-style:normal;font-variant:normal;font-weight:bold;font-stretch:normal;font-size:7.5px;line-height:125%;font-family:Arial;-inkscape-font-specification:'Arial, Bold';text-align:start;writing-mode:lr-tb;text-anchor:start">square</tspan></text>
    <rect
       style="opacity:1;fill:none;fill-opacity:1;fill-rule:nonzero;stroke:#000000;stroke-width:0.8;stroke-linecap:butt;stroke-miterlimit:4;stroke-dasharray:0.8,0.8;stroke-dashoffset:0;stroke-opacity:1"
       id="rect4442"
       width="7.1955681"
       height="5.7592573"
       x="400.80096"
       y="458.33026"
       inkscape:export-xdpi="299"
       inkscape:export-ydpi="299" />
    <path
       style="opacity:1;fill:#008000;fill-opacity:0.5457413;fill-rule:evenodd;stroke:#0b5f22;stroke-width:0.807;stroke-linecap:butt;stroke-linejoin:miter;stroke-miterlimit:4;stroke-dasharray:0.807,0.807;stroke-dashoffset:0;stroke-opacity:0.5457413"
       d="m 406.15379,472.82381 17.06742,-0.0483"
       id="path4434-0"
       inkscape:connector-curvature="0"
       inkscape:export-xdpi="299"
       inkscape:export-ydpi="299" />
    <text
       xml:space="preserve"
       style="font-style:normal;font-weight:normal;font-size:40px;line-height:125%;font-family:sans-serif;text-align:center;letter-spacing:0px;word-spacing:0px;text-anchor:middle;fill:#0b5f21;fill-opacity:0.54509804;stroke:none;stroke-width:1px;stroke-linecap:butt;stroke-linejoin:miter;stroke-opacity:1"
       x="424.38934"
       y="475.05872"
       id="text4436-3"
       sodipodi:linespacing="125%"
       inkscape:export-xdpi="299"
       inkscape:export-ydpi="299"><tspan
         sodipodi:role="line"
         x="424.38934"
         y="475.05872"
         id="tspan4440-2"
         style="font-style:normal;font-variant:normal;font-weight:bold;font-stretch:normal;font-size:7.5px;line-height:125%;font-family:Arial;-inkscape-font-specification:'Arial, Bold';text-align:start;writing-mode:lr-tb;text-anchor:start;fill:#0b5f21;fill-opacity:0.54509804;stroke:none;stroke-opacity:0.5457413">Latency to</tspan><tspan
         sodipodi:role="line"
         x="424.38934"
         y="484.43372"
         style="font-style:normal;font-variant:normal;font-weight:bold;font-stretch:normal;font-size:7.5px;line-height:125%;font-family:Arial;-inkscape-font-specification:'Arial, Bold';text-align:start;writing-mode:lr-tb;text-anchor:start;fill:#0b5f21;fill-opacity:0.54509804;stroke:none;stroke-opacity:0.5457413"
         id="tspan4482">choice expression</tspan></text>
  </g>
</svg>
