<?xml version="1.0" encoding="UTF-8" standalone="no"?>
<!-- Created with matplotlib (https://matplotlib.org/) -->

<svg
   xmlns:dc="http://purl.org/dc/elements/1.1/"
   xmlns:cc="http://creativecommons.org/ns#"
   xmlns:rdf="http://www.w3.org/1999/02/22-rdf-syntax-ns#"
   xmlns:svg="http://www.w3.org/2000/svg"
   xmlns="http://www.w3.org/2000/svg"
   xmlns:xlink="http://www.w3.org/1999/xlink"
   xmlns:sodipodi="http://sodipodi.sourceforge.net/DTD/sodipodi-0.dtd"
   xmlns:inkscape="http://www.inkscape.org/namespaces/inkscape"
   height="216pt"
   version="1.1"
   viewBox="0 0 288 216"
   width="288pt"
   id="svg2"
   inkscape:version="0.91 r13725"
   sodipodi:docname="catch_session_performances_split_by_action_vs_location.svg">
  <sodipodi:namedview
     pagecolor="#ffffff"
     bordercolor="#666666"
     borderopacity="1"
     objecttolerance="10"
     gridtolerance="10"
     guidetolerance="10"
     inkscape:pageopacity="0"
     inkscape:pageshadow="2"
     inkscape:window-width="1536"
     inkscape:window-height="801"
     id="namedview216"
     showgrid="false"
     inkscape:zoom="1.2361274"
     inkscape:cx="130.49079"
     inkscape:cy="87.123902"
     inkscape:window-x="-8"
     inkscape:window-y="-8"
     inkscape:window-maximized="1"
     inkscape:current-layer="svg2" />
  <metadata
     id="metadata4">
    <rdf:RDF>
      <cc:Work>
        <dc:type
           rdf:resource="http://purl.org/dc/dcmitype/StillImage" />
        <dc:date>2021-09-02T15:13:14.815098</dc:date>
        <dc:format>image/svg+xml</dc:format>
        <dc:creator>
          <cc:Agent>
            <dc:title>Matplotlib v3.3.4, https://matplotlib.org/</dc:title>
          </cc:Agent>
        </dc:creator>
      </cc:Work>
    </rdf:RDF>
  </metadata>
  <defs
     id="defs6">
    <style
       type="text/css"
       id="style8">*{stroke-linecap:butt;stroke-linejoin:round;}</style>
  </defs>
  <g
     id="figure_1"
     inkscape:export-xdpi="400"
     inkscape:export-ydpi="400">
    <g
       id="patch_1">
      <path
         d="M 0 216  L 288 216  L 288 0  L 0 0  z "
         style="fill:#ffffff;"
         id="path12" />
    </g>
    <g
       id="axes_1">
      <g
         id="patch_2">
        <path
           d="M 36 189  L 259.2 189  L 259.2 25.92  L 36 25.92  z "
           style="fill:#ffffff;"
           id="path16" />
      </g>
      <g
         id="matplotlib.axis_1">
        <g
           id="xtick_1">
          <g
             id="text_1">
            <!-- action -->
            <g
               style="fill:#262626;"
               transform="translate(69.78668 213.310391)scale(0.165 -0.165)"
               id="g21">
              <defs
                 id="defs23">
                <path
                   d="M 40.4375 6.390625  Q 35.546875 2.25 31.03125 0.53125  Q 26.515625 -1.171875 21.34375 -1.171875  Q 12.796875 -1.171875 8.203125 3  Q 3.609375 7.171875 3.609375 13.671875  Q 3.609375 17.484375 5.34375 20.625  Q 7.078125 23.78125 9.890625 25.6875  Q 12.703125 27.59375 16.21875 28.5625  Q 18.796875 29.25 24.03125 29.890625  Q 34.671875 31.15625 39.703125 32.90625  Q 39.75 34.71875 39.75 35.203125  Q 39.75 40.578125 37.25 42.78125  Q 33.890625 45.75 27.25 45.75  Q 21.046875 45.75 18.09375 43.578125  Q 15.140625 41.40625 13.71875 35.890625  L 5.125 37.0625  Q 6.296875 42.578125 8.984375 45.96875  Q 11.671875 49.359375 16.75 51.1875  Q 21.828125 53.03125 28.515625 53.03125  Q 35.15625 53.03125 39.296875 51.46875  Q 43.453125 49.90625 45.40625 47.53125  Q 47.359375 45.171875 48.140625 41.546875  Q 48.578125 39.3125 48.578125 33.453125  L 48.578125 21.734375  Q 48.578125 9.46875 49.140625 6.21875  Q 49.703125 2.984375 51.375 0  L 42.1875 0  Q 40.828125 2.734375 40.4375 6.390625  z M 39.703125 26.03125  Q 34.90625 24.078125 25.34375 22.703125  Q 19.921875 21.921875 17.671875 20.9375  Q 15.4375 19.96875 14.203125 18.09375  Q 12.984375 16.21875 12.984375 13.921875  Q 12.984375 10.40625 15.640625 8.0625  Q 18.3125 5.71875 23.4375 5.71875  Q 28.515625 5.71875 32.46875 7.9375  Q 36.421875 10.15625 38.28125 14.015625  Q 39.703125 17 39.703125 22.796875  z "
                   id="ArialMT-97" />
                <path
                   d="M 40.4375 19  L 49.078125 17.875  Q 47.65625 8.9375 41.8125 3.875  Q 35.984375 -1.171875 27.484375 -1.171875  Q 16.84375 -1.171875 10.375 5.78125  Q 3.90625 12.75 3.90625 25.734375  Q 3.90625 34.125 6.6875 40.421875  Q 9.46875 46.734375 15.15625 49.875  Q 20.84375 53.03125 27.546875 53.03125  Q 35.984375 53.03125 41.359375 48.75  Q 46.734375 44.484375 48.25 36.625  L 39.703125 35.296875  Q 38.484375 40.53125 35.375 43.15625  Q 32.28125 45.796875 27.875 45.796875  Q 21.234375 45.796875 17.078125 41.03125  Q 12.9375 36.28125 12.9375 25.984375  Q 12.9375 15.53125 16.9375 10.796875  Q 20.953125 6.0625 27.390625 6.0625  Q 32.5625 6.0625 36.03125 9.234375  Q 39.5 12.40625 40.4375 19  z "
                   id="ArialMT-99" />
                <path
                   d="M 25.78125 7.859375  L 27.046875 0.09375  Q 23.34375 -0.6875 20.40625 -0.6875  Q 15.625 -0.6875 12.984375 0.828125  Q 10.359375 2.34375 9.28125 4.8125  Q 8.203125 7.28125 8.203125 15.1875  L 8.203125 45.015625  L 1.765625 45.015625  L 1.765625 51.859375  L 8.203125 51.859375  L 8.203125 64.703125  L 16.9375 69.96875  L 16.9375 51.859375  L 25.78125 51.859375  L 25.78125 45.015625  L 16.9375 45.015625  L 16.9375 14.703125  Q 16.9375 10.9375 17.40625 9.859375  Q 17.875 8.796875 18.921875 8.15625  Q 19.96875 7.515625 21.921875 7.515625  Q 23.390625 7.515625 25.78125 7.859375  z "
                   id="ArialMT-116" />
                <path
                   d="M 6.640625 61.46875  L 6.640625 71.578125  L 15.4375 71.578125  L 15.4375 61.46875  z M 6.640625 0  L 6.640625 51.859375  L 15.4375 51.859375  L 15.4375 0  z "
                   id="ArialMT-105" />
                <path
                   d="M 3.328125 25.921875  Q 3.328125 40.328125 11.328125 47.265625  Q 18.015625 53.03125 27.640625 53.03125  Q 38.328125 53.03125 45.109375 46.015625  Q 51.90625 39.015625 51.90625 26.65625  Q 51.90625 16.65625 48.90625 10.90625  Q 45.90625 5.171875 40.15625 2  Q 34.421875 -1.171875 27.640625 -1.171875  Q 16.75 -1.171875 10.03125 5.8125  Q 3.328125 12.796875 3.328125 25.921875  z M 12.359375 25.921875  Q 12.359375 15.96875 16.703125 11.015625  Q 21.046875 6.0625 27.640625 6.0625  Q 34.1875 6.0625 38.53125 11.03125  Q 42.875 16.015625 42.875 26.21875  Q 42.875 35.84375 38.5 40.796875  Q 34.125 45.75 27.640625 45.75  Q 21.046875 45.75 16.703125 40.8125  Q 12.359375 35.890625 12.359375 25.921875  z "
                   id="ArialMT-111" />
                <path
                   d="M 6.59375 0  L 6.59375 51.859375  L 14.5 51.859375  L 14.5 44.484375  Q 20.21875 53.03125 31 53.03125  Q 35.6875 53.03125 39.625 51.34375  Q 43.5625 49.65625 45.515625 46.921875  Q 47.46875 44.1875 48.25 40.4375  Q 48.734375 37.984375 48.734375 31.890625  L 48.734375 0  L 39.9375 0  L 39.9375 31.546875  Q 39.9375 36.921875 38.90625 39.578125  Q 37.890625 42.234375 35.28125 43.8125  Q 32.671875 45.40625 29.15625 45.40625  Q 23.53125 45.40625 19.453125 41.84375  Q 15.375 38.28125 15.375 28.328125  L 15.375 0  z "
                   id="ArialMT-110" />
              </defs>
              <use
                 xlink:href="#ArialMT-97"
                 id="use31" />
              <use
                 x="55.615234"
                 xlink:href="#ArialMT-99"
                 id="use33" />
              <use
                 x="105.615234"
                 xlink:href="#ArialMT-116"
                 id="use35" />
              <use
                 x="133.398438"
                 xlink:href="#ArialMT-105"
                 id="use37" />
              <use
                 x="155.615234"
                 xlink:href="#ArialMT-111"
                 id="use39" />
              <use
                 x="211.230469"
                 xlink:href="#ArialMT-110"
                 id="use41" />
            </g>
          </g>
        </g>
        <g
           id="xtick_2">
          <g
             id="text_2">
            <!-- location -->
            <g
               style="fill:#262626;"
               transform="translate(174.965859 213.310391)scale(0.165 -0.165)"
               id="g45">
              <defs
                 id="defs47">
                <path
                   d="M 6.390625 0  L 6.390625 71.578125  L 15.1875 71.578125  L 15.1875 0  z "
                   id="ArialMT-108" />
              </defs>
              <use
                 xlink:href="#ArialMT-108"
                 id="use50" />
              <use
                 x="22.216797"
                 xlink:href="#ArialMT-111"
                 id="use52" />
              <use
                 x="77.832031"
                 xlink:href="#ArialMT-99"
                 id="use54" />
              <use
                 x="127.832031"
                 xlink:href="#ArialMT-97"
                 id="use56" />
              <use
                 x="183.447266"
                 xlink:href="#ArialMT-116"
                 id="use58" />
              <use
                 x="211.230469"
                 xlink:href="#ArialMT-105"
                 id="use60" />
              <use
                 x="233.447266"
                 xlink:href="#ArialMT-111"
                 id="use62" />
              <use
                 x="289.0625"
                 xlink:href="#ArialMT-110"
                 id="use64" />
            </g>
          </g>
        </g>
        <g
           id="text_3">
          <!-- Non match -->
          <g
             style="fill:#262626;"
             transform="translate(104.083594 233.473828)scale(0.18 -0.18)"
             id="g67">
            <defs
               id="defs69">
              <path
                 d="M 7.625 0  L 7.625 71.578125  L 17.328125 71.578125  L 54.9375 15.375  L 54.9375 71.578125  L 64.015625 71.578125  L 64.015625 0  L 54.296875 0  L 16.703125 56.25  L 16.703125 0  z "
                 id="ArialMT-78" />
              <path
                 id="ArialMT-32" />
              <path
                 d="M 6.59375 0  L 6.59375 51.859375  L 14.453125 51.859375  L 14.453125 44.578125  Q 16.890625 48.390625 20.9375 50.703125  Q 25 53.03125 30.171875 53.03125  Q 35.9375 53.03125 39.625 50.640625  Q 43.3125 48.25 44.828125 43.953125  Q 50.984375 53.03125 60.84375 53.03125  Q 68.5625 53.03125 72.703125 48.75  Q 76.859375 44.484375 76.859375 35.59375  L 76.859375 0  L 68.109375 0  L 68.109375 32.671875  Q 68.109375 37.9375 67.25 40.25  Q 66.40625 42.578125 64.15625 43.984375  Q 61.921875 45.40625 58.890625 45.40625  Q 53.421875 45.40625 49.796875 41.765625  Q 46.1875 38.140625 46.1875 30.125  L 46.1875 0  L 37.40625 0  L 37.40625 33.6875  Q 37.40625 39.546875 35.25 42.46875  Q 33.109375 45.40625 28.21875 45.40625  Q 24.515625 45.40625 21.359375 43.453125  Q 18.21875 41.5 16.796875 37.734375  Q 15.375 33.984375 15.375 26.90625  L 15.375 0  z "
                 id="ArialMT-109" />
              <path
                 d="M 6.59375 0  L 6.59375 71.578125  L 15.375 71.578125  L 15.375 45.90625  Q 21.53125 53.03125 30.90625 53.03125  Q 36.671875 53.03125 40.921875 50.75  Q 45.171875 48.484375 47 44.484375  Q 48.828125 40.484375 48.828125 32.859375  L 48.828125 0  L 40.046875 0  L 40.046875 32.859375  Q 40.046875 39.453125 37.1875 42.453125  Q 34.328125 45.453125 29.109375 45.453125  Q 25.203125 45.453125 21.75 43.421875  Q 18.3125 41.40625 16.84375 37.9375  Q 15.375 34.46875 15.375 28.375  L 15.375 0  z "
                 id="ArialMT-104" />
            </defs>
            <use
               xlink:href="#ArialMT-78"
               id="use75" />
            <use
               x="72.216797"
               xlink:href="#ArialMT-111"
               id="use77" />
            <use
               x="127.832031"
               xlink:href="#ArialMT-110"
               id="use79" />
            <use
               x="183.447266"
               xlink:href="#ArialMT-32"
               id="use81" />
            <use
               x="211.230469"
               xlink:href="#ArialMT-109"
               id="use83" />
            <use
               x="294.53125"
               xlink:href="#ArialMT-97"
               id="use85" />
            <use
               x="350.146484"
               xlink:href="#ArialMT-116"
               id="use87" />
            <use
               x="377.929688"
               xlink:href="#ArialMT-99"
               id="use89" />
            <use
               x="427.929688"
               xlink:href="#ArialMT-104"
               id="use91" />
          </g>
        </g>
      </g>
      <g
         id="matplotlib.axis_2">
        <g
           id="ytick_1">
          <g
             id="text_4">
            <!-- 70 -->
            <g
               style="fill:#262626;"
               transform="translate(5.148906 194.905195)scale(0.165 -0.165)"
               id="g96">
              <defs
                 id="defs98">
                <path
                   d="M 4.734375 62.203125  L 4.734375 70.65625  L 51.078125 70.65625  L 51.078125 63.8125  Q 44.234375 56.546875 37.515625 44.484375  Q 30.8125 32.421875 27.15625 19.671875  Q 24.515625 10.6875 23.78125 0  L 14.75 0  Q 14.890625 8.453125 18.0625 20.40625  Q 21.234375 32.375 27.171875 43.484375  Q 33.109375 54.59375 39.796875 62.203125  z "
                   id="ArialMT-55" />
                <path
                   d="M 4.15625 35.296875  Q 4.15625 48 6.765625 55.734375  Q 9.375 63.484375 14.515625 67.671875  Q 19.671875 71.875 27.484375 71.875  Q 33.25 71.875 37.59375 69.546875  Q 41.9375 67.234375 44.765625 62.859375  Q 47.609375 58.5 49.21875 52.21875  Q 50.828125 45.953125 50.828125 35.296875  Q 50.828125 22.703125 48.234375 14.96875  Q 45.65625 7.234375 40.5 3  Q 35.359375 -1.21875 27.484375 -1.21875  Q 17.140625 -1.21875 11.234375 6.203125  Q 4.15625 15.140625 4.15625 35.296875  z M 13.1875 35.296875  Q 13.1875 17.671875 17.3125 11.828125  Q 21.4375 6 27.484375 6  Q 33.546875 6 37.671875 11.859375  Q 41.796875 17.71875 41.796875 35.296875  Q 41.796875 52.984375 37.671875 58.78125  Q 33.546875 64.59375 27.390625 64.59375  Q 21.34375 64.59375 17.71875 59.46875  Q 13.1875 52.9375 13.1875 35.296875  z "
                   id="ArialMT-48" />
              </defs>
              <use
                 xlink:href="#ArialMT-55"
                 id="use102" />
              <use
                 x="55.615234"
                 xlink:href="#ArialMT-48"
                 id="use104" />
            </g>
          </g>
        </g>
        <g
           id="ytick_2">
          <g
             id="text_5">
            <!-- 80 -->
            <g
               style="fill:#262626;"
               transform="translate(5.148906 140.545195)scale(0.165 -0.165)"
               id="g108">
              <defs
                 id="defs110">
                <path
                   d="M 17.671875 38.8125  Q 12.203125 40.828125 9.5625 44.53125  Q 6.9375 48.25 6.9375 53.421875  Q 6.9375 61.234375 12.546875 66.546875  Q 18.171875 71.875 27.484375 71.875  Q 36.859375 71.875 42.578125 66.421875  Q 48.296875 60.984375 48.296875 53.171875  Q 48.296875 48.1875 45.671875 44.5  Q 43.0625 40.828125 37.75 38.8125  Q 44.34375 36.671875 47.78125 31.875  Q 51.21875 27.09375 51.21875 20.453125  Q 51.21875 11.28125 44.71875 5.03125  Q 38.234375 -1.21875 27.640625 -1.21875  Q 17.046875 -1.21875 10.546875 5.046875  Q 4.046875 11.328125 4.046875 20.703125  Q 4.046875 27.6875 7.59375 32.390625  Q 11.140625 37.109375 17.671875 38.8125  z M 15.921875 53.71875  Q 15.921875 48.640625 19.1875 45.40625  Q 22.46875 42.1875 27.6875 42.1875  Q 32.765625 42.1875 36.015625 45.375  Q 39.265625 48.578125 39.265625 53.21875  Q 39.265625 58.0625 35.90625 61.359375  Q 32.5625 64.65625 27.59375 64.65625  Q 22.5625 64.65625 19.234375 61.421875  Q 15.921875 58.203125 15.921875 53.71875  z M 13.09375 20.65625  Q 13.09375 16.890625 14.875 13.375  Q 16.65625 9.859375 20.171875 7.921875  Q 23.6875 6 27.734375 6  Q 34.03125 6 38.125 10.046875  Q 42.234375 14.109375 42.234375 20.359375  Q 42.234375 26.703125 38.015625 30.859375  Q 33.796875 35.015625 27.4375 35.015625  Q 21.234375 35.015625 17.15625 30.90625  Q 13.09375 26.8125 13.09375 20.65625  z "
                   id="ArialMT-56" />
              </defs>
              <use
                 xlink:href="#ArialMT-56"
                 id="use113" />
              <use
                 x="55.615234"
                 xlink:href="#ArialMT-48"
                 id="use115" />
            </g>
          </g>
        </g>
        <g
           id="ytick_3">
          <g
             id="text_6">
            <!-- 90 -->
            <g
               style="fill:#262626;"
               transform="translate(5.148906 86.185195)scale(0.165 -0.165)"
               id="g119">
              <defs
                 id="defs121">
                <path
                   d="M 5.46875 16.546875  L 13.921875 17.328125  Q 14.984375 11.375 18.015625 8.6875  Q 21.046875 6 25.78125 6  Q 29.828125 6 32.875 7.859375  Q 35.9375 9.71875 37.890625 12.8125  Q 39.84375 15.921875 41.15625 21.1875  Q 42.484375 26.46875 42.484375 31.9375  Q 42.484375 32.515625 42.4375 33.6875  Q 39.796875 29.5 35.234375 26.875  Q 30.671875 24.265625 25.34375 24.265625  Q 16.453125 24.265625 10.296875 30.703125  Q 4.15625 37.15625 4.15625 47.703125  Q 4.15625 58.59375 10.578125 65.234375  Q 17 71.875 26.65625 71.875  Q 33.640625 71.875 39.421875 68.109375  Q 45.21875 64.359375 48.21875 57.390625  Q 51.21875 50.4375 51.21875 37.25  Q 51.21875 23.53125 48.234375 15.40625  Q 45.265625 7.28125 39.375 3.03125  Q 33.5 -1.21875 25.59375 -1.21875  Q 17.1875 -1.21875 11.859375 3.4375  Q 6.546875 8.109375 5.46875 16.546875  z M 41.453125 48.140625  Q 41.453125 55.71875 37.421875 60.15625  Q 33.40625 64.59375 27.734375 64.59375  Q 21.875 64.59375 17.53125 59.8125  Q 13.1875 55.03125 13.1875 47.40625  Q 13.1875 40.578125 17.3125 36.296875  Q 21.4375 32.03125 27.484375 32.03125  Q 33.59375 32.03125 37.515625 36.296875  Q 41.453125 40.578125 41.453125 48.140625  z "
                   id="ArialMT-57" />
              </defs>
              <use
                 xlink:href="#ArialMT-57"
                 id="use124" />
              <use
                 x="55.615234"
                 xlink:href="#ArialMT-48"
                 id="use126" />
            </g>
          </g>
        </g>
        <g
           id="ytick_4">
          <g
             id="text_7">
            <!-- 100 -->
            <g
               style="fill:#262626;"
               transform="translate(-4.026641 31.825195)scale(0.165 -0.165)"
               id="g130">
              <defs
                 id="defs132">
                <path
                   d="M 37.25 0  L 28.46875 0  L 28.46875 56  Q 25.296875 52.984375 20.140625 49.953125  Q 14.984375 46.921875 10.890625 45.40625  L 10.890625 53.90625  Q 18.265625 57.375 23.78125 62.296875  Q 29.296875 67.234375 31.59375 71.875  L 37.25 71.875  z "
                   id="ArialMT-49" />
              </defs>
              <use
                 xlink:href="#ArialMT-49"
                 id="use135" />
              <use
                 x="55.615234"
                 xlink:href="#ArialMT-48"
                 id="use137" />
              <use
                 x="111.230469"
                 xlink:href="#ArialMT-48"
                 id="use139" />
            </g>
          </g>
        </g>
        <g
           id="text_8">
          <!-- Performance(%) -->
          <g
             style="fill:#262626;"
             transform="translate(-11.815078 172.974375)rotate(-90)scale(0.18 -0.18)"
             id="g142">
            <defs
               id="defs144">
              <path
                 d="M 7.71875 0  L 7.71875 71.578125  L 34.71875 71.578125  Q 41.84375 71.578125 45.609375 70.90625  Q 50.875 70.015625 54.4375 67.546875  Q 58.015625 65.09375 60.1875 60.640625  Q 62.359375 56.203125 62.359375 50.875  Q 62.359375 41.75 56.546875 35.421875  Q 50.734375 29.109375 35.546875 29.109375  L 17.1875 29.109375  L 17.1875 0  z M 17.1875 37.546875  L 35.6875 37.546875  Q 44.875 37.546875 48.734375 40.96875  Q 52.59375 44.390625 52.59375 50.59375  Q 52.59375 55.078125 50.3125 58.265625  Q 48.046875 61.46875 44.34375 62.5  Q 41.9375 63.140625 35.5 63.140625  L 17.1875 63.140625  z "
                 id="ArialMT-80" />
              <path
                 d="M 42.09375 16.703125  L 51.171875 15.578125  Q 49.03125 7.625 43.21875 3.21875  Q 37.40625 -1.171875 28.375 -1.171875  Q 17 -1.171875 10.328125 5.828125  Q 3.65625 12.84375 3.65625 25.484375  Q 3.65625 38.578125 10.390625 45.796875  Q 17.140625 53.03125 27.875 53.03125  Q 38.28125 53.03125 44.875 45.953125  Q 51.46875 38.875 51.46875 26.03125  Q 51.46875 25.25 51.421875 23.6875  L 12.75 23.6875  Q 13.234375 15.140625 17.578125 10.59375  Q 21.921875 6.0625 28.421875 6.0625  Q 33.25 6.0625 36.671875 8.59375  Q 40.09375 11.140625 42.09375 16.703125  z M 13.234375 30.90625  L 42.1875 30.90625  Q 41.609375 37.453125 38.875 40.71875  Q 34.671875 45.796875 27.984375 45.796875  Q 21.921875 45.796875 17.796875 41.75  Q 13.671875 37.703125 13.234375 30.90625  z "
                 id="ArialMT-101" />
              <path
                 d="M 6.5 0  L 6.5 51.859375  L 14.40625 51.859375  L 14.40625 44  Q 17.4375 49.515625 20 51.265625  Q 22.5625 53.03125 25.640625 53.03125  Q 30.078125 53.03125 34.671875 50.203125  L 31.640625 42.046875  Q 28.421875 43.953125 25.203125 43.953125  Q 22.3125 43.953125 20.015625 42.21875  Q 17.71875 40.484375 16.75 37.40625  Q 15.28125 32.71875 15.28125 27.15625  L 15.28125 0  z "
                 id="ArialMT-114" />
              <path
                 d="M 8.6875 0  L 8.6875 45.015625  L 0.921875 45.015625  L 0.921875 51.859375  L 8.6875 51.859375  L 8.6875 57.375  Q 8.6875 62.59375 9.625 65.140625  Q 10.890625 68.5625 14.078125 70.671875  Q 17.28125 72.796875 23.046875 72.796875  Q 26.765625 72.796875 31.25 71.921875  L 29.9375 64.265625  Q 27.203125 64.75 24.75 64.75  Q 20.75 64.75 19.09375 63.03125  Q 17.4375 61.328125 17.4375 56.640625  L 17.4375 51.859375  L 27.546875 51.859375  L 27.546875 45.015625  L 17.4375 45.015625  L 17.4375 0  z "
                 id="ArialMT-102" />
              <path
                 d="M 23.390625 -21.046875  Q 16.109375 -11.859375 11.078125 0.4375  Q 6.0625 12.75 6.0625 25.921875  Q 6.0625 37.546875 9.8125 48.1875  Q 14.203125 60.546875 23.390625 72.796875  L 29.6875 72.796875  Q 23.78125 62.640625 21.875 58.296875  Q 18.890625 51.5625 17.1875 44.234375  Q 15.09375 35.109375 15.09375 25.875  Q 15.09375 2.390625 29.6875 -21.046875  z "
                 id="ArialMT-40" />
              <path
                 d="M 5.8125 54.390625  Q 5.8125 62.0625 9.671875 67.421875  Q 13.53125 72.796875 20.84375 72.796875  Q 27.59375 72.796875 32 67.984375  Q 36.421875 63.1875 36.421875 53.859375  Q 36.421875 44.78125 31.953125 39.875  Q 27.484375 34.96875 20.953125 34.96875  Q 14.453125 34.96875 10.125 39.796875  Q 5.8125 44.625 5.8125 54.390625  z M 21.09375 66.75  Q 17.828125 66.75 15.65625 63.90625  Q 13.484375 61.078125 13.484375 53.515625  Q 13.484375 46.625 15.671875 43.8125  Q 17.875 41.015625 21.09375 41.015625  Q 24.421875 41.015625 26.59375 43.84375  Q 28.765625 46.6875 28.765625 54.203125  Q 28.765625 61.140625 26.5625 63.9375  Q 24.359375 66.75 21.09375 66.75  z M 21.140625 -2.640625  L 60.296875 72.796875  L 67.4375 72.796875  L 28.421875 -2.640625  z M 52.09375 16.796875  Q 52.09375 24.515625 55.953125 29.859375  Q 59.8125 35.203125 67.1875 35.203125  Q 73.921875 35.203125 78.34375 30.390625  Q 82.765625 25.59375 82.765625 16.265625  Q 82.765625 7.171875 78.296875 2.265625  Q 73.828125 -2.640625 67.234375 -2.640625  Q 60.75 -2.640625 56.421875 2.21875  Q 52.09375 7.078125 52.09375 16.796875  z M 67.4375 29.15625  Q 64.109375 29.15625 61.9375 26.3125  Q 59.765625 23.484375 59.765625 15.921875  Q 59.765625 9.078125 61.953125 6.25  Q 64.15625 3.421875 67.390625 3.421875  Q 70.75 3.421875 72.921875 6.25  Q 75.09375 9.078125 75.09375 16.609375  Q 75.09375 23.53125 72.890625 26.34375  Q 70.703125 29.15625 67.4375 29.15625  z "
                 id="ArialMT-37" />
              <path
                 d="M 12.359375 -21.046875  L 6.0625 -21.046875  Q 20.65625 2.390625 20.65625 25.875  Q 20.65625 35.0625 18.5625 44.09375  Q 16.890625 51.421875 13.921875 58.15625  Q 12.015625 62.546875 6.0625 72.796875  L 12.359375 72.796875  Q 21.53125 60.546875 25.921875 48.1875  Q 29.6875 37.546875 29.6875 25.921875  Q 29.6875 12.75 24.625 0.4375  Q 19.578125 -11.859375 12.359375 -21.046875  z "
                 id="ArialMT-41" />
            </defs>
            <use
               xlink:href="#ArialMT-80"
               id="use153" />
            <use
               x="66.699219"
               xlink:href="#ArialMT-101"
               id="use155" />
            <use
               x="122.314453"
               xlink:href="#ArialMT-114"
               id="use157" />
            <use
               x="155.615234"
               xlink:href="#ArialMT-102"
               id="use159" />
            <use
               x="183.398438"
               xlink:href="#ArialMT-111"
               id="use161" />
            <use
               x="239.013672"
               xlink:href="#ArialMT-114"
               id="use163" />
            <use
               x="272.314453"
               xlink:href="#ArialMT-109"
               id="use165" />
            <use
               x="355.615234"
               xlink:href="#ArialMT-97"
               id="use167" />
            <use
               x="411.230469"
               xlink:href="#ArialMT-110"
               id="use169" />
            <use
               x="466.845703"
               xlink:href="#ArialMT-99"
               id="use171" />
            <use
               x="516.845703"
               xlink:href="#ArialMT-101"
               id="use173" />
            <use
               x="572.460938"
               xlink:href="#ArialMT-40"
               id="use175" />
            <use
               x="605.761719"
               xlink:href="#ArialMT-37"
               id="use177" />
            <use
               x="694.677734"
               xlink:href="#ArialMT-41"
               id="use179" />
          </g>
        </g>
      </g>
      <g
         id="patch_3">
        <path
           clip-path="url(#p599badbad8)"
           d="M 47.16 569.52  L 136.44 569.52  L 136.44 101.502144  L 47.16 101.502144  z "
           style="fill:#4ba473;stroke:#ffffff;stroke-linejoin:miter;stroke-width:1.5;"
           id="path182" />
      </g>
      <g
         id="patch_4">
        <path
           clip-path="url(#p599badbad8)"
           d="M 158.76 569.52  L 248.04 569.52  L 248.04 115.826713  L 158.76 115.826713  z "
           style="fill:#5573cd;stroke:#ffffff;stroke-linejoin:miter;stroke-width:1.5;"
           id="path185" />
      </g>
      <g
         id="line2d_1">
        <path
           clip-path="url(#p599badbad8)"
           d="M 91.8 130.292415  L 91.8 72.711873  "
           style="fill:none;stroke:#424242;stroke-linecap:round;stroke-width:1.5;"
           id="path188" />
      </g>
      <g
         id="line2d_2">
        <path
           clip-path="url(#p599badbad8)"
           d="M 80.64 130.292415  L 102.96 130.292415  "
           style="fill:none;stroke:#424242;stroke-linecap:round;stroke-width:1.5;"
           id="path191" />
      </g>
      <g
         id="line2d_3">
        <path
           clip-path="url(#p599badbad8)"
           d="M 80.64 72.711873  L 102.96 72.711873  "
           style="fill:none;stroke:#424242;stroke-linecap:round;stroke-width:1.5;"
           id="path194" />
      </g>
      <g
         id="line2d_4">
        <path
           clip-path="url(#p599badbad8)"
           d="M 203.4 143.73702  L 203.4 87.916406  "
           style="fill:none;stroke:#424242;stroke-linecap:round;stroke-width:1.5;"
           id="path197" />
      </g>
      <g
         id="line2d_5">
        <path
           clip-path="url(#p599badbad8)"
           d="M 192.24 143.73702  L 214.56 143.73702  "
           style="fill:none;stroke:#424242;stroke-linecap:round;stroke-width:1.5;"
           id="path200" />
      </g>
      <g
         id="line2d_6">
        <path
           clip-path="url(#p599badbad8)"
           d="M 192.24 87.916406  L 214.56 87.916406  "
           style="fill:none;stroke:#424242;stroke-linecap:round;stroke-width:1.5;"
           id="path203" />
      </g>
      <g
         id="patch_5">
        <path
           d="M 36 189  L 36 25.92  "
           style="fill:none;stroke:#262626;stroke-linecap:square;stroke-linejoin:miter;stroke-width:1.875;"
           id="path206" />
      </g>
      <g
         id="patch_6">
        <path
           d="M 36 189  L 259.2 189  "
           style="fill:none;stroke:#262626;stroke-linecap:square;stroke-linejoin:miter;stroke-width:1.875;"
           id="path209" />
      </g>
    </g>
  </g>
  <defs
     id="defs211">
    <clipPath
       id="p599badbad8">
      <rect
         height="163.08"
         width="223.2"
         x="36"
         y="25.92"
         id="rect214" />
    </clipPath>
  </defs>
  <path
     style="fill:none;fill-rule:evenodd;stroke:#000000;stroke-width:1.60000002;stroke-linecap:butt;stroke-linejoin:miter;stroke-miterlimit:4;stroke-dasharray:none;stroke-opacity:1"
     d="m 91.421872,62.060253 0,-7.688725 110.519188,0.123261 -0.0385,22.819577"
     id="path3501"
     inkscape:connector-curvature="0"
     sodipodi:nodetypes="cccc"
     inkscape:export-xdpi="400"
     inkscape:export-ydpi="400" />
  <text
     xml:space="preserve"
     style="font-style:normal;font-variant:normal;font-weight:normal;font-stretch:normal;font-size:4px;line-height:125%;font-family:sans-serif;-inkscape-font-specification:'sans-serif, Normal';text-align:center;letter-spacing:0px;word-spacing:0px;writing-mode:lr-tb;text-anchor:middle;fill:#000000;fill-opacity:1;stroke:none;stroke-width:1px;stroke-linecap:butt;stroke-linejoin:miter;stroke-opacity:1"
     x="146.0486"
     y="53.231377"
     id="text4303"
     sodipodi:linespacing="125%"
     inkscape:export-xdpi="400"
     inkscape:export-ydpi="400"><tspan
       sodipodi:role="line"
       id="tspan4305"
       style="font-style:normal;font-variant:normal;font-weight:bold;font-stretch:normal;font-size:14px;font-family:sans-serif;-inkscape-font-specification:'sans-serif Bold';stroke-linecap:butt;stroke-linejoin:round"
       x="146.0486"
       y="53.231377">*</tspan></text>
</svg>
