<?xml version="1.0" encoding="UTF-8" standalone="no"?>
<!-- Created with matplotlib (https://matplotlib.org/) -->

<svg
   xmlns:dc="http://purl.org/dc/elements/1.1/"
   xmlns:cc="http://creativecommons.org/ns#"
   xmlns:rdf="http://www.w3.org/1999/02/22-rdf-syntax-ns#"
   xmlns:svg="http://www.w3.org/2000/svg"
   xmlns="http://www.w3.org/2000/svg"
   xmlns:xlink="http://www.w3.org/1999/xlink"
   xmlns:sodipodi="http://sodipodi.sourceforge.net/DTD/sodipodi-0.dtd"
   xmlns:inkscape="http://www.inkscape.org/namespaces/inkscape"
   height="216pt"
   version="1.1"
   viewBox="0 0 288 216"
   width="288pt"
   id="svg2"
   inkscape:version="0.91 r13725"
   sodipodi:docname="catch_session_nr_split_by_action_vs_location.svg">
  <sodipodi:namedview
     pagecolor="#ffffff"
     bordercolor="#666666"
     borderopacity="1"
     objecttolerance="10"
     gridtolerance="10"
     guidetolerance="10"
     inkscape:pageopacity="0"
     inkscape:pageshadow="2"
     inkscape:window-width="1536"
     inkscape:window-height="801"
     id="namedview221"
     showgrid="false"
     inkscape:zoom="1.2361274"
     inkscape:cx="278.88282"
     inkscape:cy="121.88165"
     inkscape:window-x="-8"
     inkscape:window-y="-8"
     inkscape:window-maximized="1"
     inkscape:current-layer="svg2" />
  <metadata
     id="metadata4">
    <rdf:RDF>
      <cc:Work>
        <dc:type
           rdf:resource="http://purl.org/dc/dcmitype/StillImage" />
        <dc:date>2021-09-02T15:15:55.058055</dc:date>
        <dc:format>image/svg+xml</dc:format>
        <dc:creator>
          <cc:Agent>
            <dc:title>Matplotlib v3.3.4, https://matplotlib.org/</dc:title>
          </cc:Agent>
        </dc:creator>
      </cc:Work>
    </rdf:RDF>
  </metadata>
  <defs
     id="defs6">
    <style
       type="text/css"
       id="style8">*{stroke-linecap:butt;stroke-linejoin:round;}</style>
  </defs>
  <g
     id="figure_1"
     inkscape:export-xdpi="400"
     inkscape:export-ydpi="400">
    <g
       id="patch_1">
      <path
         d="M 0 216  L 288 216  L 288 0  L 0 0  z "
         style="fill:#ffffff;"
         id="path12" />
    </g>
    <g
       id="axes_1">
      <g
         id="patch_2">
        <path
           d="M 36 189  L 259.2 189  L 259.2 25.92  L 36 25.92  z "
           style="fill:#ffffff;"
           id="path16" />
      </g>
      <g
         id="matplotlib.axis_1">
        <g
           id="xtick_1">
          <g
             id="text_1">
            <!-- action -->
            <g
               style="fill:#262626;"
               transform="translate(77.758108 213.310391)scale(0.165 -0.165)"
               id="g21">
              <defs
                 id="defs23">
                <path
                   d="M 40.4375 6.390625  Q 35.546875 2.25 31.03125 0.53125  Q 26.515625 -1.171875 21.34375 -1.171875  Q 12.796875 -1.171875 8.203125 3  Q 3.609375 7.171875 3.609375 13.671875  Q 3.609375 17.484375 5.34375 20.625  Q 7.078125 23.78125 9.890625 25.6875  Q 12.703125 27.59375 16.21875 28.5625  Q 18.796875 29.25 24.03125 29.890625  Q 34.671875 31.15625 39.703125 32.90625  Q 39.75 34.71875 39.75 35.203125  Q 39.75 40.578125 37.25 42.78125  Q 33.890625 45.75 27.25 45.75  Q 21.046875 45.75 18.09375 43.578125  Q 15.140625 41.40625 13.71875 35.890625  L 5.125 37.0625  Q 6.296875 42.578125 8.984375 45.96875  Q 11.671875 49.359375 16.75 51.1875  Q 21.828125 53.03125 28.515625 53.03125  Q 35.15625 53.03125 39.296875 51.46875  Q 43.453125 49.90625 45.40625 47.53125  Q 47.359375 45.171875 48.140625 41.546875  Q 48.578125 39.3125 48.578125 33.453125  L 48.578125 21.734375  Q 48.578125 9.46875 49.140625 6.21875  Q 49.703125 2.984375 51.375 0  L 42.1875 0  Q 40.828125 2.734375 40.4375 6.390625  z M 39.703125 26.03125  Q 34.90625 24.078125 25.34375 22.703125  Q 19.921875 21.921875 17.671875 20.9375  Q 15.4375 19.96875 14.203125 18.09375  Q 12.984375 16.21875 12.984375 13.921875  Q 12.984375 10.40625 15.640625 8.0625  Q 18.3125 5.71875 23.4375 5.71875  Q 28.515625 5.71875 32.46875 7.9375  Q 36.421875 10.15625 38.28125 14.015625  Q 39.703125 17 39.703125 22.796875  z "
                   id="ArialMT-97" />
                <path
                   d="M 40.4375 19  L 49.078125 17.875  Q 47.65625 8.9375 41.8125 3.875  Q 35.984375 -1.171875 27.484375 -1.171875  Q 16.84375 -1.171875 10.375 5.78125  Q 3.90625 12.75 3.90625 25.734375  Q 3.90625 34.125 6.6875 40.421875  Q 9.46875 46.734375 15.15625 49.875  Q 20.84375 53.03125 27.546875 53.03125  Q 35.984375 53.03125 41.359375 48.75  Q 46.734375 44.484375 48.25 36.625  L 39.703125 35.296875  Q 38.484375 40.53125 35.375 43.15625  Q 32.28125 45.796875 27.875 45.796875  Q 21.234375 45.796875 17.078125 41.03125  Q 12.9375 36.28125 12.9375 25.984375  Q 12.9375 15.53125 16.9375 10.796875  Q 20.953125 6.0625 27.390625 6.0625  Q 32.5625 6.0625 36.03125 9.234375  Q 39.5 12.40625 40.4375 19  z "
                   id="ArialMT-99" />
                <path
                   d="M 25.78125 7.859375  L 27.046875 0.09375  Q 23.34375 -0.6875 20.40625 -0.6875  Q 15.625 -0.6875 12.984375 0.828125  Q 10.359375 2.34375 9.28125 4.8125  Q 8.203125 7.28125 8.203125 15.1875  L 8.203125 45.015625  L 1.765625 45.015625  L 1.765625 51.859375  L 8.203125 51.859375  L 8.203125 64.703125  L 16.9375 69.96875  L 16.9375 51.859375  L 25.78125 51.859375  L 25.78125 45.015625  L 16.9375 45.015625  L 16.9375 14.703125  Q 16.9375 10.9375 17.40625 9.859375  Q 17.875 8.796875 18.921875 8.15625  Q 19.96875 7.515625 21.921875 7.515625  Q 23.390625 7.515625 25.78125 7.859375  z "
                   id="ArialMT-116" />
                <path
                   d="M 6.640625 61.46875  L 6.640625 71.578125  L 15.4375 71.578125  L 15.4375 61.46875  z M 6.640625 0  L 6.640625 51.859375  L 15.4375 51.859375  L 15.4375 0  z "
                   id="ArialMT-105" />
                <path
                   d="M 3.328125 25.921875  Q 3.328125 40.328125 11.328125 47.265625  Q 18.015625 53.03125 27.640625 53.03125  Q 38.328125 53.03125 45.109375 46.015625  Q 51.90625 39.015625 51.90625 26.65625  Q 51.90625 16.65625 48.90625 10.90625  Q 45.90625 5.171875 40.15625 2  Q 34.421875 -1.171875 27.640625 -1.171875  Q 16.75 -1.171875 10.03125 5.8125  Q 3.328125 12.796875 3.328125 25.921875  z M 12.359375 25.921875  Q 12.359375 15.96875 16.703125 11.015625  Q 21.046875 6.0625 27.640625 6.0625  Q 34.1875 6.0625 38.53125 11.03125  Q 42.875 16.015625 42.875 26.21875  Q 42.875 35.84375 38.5 40.796875  Q 34.125 45.75 27.640625 45.75  Q 21.046875 45.75 16.703125 40.8125  Q 12.359375 35.890625 12.359375 25.921875  z "
                   id="ArialMT-111" />
                <path
                   d="M 6.59375 0  L 6.59375 51.859375  L 14.5 51.859375  L 14.5 44.484375  Q 20.21875 53.03125 31 53.03125  Q 35.6875 53.03125 39.625 51.34375  Q 43.5625 49.65625 45.515625 46.921875  Q 47.46875 44.1875 48.25 40.4375  Q 48.734375 37.984375 48.734375 31.890625  L 48.734375 0  L 39.9375 0  L 39.9375 31.546875  Q 39.9375 36.921875 38.90625 39.578125  Q 37.890625 42.234375 35.28125 43.8125  Q 32.671875 45.40625 29.15625 45.40625  Q 23.53125 45.40625 19.453125 41.84375  Q 15.375 38.28125 15.375 28.328125  L 15.375 0  z "
                   id="ArialMT-110" />
              </defs>
              <use
                 xlink:href="#ArialMT-97"
                 id="use31" />
              <use
                 x="55.615234"
                 xlink:href="#ArialMT-99"
                 id="use33" />
              <use
                 x="105.615234"
                 xlink:href="#ArialMT-116"
                 id="use35" />
              <use
                 x="133.398438"
                 xlink:href="#ArialMT-105"
                 id="use37" />
              <use
                 x="155.615234"
                 xlink:href="#ArialMT-111"
                 id="use39" />
              <use
                 x="211.230469"
                 xlink:href="#ArialMT-110"
                 id="use41" />
            </g>
          </g>
        </g>
        <g
           id="xtick_2">
          <g
             id="text_2">
            <!-- location -->
            <g
               style="fill:#262626;"
               transform="translate(166.994431 213.310391)scale(0.165 -0.165)"
               id="g45">
              <defs
                 id="defs47">
                <path
                   d="M 6.390625 0  L 6.390625 71.578125  L 15.1875 71.578125  L 15.1875 0  z "
                   id="ArialMT-108" />
              </defs>
              <use
                 xlink:href="#ArialMT-108"
                 id="use50" />
              <use
                 x="22.216797"
                 xlink:href="#ArialMT-111"
                 id="use52" />
              <use
                 x="77.832031"
                 xlink:href="#ArialMT-99"
                 id="use54" />
              <use
                 x="127.832031"
                 xlink:href="#ArialMT-97"
                 id="use56" />
              <use
                 x="183.447266"
                 xlink:href="#ArialMT-116"
                 id="use58" />
              <use
                 x="211.230469"
                 xlink:href="#ArialMT-105"
                 id="use60" />
              <use
                 x="233.447266"
                 xlink:href="#ArialMT-111"
                 id="use62" />
              <use
                 x="289.0625"
                 xlink:href="#ArialMT-110"
                 id="use64" />
            </g>
          </g>
        </g>
        <g
           id="text_3">
          <!-- Non match -->
          <g
             style="fill:#262626;"
             transform="translate(104.083594 233.473828)scale(0.18 -0.18)"
             id="g67">
            <defs
               id="defs69">
              <path
                 d="M 7.625 0  L 7.625 71.578125  L 17.328125 71.578125  L 54.9375 15.375  L 54.9375 71.578125  L 64.015625 71.578125  L 64.015625 0  L 54.296875 0  L 16.703125 56.25  L 16.703125 0  z "
                 id="ArialMT-78" />
              <path
                 id="ArialMT-32" />
              <path
                 d="M 6.59375 0  L 6.59375 51.859375  L 14.453125 51.859375  L 14.453125 44.578125  Q 16.890625 48.390625 20.9375 50.703125  Q 25 53.03125 30.171875 53.03125  Q 35.9375 53.03125 39.625 50.640625  Q 43.3125 48.25 44.828125 43.953125  Q 50.984375 53.03125 60.84375 53.03125  Q 68.5625 53.03125 72.703125 48.75  Q 76.859375 44.484375 76.859375 35.59375  L 76.859375 0  L 68.109375 0  L 68.109375 32.671875  Q 68.109375 37.9375 67.25 40.25  Q 66.40625 42.578125 64.15625 43.984375  Q 61.921875 45.40625 58.890625 45.40625  Q 53.421875 45.40625 49.796875 41.765625  Q 46.1875 38.140625 46.1875 30.125  L 46.1875 0  L 37.40625 0  L 37.40625 33.6875  Q 37.40625 39.546875 35.25 42.46875  Q 33.109375 45.40625 28.21875 45.40625  Q 24.515625 45.40625 21.359375 43.453125  Q 18.21875 41.5 16.796875 37.734375  Q 15.375 33.984375 15.375 26.90625  L 15.375 0  z "
                 id="ArialMT-109" />
              <path
                 d="M 6.59375 0  L 6.59375 71.578125  L 15.375 71.578125  L 15.375 45.90625  Q 21.53125 53.03125 30.90625 53.03125  Q 36.671875 53.03125 40.921875 50.75  Q 45.171875 48.484375 47 44.484375  Q 48.828125 40.484375 48.828125 32.859375  L 48.828125 0  L 40.046875 0  L 40.046875 32.859375  Q 40.046875 39.453125 37.1875 42.453125  Q 34.328125 45.453125 29.109375 45.453125  Q 25.203125 45.453125 21.75 43.421875  Q 18.3125 41.40625 16.84375 37.9375  Q 15.375 34.46875 15.375 28.375  L 15.375 0  z "
                 id="ArialMT-104" />
            </defs>
            <use
               xlink:href="#ArialMT-78"
               id="use75" />
            <use
               x="72.216797"
               xlink:href="#ArialMT-111"
               id="use77" />
            <use
               x="127.832031"
               xlink:href="#ArialMT-110"
               id="use79" />
            <use
               x="183.447266"
               xlink:href="#ArialMT-32"
               id="use81" />
            <use
               x="211.230469"
               xlink:href="#ArialMT-109"
               id="use83" />
            <use
               x="294.53125"
               xlink:href="#ArialMT-97"
               id="use85" />
            <use
               x="350.146484"
               xlink:href="#ArialMT-116"
               id="use87" />
            <use
               x="377.929688"
               xlink:href="#ArialMT-99"
               id="use89" />
            <use
               x="427.929688"
               xlink:href="#ArialMT-104"
               id="use91" />
          </g>
        </g>
      </g>
      <g
         id="matplotlib.axis_2">
        <g
           id="ytick_1">
          <g
             id="text_4">
            <!-- 0 -->
            <g
               style="fill:#262626;"
               transform="translate(14.324453 194.905195)scale(0.165 -0.165)"
               id="g96">
              <defs
                 id="defs98">
                <path
                   d="M 4.15625 35.296875  Q 4.15625 48 6.765625 55.734375  Q 9.375 63.484375 14.515625 67.671875  Q 19.671875 71.875 27.484375 71.875  Q 33.25 71.875 37.59375 69.546875  Q 41.9375 67.234375 44.765625 62.859375  Q 47.609375 58.5 49.21875 52.21875  Q 50.828125 45.953125 50.828125 35.296875  Q 50.828125 22.703125 48.234375 14.96875  Q 45.65625 7.234375 40.5 3  Q 35.359375 -1.21875 27.484375 -1.21875  Q 17.140625 -1.21875 11.234375 6.203125  Q 4.15625 15.140625 4.15625 35.296875  z M 13.1875 35.296875  Q 13.1875 17.671875 17.3125 11.828125  Q 21.4375 6 27.484375 6  Q 33.546875 6 37.671875 11.859375  Q 41.796875 17.71875 41.796875 35.296875  Q 41.796875 52.984375 37.671875 58.78125  Q 33.546875 64.59375 27.390625 64.59375  Q 21.34375 64.59375 17.71875 59.46875  Q 13.1875 52.9375 13.1875 35.296875  z "
                   id="ArialMT-48" />
              </defs>
              <use
                 xlink:href="#ArialMT-48"
                 id="use101" />
            </g>
          </g>
        </g>
        <g
           id="ytick_2">
          <g
             id="text_5">
            <!-- 5 -->
            <g
               style="fill:#262626;"
               transform="translate(14.324453 121.40255)scale(0.165 -0.165)"
               id="g105">
              <defs
                 id="defs107">
                <path
                   d="M 4.15625 18.75  L 13.375 19.53125  Q 14.40625 12.796875 18.140625 9.390625  Q 21.875 6 27.15625 6  Q 33.5 6 37.890625 10.78125  Q 42.28125 15.578125 42.28125 23.484375  Q 42.28125 31 38.0625 35.34375  Q 33.84375 39.703125 27 39.703125  Q 22.75 39.703125 19.328125 37.765625  Q 15.921875 35.84375 13.96875 32.765625  L 5.71875 33.84375  L 12.640625 70.609375  L 48.25 70.609375  L 48.25 62.203125  L 19.671875 62.203125  L 15.828125 42.96875  Q 22.265625 47.46875 29.34375 47.46875  Q 38.71875 47.46875 45.15625 40.96875  Q 51.609375 34.46875 51.609375 24.265625  Q 51.609375 14.546875 45.953125 7.46875  Q 39.0625 -1.21875 27.15625 -1.21875  Q 17.390625 -1.21875 11.203125 4.25  Q 5.03125 9.71875 4.15625 18.75  z "
                   id="ArialMT-53" />
              </defs>
              <use
                 xlink:href="#ArialMT-53"
                 id="use110" />
            </g>
          </g>
        </g>
        <g
           id="ytick_3">
          <g
             id="text_6">
            <!-- 10 -->
            <g
               style="fill:#262626;"
               transform="translate(5.148906 47.899904)scale(0.165 -0.165)"
               id="g114">
              <defs
                 id="defs116">
                <path
                   d="M 37.25 0  L 28.46875 0  L 28.46875 56  Q 25.296875 52.984375 20.140625 49.953125  Q 14.984375 46.921875 10.890625 45.40625  L 10.890625 53.90625  Q 18.265625 57.375 23.78125 62.296875  Q 29.296875 67.234375 31.59375 71.875  L 37.25 71.875  z "
                   id="ArialMT-49" />
              </defs>
              <use
                 xlink:href="#ArialMT-49"
                 id="use119" />
              <use
                 x="55.615234"
                 xlink:href="#ArialMT-48"
                 id="use121" />
            </g>
          </g>
        </g>
        <g
           id="text_7">
          <!-- Session number -->
          <g
             style="fill:#262626;"
             transform="translate(-2.428594 172.490625)rotate(-90)scale(0.18 -0.18)"
             id="g124">
            <defs
               id="defs126">
              <path
                 d="M 4.5 23  L 13.421875 23.78125  Q 14.0625 18.40625 16.375 14.96875  Q 18.703125 11.53125 23.578125 9.40625  Q 28.46875 7.28125 34.578125 7.28125  Q 39.984375 7.28125 44.140625 8.890625  Q 48.296875 10.5 50.3125 13.296875  Q 52.34375 16.109375 52.34375 19.4375  Q 52.34375 22.796875 50.390625 25.3125  Q 48.4375 27.828125 43.953125 29.546875  Q 41.0625 30.671875 31.203125 33.03125  Q 21.34375 35.40625 17.390625 37.5  Q 12.25 40.1875 9.734375 44.15625  Q 7.234375 48.140625 7.234375 53.078125  Q 7.234375 58.5 10.296875 63.203125  Q 13.375 67.921875 19.28125 70.359375  Q 25.203125 72.796875 32.421875 72.796875  Q 40.375 72.796875 46.453125 70.234375  Q 52.546875 67.671875 55.8125 62.6875  Q 59.078125 57.71875 59.328125 51.421875  L 50.25 50.734375  Q 49.515625 57.515625 45.28125 60.984375  Q 41.0625 64.453125 32.8125 64.453125  Q 24.21875 64.453125 20.28125 61.296875  Q 16.359375 58.15625 16.359375 53.71875  Q 16.359375 49.859375 19.140625 47.359375  Q 21.875 44.875 33.421875 42.265625  Q 44.96875 39.65625 49.265625 37.703125  Q 55.515625 34.8125 58.484375 30.390625  Q 61.46875 25.984375 61.46875 20.21875  Q 61.46875 14.5 58.203125 9.4375  Q 54.9375 4.390625 48.796875 1.578125  Q 42.671875 -1.21875 35.015625 -1.21875  Q 25.296875 -1.21875 18.71875 1.609375  Q 12.15625 4.4375 8.421875 10.125  Q 4.6875 15.828125 4.5 23  z "
                 id="ArialMT-83" />
              <path
                 d="M 42.09375 16.703125  L 51.171875 15.578125  Q 49.03125 7.625 43.21875 3.21875  Q 37.40625 -1.171875 28.375 -1.171875  Q 17 -1.171875 10.328125 5.828125  Q 3.65625 12.84375 3.65625 25.484375  Q 3.65625 38.578125 10.390625 45.796875  Q 17.140625 53.03125 27.875 53.03125  Q 38.28125 53.03125 44.875 45.953125  Q 51.46875 38.875 51.46875 26.03125  Q 51.46875 25.25 51.421875 23.6875  L 12.75 23.6875  Q 13.234375 15.140625 17.578125 10.59375  Q 21.921875 6.0625 28.421875 6.0625  Q 33.25 6.0625 36.671875 8.59375  Q 40.09375 11.140625 42.09375 16.703125  z M 13.234375 30.90625  L 42.1875 30.90625  Q 41.609375 37.453125 38.875 40.71875  Q 34.671875 45.796875 27.984375 45.796875  Q 21.921875 45.796875 17.796875 41.75  Q 13.671875 37.703125 13.234375 30.90625  z "
                 id="ArialMT-101" />
              <path
                 d="M 3.078125 15.484375  L 11.765625 16.84375  Q 12.5 11.625 15.84375 8.84375  Q 19.1875 6.0625 25.203125 6.0625  Q 31.25 6.0625 34.171875 8.515625  Q 37.109375 10.984375 37.109375 14.3125  Q 37.109375 17.28125 34.515625 19  Q 32.71875 20.171875 25.53125 21.96875  Q 15.875 24.421875 12.140625 26.203125  Q 8.40625 27.984375 6.46875 31.125  Q 4.546875 34.28125 4.546875 38.09375  Q 4.546875 41.546875 6.125 44.5  Q 7.71875 47.46875 10.453125 49.421875  Q 12.5 50.921875 16.03125 51.96875  Q 19.578125 53.03125 23.640625 53.03125  Q 29.734375 53.03125 34.34375 51.265625  Q 38.96875 49.515625 41.15625 46.5  Q 43.359375 43.5 44.1875 38.484375  L 35.59375 37.3125  Q 35.015625 41.3125 32.203125 43.546875  Q 29.390625 45.796875 24.265625 45.796875  Q 18.21875 45.796875 15.625 43.796875  Q 13.03125 41.796875 13.03125 39.109375  Q 13.03125 37.40625 14.109375 36.03125  Q 15.1875 34.625 17.484375 33.6875  Q 18.796875 33.203125 25.25 31.453125  Q 34.578125 28.953125 38.25 27.359375  Q 41.9375 25.78125 44.03125 22.75  Q 46.140625 19.734375 46.140625 15.234375  Q 46.140625 10.84375 43.578125 6.953125  Q 41.015625 3.078125 36.171875 0.953125  Q 31.34375 -1.171875 25.25 -1.171875  Q 15.140625 -1.171875 9.84375 3.03125  Q 4.546875 7.234375 3.078125 15.484375  z "
                 id="ArialMT-115" />
              <path
                 d="M 40.578125 0  L 40.578125 7.625  Q 34.515625 -1.171875 24.125 -1.171875  Q 19.53125 -1.171875 15.546875 0.578125  Q 11.578125 2.34375 9.640625 5  Q 7.71875 7.671875 6.9375 11.53125  Q 6.390625 14.109375 6.390625 19.734375  L 6.390625 51.859375  L 15.1875 51.859375  L 15.1875 23.09375  Q 15.1875 16.21875 15.71875 13.8125  Q 16.546875 10.359375 19.234375 8.375  Q 21.921875 6.390625 25.875 6.390625  Q 29.828125 6.390625 33.296875 8.421875  Q 36.765625 10.453125 38.203125 13.9375  Q 39.65625 17.4375 39.65625 24.078125  L 39.65625 51.859375  L 48.4375 51.859375  L 48.4375 0  z "
                 id="ArialMT-117" />
              <path
                 d="M 14.703125 0  L 6.546875 0  L 6.546875 71.578125  L 15.328125 71.578125  L 15.328125 46.046875  Q 20.90625 53.03125 29.546875 53.03125  Q 34.328125 53.03125 38.59375 51.09375  Q 42.875 49.171875 45.625 45.671875  Q 48.390625 42.1875 49.953125 37.25  Q 51.515625 32.328125 51.515625 26.703125  Q 51.515625 13.375 44.921875 6.09375  Q 38.328125 -1.171875 29.109375 -1.171875  Q 19.921875 -1.171875 14.703125 6.5  z M 14.59375 26.3125  Q 14.59375 17 17.140625 12.84375  Q 21.296875 6.0625 28.375 6.0625  Q 34.125 6.0625 38.328125 11.0625  Q 42.53125 16.0625 42.53125 25.984375  Q 42.53125 36.140625 38.5 40.96875  Q 34.46875 45.796875 28.765625 45.796875  Q 23 45.796875 18.796875 40.796875  Q 14.59375 35.796875 14.59375 26.3125  z "
                 id="ArialMT-98" />
              <path
                 d="M 6.5 0  L 6.5 51.859375  L 14.40625 51.859375  L 14.40625 44  Q 17.4375 49.515625 20 51.265625  Q 22.5625 53.03125 25.640625 53.03125  Q 30.078125 53.03125 34.671875 50.203125  L 31.640625 42.046875  Q 28.421875 43.953125 25.203125 43.953125  Q 22.3125 43.953125 20.015625 42.21875  Q 17.71875 40.484375 16.75 37.40625  Q 15.28125 32.71875 15.28125 27.15625  L 15.28125 0  z "
                 id="ArialMT-114" />
            </defs>
            <use
               xlink:href="#ArialMT-83"
               id="use134" />
            <use
               x="66.699219"
               xlink:href="#ArialMT-101"
               id="use136" />
            <use
               x="122.314453"
               xlink:href="#ArialMT-115"
               id="use138" />
            <use
               x="172.314453"
               xlink:href="#ArialMT-115"
               id="use140" />
            <use
               x="222.314453"
               xlink:href="#ArialMT-105"
               id="use142" />
            <use
               x="244.53125"
               xlink:href="#ArialMT-111"
               id="use144" />
            <use
               x="300.146484"
               xlink:href="#ArialMT-110"
               id="use146" />
            <use
               x="355.761719"
               xlink:href="#ArialMT-32"
               id="use148" />
            <use
               x="383.544922"
               xlink:href="#ArialMT-110"
               id="use150" />
            <use
               x="439.160156"
               xlink:href="#ArialMT-117"
               id="use152" />
            <use
               x="494.775391"
               xlink:href="#ArialMT-109"
               id="use154" />
            <use
               x="578.076172"
               xlink:href="#ArialMT-98"
               id="use156" />
            <use
               x="633.691406"
               xlink:href="#ArialMT-101"
               id="use158" />
            <use
               x="689.306641"
               xlink:href="#ArialMT-114"
               id="use160" />
          </g>
        </g>
      </g>
      <g
         id="patch_3">
        <path
           clip-path="url(#p544464adb3)"
           d="M 0 0  z "
           style="fill:#5573cd;stroke:#ffffff;stroke-linejoin:miter;stroke-width:1.5;"
           id="path163" />
      </g>
      <g
         id="patch_4">
        <path
           clip-path="url(#p544464adb3)"
           d="M 163.542857 189  L 227.314286 189  L 227.314286 78.452021  L 163.542857 78.452021  z "
           style="fill:#5573cd;stroke:#ffffff;stroke-linejoin:miter;stroke-width:1.5;"
           id="path166" />
      </g>
      <g
         id="patch_5">
        <path
           clip-path="url(#p544464adb3)"
           d="M 67.885714 189  L 131.657143 189  L 131.657143 57.334392  L 67.885714 57.334392  z "
           style="fill:#4ba473;stroke:#ffffff;stroke-linejoin:miter;stroke-width:1.5;"
           id="path169" />
      </g>
      <g
         id="patch_6">
        <path
           clip-path="url(#p544464adb3)"
           d="M 0 0  z "
           style="fill:#4ba473;stroke:#ffffff;stroke-linejoin:miter;stroke-width:1.5;"
           id="path172" />
      </g>
      <g
         id="line2d_1">
        <path
           clip-path="url(#p544464adb3)"
           d="M 0 0  "
           style="fill:none;stroke:#424242;stroke-linecap:round;stroke-width:1.5;"
           id="path175" />
      </g>
      <g
         id="line2d_2">
        <path
           clip-path="url(#p544464adb3)"
           d="M 0 0  "
           style="fill:none;stroke:#424242;stroke-linecap:round;stroke-width:1.5;"
           id="path178" />
      </g>
      <g
         id="line2d_3">
        <path
           clip-path="url(#p544464adb3)"
           d="M 0 0  "
           style="fill:none;stroke:#424242;stroke-linecap:round;stroke-width:1.5;"
           id="path181" />
      </g>
      <g
         id="line2d_4">
        <path
           clip-path="url(#p544464adb3)"
           d="M 195.428571 97.85672  L 195.428571 59.047323  "
           style="fill:none;stroke:#424242;stroke-linecap:round;stroke-width:1.5;"
           id="path184" />
      </g>
      <g
         id="line2d_5">
        <path
           clip-path="url(#p544464adb3)"
           d="M 179.485714 97.85672  L 211.371429 97.85672  "
           style="fill:none;stroke:#424242;stroke-linecap:round;stroke-width:1.5;"
           id="path187" />
      </g>
      <g
         id="line2d_6">
        <path
           clip-path="url(#p544464adb3)"
           d="M 179.485714 59.047323  L 211.371429 59.047323  "
           style="fill:none;stroke:#424242;stroke-linecap:round;stroke-width:1.5;"
           id="path190" />
      </g>
      <g
         id="line2d_7">
        <path
           clip-path="url(#p544464adb3)"
           d="M 99.771429 81.622222  L 99.771429 33.685714  "
           style="fill:none;stroke:#424242;stroke-linecap:round;stroke-width:1.5;"
           id="path193" />
      </g>
      <g
         id="line2d_8">
        <path
           clip-path="url(#p544464adb3)"
           d="M 83.828571 81.622222  L 115.714286 81.622222  "
           style="fill:none;stroke:#424242;stroke-linecap:round;stroke-width:1.5;"
           id="path196" />
      </g>
      <g
         id="line2d_9">
        <path
           clip-path="url(#p544464adb3)"
           d="M 83.828571 33.685714  L 115.714286 33.685714  "
           style="fill:none;stroke:#424242;stroke-linecap:round;stroke-width:1.5;"
           id="path199" />
      </g>
      <g
         id="line2d_10">
        <path
           clip-path="url(#p544464adb3)"
           d="M 0 0  "
           style="fill:none;stroke:#424242;stroke-linecap:round;stroke-width:1.5;"
           id="path202" />
      </g>
      <g
         id="line2d_11">
        <path
           clip-path="url(#p544464adb3)"
           d="M 0 0  "
           style="fill:none;stroke:#424242;stroke-linecap:round;stroke-width:1.5;"
           id="path205" />
      </g>
      <g
         id="line2d_12">
        <path
           clip-path="url(#p544464adb3)"
           d="M 0 0  "
           style="fill:none;stroke:#424242;stroke-linecap:round;stroke-width:1.5;"
           id="path208" />
      </g>
      <g
         id="patch_7">
        <path
           d="M 36 189  L 36 25.92  "
           style="fill:none;stroke:#262626;stroke-linecap:square;stroke-linejoin:miter;stroke-width:1.875;"
           id="path211" />
      </g>
      <g
         id="patch_8">
        <path
           d="M 36 189  L 259.2 189  "
           style="fill:none;stroke:#262626;stroke-linecap:square;stroke-linejoin:miter;stroke-width:1.875;"
           id="path214" />
      </g>
    </g>
  </g>
  <defs
     id="defs216">
    <clipPath
       id="p544464adb3">
      <rect
         height="163.08"
         width="223.2"
         x="36"
         y="25.92"
         id="rect219" />
    </clipPath>
  </defs>
  <path
     style="fill:none;fill-rule:evenodd;stroke:#000000;stroke-width:1.60000002;stroke-linecap:butt;stroke-linejoin:miter;stroke-miterlimit:4;stroke-dasharray:none;stroke-opacity:1"
     d="m 100.14237,24.541885 0,-7.688726 95.16091,-0.07779 0.18871,31.730992"
     id="path3501"
     inkscape:connector-curvature="0"
     sodipodi:nodetypes="cccc"
     inkscape:export-xdpi="400"
     inkscape:export-ydpi="400" />
  <text
     xml:space="preserve"
     style="font-style:normal;font-variant:normal;font-weight:normal;font-stretch:normal;font-size:4px;line-height:125%;font-family:sans-serif;-inkscape-font-specification:'sans-serif, Normal';text-align:center;letter-spacing:0px;word-spacing:0px;writing-mode:lr-tb;text-anchor:middle;fill:#000000;fill-opacity:1;stroke:none;stroke-width:1px;stroke-linecap:butt;stroke-linejoin:miter;stroke-opacity:1"
     x="150.25629"
     y="13.05246"
     id="text4303"
     sodipodi:linespacing="125%"
     inkscape:export-xdpi="400"
     inkscape:export-ydpi="400"><tspan
       sodipodi:role="line"
       id="tspan4305"
       style="font-size:14px;stroke-linecap:butt;stroke-linejoin:round"
       x="150.25629"
       y="13.05246">n.s.</tspan></text>
</svg>
