<?xml version="1.0" encoding="UTF-8" standalone="no"?>
<!-- Created with matplotlib (https://matplotlib.org/) -->

<svg
   xmlns:dc="http://purl.org/dc/elements/1.1/"
   xmlns:cc="http://creativecommons.org/ns#"
   xmlns:rdf="http://www.w3.org/1999/02/22-rdf-syntax-ns#"
   xmlns:svg="http://www.w3.org/2000/svg"
   xmlns="http://www.w3.org/2000/svg"
   xmlns:xlink="http://www.w3.org/1999/xlink"
   xmlns:sodipodi="http://sodipodi.sourceforge.net/DTD/sodipodi-0.dtd"
   xmlns:inkscape="http://www.inkscape.org/namespaces/inkscape"
   height="216pt"
   version="1.1"
   viewBox="0 0 288 216"
   width="288pt"
   id="svg2"
   inkscape:version="0.91 r13725"
   sodipodi:docname="latency_to_choice_pre_vs_catch.svg">
  <sodipodi:namedview
     pagecolor="#ffffff"
     bordercolor="#666666"
     borderopacity="1"
     objecttolerance="10"
     gridtolerance="10"
     guidetolerance="10"
     inkscape:pageopacity="0"
     inkscape:pageshadow="2"
     inkscape:window-width="1536"
     inkscape:window-height="801"
     id="namedview233"
     showgrid="false"
     inkscape:zoom="4.9445096"
     inkscape:cx="64.300851"
     inkscape:cy="135.96507"
     inkscape:window-x="-8"
     inkscape:window-y="-8"
     inkscape:window-maximized="1"
     inkscape:current-layer="figure_1" />
  <metadata
     id="metadata4">
    <rdf:RDF>
      <cc:Work>
        <dc:type
           rdf:resource="http://purl.org/dc/dcmitype/StillImage" />
        <dc:date>2021-09-02T13:53:34.256788</dc:date>
        <dc:format>image/svg+xml</dc:format>
        <dc:creator>
          <cc:Agent>
            <dc:title>Matplotlib v3.3.4, https://matplotlib.org/</dc:title>
          </cc:Agent>
        </dc:creator>
      </cc:Work>
    </rdf:RDF>
  </metadata>
  <defs
     id="defs6">
    <style
       type="text/css"
       id="style8">*{stroke-linecap:butt;stroke-linejoin:round;}</style>
  </defs>
  <g
     id="figure_1"
     inkscape:export-xdpi="400"
     inkscape:export-ydpi="400">
    <g
       id="patch_1"
       inkscape:export-xdpi="400"
       inkscape:export-ydpi="400">
      <path
         d="M 0 216  L 288 216  L 288 0  L 0 0  z "
         style="fill:#ffffff;"
         id="path12" />
    </g>
    <g
       id="axes_1">
      <g
         id="patch_2"
         inkscape:export-xdpi="400"
         inkscape:export-ydpi="400">
        <path
           d="M 36 189  L 259.2 189  L 259.2 25.92  L 36 25.92  z "
           style="fill:#ffffff;"
           id="path16" />
      </g>
      <g
         id="matplotlib.axis_1"
         inkscape:export-xdpi="400"
         inkscape:export-ydpi="400">
        <g
           id="xtick_1">
          <g
             id="text_1">
            <!-- pre-catch -->
            <g
               style="fill:#262626;"
               transform="translate(57.412969 213.310391)scale(0.165 -0.165)"
               id="g21">
              <defs
                 id="defs23">
                <path
                   d="M 6.59375 -19.875  L 6.59375 51.859375  L 14.59375 51.859375  L 14.59375 45.125  Q 17.4375 49.078125 21 51.046875  Q 24.5625 53.03125 29.640625 53.03125  Q 36.28125 53.03125 41.359375 49.609375  Q 46.4375 46.1875 49.015625 39.953125  Q 51.609375 33.734375 51.609375 26.3125  Q 51.609375 18.359375 48.75 11.984375  Q 45.90625 5.609375 40.453125 2.21875  Q 35.015625 -1.171875 29 -1.171875  Q 24.609375 -1.171875 21.109375 0.6875  Q 17.625 2.546875 15.375 5.375  L 15.375 -19.875  z M 14.546875 25.640625  Q 14.546875 15.625 18.59375 10.84375  Q 22.65625 6.0625 28.421875 6.0625  Q 34.28125 6.0625 38.453125 11.015625  Q 42.625 15.96875 42.625 26.375  Q 42.625 36.28125 38.546875 41.203125  Q 34.46875 46.140625 28.8125 46.140625  Q 23.1875 46.140625 18.859375 40.890625  Q 14.546875 35.640625 14.546875 25.640625  z "
                   id="ArialMT-112" />
                <path
                   d="M 6.5 0  L 6.5 51.859375  L 14.40625 51.859375  L 14.40625 44  Q 17.4375 49.515625 20 51.265625  Q 22.5625 53.03125 25.640625 53.03125  Q 30.078125 53.03125 34.671875 50.203125  L 31.640625 42.046875  Q 28.421875 43.953125 25.203125 43.953125  Q 22.3125 43.953125 20.015625 42.21875  Q 17.71875 40.484375 16.75 37.40625  Q 15.28125 32.71875 15.28125 27.15625  L 15.28125 0  z "
                   id="ArialMT-114" />
                <path
                   d="M 42.09375 16.703125  L 51.171875 15.578125  Q 49.03125 7.625 43.21875 3.21875  Q 37.40625 -1.171875 28.375 -1.171875  Q 17 -1.171875 10.328125 5.828125  Q 3.65625 12.84375 3.65625 25.484375  Q 3.65625 38.578125 10.390625 45.796875  Q 17.140625 53.03125 27.875 53.03125  Q 38.28125 53.03125 44.875 45.953125  Q 51.46875 38.875 51.46875 26.03125  Q 51.46875 25.25 51.421875 23.6875  L 12.75 23.6875  Q 13.234375 15.140625 17.578125 10.59375  Q 21.921875 6.0625 28.421875 6.0625  Q 33.25 6.0625 36.671875 8.59375  Q 40.09375 11.140625 42.09375 16.703125  z M 13.234375 30.90625  L 42.1875 30.90625  Q 41.609375 37.453125 38.875 40.71875  Q 34.671875 45.796875 27.984375 45.796875  Q 21.921875 45.796875 17.796875 41.75  Q 13.671875 37.703125 13.234375 30.90625  z "
                   id="ArialMT-101" />
                <path
                   d="M 3.171875 21.484375  L 3.171875 30.328125  L 30.171875 30.328125  L 30.171875 21.484375  z "
                   id="ArialMT-45" />
                <path
                   d="M 40.4375 19  L 49.078125 17.875  Q 47.65625 8.9375 41.8125 3.875  Q 35.984375 -1.171875 27.484375 -1.171875  Q 16.84375 -1.171875 10.375 5.78125  Q 3.90625 12.75 3.90625 25.734375  Q 3.90625 34.125 6.6875 40.421875  Q 9.46875 46.734375 15.15625 49.875  Q 20.84375 53.03125 27.546875 53.03125  Q 35.984375 53.03125 41.359375 48.75  Q 46.734375 44.484375 48.25 36.625  L 39.703125 35.296875  Q 38.484375 40.53125 35.375 43.15625  Q 32.28125 45.796875 27.875 45.796875  Q 21.234375 45.796875 17.078125 41.03125  Q 12.9375 36.28125 12.9375 25.984375  Q 12.9375 15.53125 16.9375 10.796875  Q 20.953125 6.0625 27.390625 6.0625  Q 32.5625 6.0625 36.03125 9.234375  Q 39.5 12.40625 40.4375 19  z "
                   id="ArialMT-99" />
                <path
                   d="M 40.4375 6.390625  Q 35.546875 2.25 31.03125 0.53125  Q 26.515625 -1.171875 21.34375 -1.171875  Q 12.796875 -1.171875 8.203125 3  Q 3.609375 7.171875 3.609375 13.671875  Q 3.609375 17.484375 5.34375 20.625  Q 7.078125 23.78125 9.890625 25.6875  Q 12.703125 27.59375 16.21875 28.5625  Q 18.796875 29.25 24.03125 29.890625  Q 34.671875 31.15625 39.703125 32.90625  Q 39.75 34.71875 39.75 35.203125  Q 39.75 40.578125 37.25 42.78125  Q 33.890625 45.75 27.25 45.75  Q 21.046875 45.75 18.09375 43.578125  Q 15.140625 41.40625 13.71875 35.890625  L 5.125 37.0625  Q 6.296875 42.578125 8.984375 45.96875  Q 11.671875 49.359375 16.75 51.1875  Q 21.828125 53.03125 28.515625 53.03125  Q 35.15625 53.03125 39.296875 51.46875  Q 43.453125 49.90625 45.40625 47.53125  Q 47.359375 45.171875 48.140625 41.546875  Q 48.578125 39.3125 48.578125 33.453125  L 48.578125 21.734375  Q 48.578125 9.46875 49.140625 6.21875  Q 49.703125 2.984375 51.375 0  L 42.1875 0  Q 40.828125 2.734375 40.4375 6.390625  z M 39.703125 26.03125  Q 34.90625 24.078125 25.34375 22.703125  Q 19.921875 21.921875 17.671875 20.9375  Q 15.4375 19.96875 14.203125 18.09375  Q 12.984375 16.21875 12.984375 13.921875  Q 12.984375 10.40625 15.640625 8.0625  Q 18.3125 5.71875 23.4375 5.71875  Q 28.515625 5.71875 32.46875 7.9375  Q 36.421875 10.15625 38.28125 14.015625  Q 39.703125 17 39.703125 22.796875  z "
                   id="ArialMT-97" />
                <path
                   d="M 25.78125 7.859375  L 27.046875 0.09375  Q 23.34375 -0.6875 20.40625 -0.6875  Q 15.625 -0.6875 12.984375 0.828125  Q 10.359375 2.34375 9.28125 4.8125  Q 8.203125 7.28125 8.203125 15.1875  L 8.203125 45.015625  L 1.765625 45.015625  L 1.765625 51.859375  L 8.203125 51.859375  L 8.203125 64.703125  L 16.9375 69.96875  L 16.9375 51.859375  L 25.78125 51.859375  L 25.78125 45.015625  L 16.9375 45.015625  L 16.9375 14.703125  Q 16.9375 10.9375 17.40625 9.859375  Q 17.875 8.796875 18.921875 8.15625  Q 19.96875 7.515625 21.921875 7.515625  Q 23.390625 7.515625 25.78125 7.859375  z "
                   id="ArialMT-116" />
                <path
                   d="M 6.59375 0  L 6.59375 71.578125  L 15.375 71.578125  L 15.375 45.90625  Q 21.53125 53.03125 30.90625 53.03125  Q 36.671875 53.03125 40.921875 50.75  Q 45.171875 48.484375 47 44.484375  Q 48.828125 40.484375 48.828125 32.859375  L 48.828125 0  L 40.046875 0  L 40.046875 32.859375  Q 40.046875 39.453125 37.1875 42.453125  Q 34.328125 45.453125 29.109375 45.453125  Q 25.203125 45.453125 21.75 43.421875  Q 18.3125 41.40625 16.84375 37.9375  Q 15.375 34.46875 15.375 28.375  L 15.375 0  z "
                   id="ArialMT-104" />
              </defs>
              <use
                 xlink:href="#ArialMT-112"
                 id="use33" />
              <use
                 x="55.615234"
                 xlink:href="#ArialMT-114"
                 id="use35" />
              <use
                 x="88.916016"
                 xlink:href="#ArialMT-101"
                 id="use37" />
              <use
                 x="144.53125"
                 xlink:href="#ArialMT-45"
                 id="use39" />
              <use
                 x="177.832031"
                 xlink:href="#ArialMT-99"
                 id="use41" />
              <use
                 x="227.832031"
                 xlink:href="#ArialMT-97"
                 id="use43" />
              <use
                 x="283.447266"
                 xlink:href="#ArialMT-116"
                 id="use45" />
              <use
                 x="311.230469"
                 xlink:href="#ArialMT-99"
                 id="use47" />
              <use
                 x="361.230469"
                 xlink:href="#ArialMT-104"
                 id="use49" />
            </g>
          </g>
        </g>
        <g
           id="xtick_2">
          <g
             id="text_2">
            <!-- catch -->
            <g
               style="fill:#262626;"
               transform="translate(183.6825 213.310391)scale(0.165 -0.165)"
               id="g53">
              <use
                 xlink:href="#ArialMT-99"
                 id="use55" />
              <use
                 x="50"
                 xlink:href="#ArialMT-97"
                 id="use57" />
              <use
                 x="105.615234"
                 xlink:href="#ArialMT-116"
                 id="use59" />
              <use
                 x="133.398438"
                 xlink:href="#ArialMT-99"
                 id="use61" />
              <use
                 x="183.398438"
                 xlink:href="#ArialMT-104"
                 id="use63" />
            </g>
          </g>
        </g>
        <g
           id="g66"
           transform="matrix(0.18,0,0,-0.18,130.43953,233.47383)"
           style="fill:#262626;stroke-linecap:butt;stroke-linejoin:round">
          <defs
             id="defs68">
            <path
               style="stroke-linecap:butt;stroke-linejoin:round"
               inkscape:connector-curvature="0"
               id="ArialMT-84"
               d="m 25.921875,0 0,63.140625 -23.578125,0 0,8.4375 56.734375,0 0,-8.4375 -23.671875,0 0,-63.140625 z" />
            <path
               style="stroke-linecap:butt;stroke-linejoin:round"
               inkscape:connector-curvature="0"
               id="ArialMT-105"
               d="m 6.640625,61.46875 0,10.109375 8.796875,0 0,-10.109375 z m 0,-61.46875 0,51.859375 8.796875,0 L 15.4375,0 Z" />
            <path
               style="stroke-linecap:butt;stroke-linejoin:round"
               inkscape:connector-curvature="0"
               id="ArialMT-108"
               d="m 6.390625,0 0,71.578125 8.796875,0 L 15.1875,0 Z" />
          </defs>
          <use
             height="100%"
             width="100%"
             y="0"
             style="stroke-linecap:butt;stroke-linejoin:round"
             id="use75"
             xlink:href="#ArialMT-114"
             x="57.333984" />
          <use
             height="100%"
             width="100%"
             y="0"
             style="stroke-linecap:butt;stroke-linejoin:round"
             id="use77"
             xlink:href="#ArialMT-105"
             x="90.634766" />
          <use
             height="100%"
             width="100%"
             y="0"
             style="stroke-linecap:butt;stroke-linejoin:round"
             id="use79"
             xlink:href="#ArialMT-97"
             x="112.85156" />
          <use
             height="100%"
             width="100%"
             y="0"
             style="stroke-linecap:butt;stroke-linejoin:round"
             id="use81"
             xlink:href="#ArialMT-108"
             x="168.4668" />
        </g>
      </g>
      <g
         id="matplotlib.axis_2"
         inkscape:export-xdpi="400"
         inkscape:export-ydpi="400">
        <g
           id="ytick_1">
          <g
             id="text_4">
            <!-- 0 -->
            <g
               style="fill:#262626;"
               transform="translate(14.324453 194.905195)scale(0.165 -0.165)"
               id="g86">
              <defs
                 id="defs88">
                <path
                   d="M 4.15625 35.296875  Q 4.15625 48 6.765625 55.734375  Q 9.375 63.484375 14.515625 67.671875  Q 19.671875 71.875 27.484375 71.875  Q 33.25 71.875 37.59375 69.546875  Q 41.9375 67.234375 44.765625 62.859375  Q 47.609375 58.5 49.21875 52.21875  Q 50.828125 45.953125 50.828125 35.296875  Q 50.828125 22.703125 48.234375 14.96875  Q 45.65625 7.234375 40.5 3  Q 35.359375 -1.21875 27.484375 -1.21875  Q 17.140625 -1.21875 11.234375 6.203125  Q 4.15625 15.140625 4.15625 35.296875  z M 13.1875 35.296875  Q 13.1875 17.671875 17.3125 11.828125  Q 21.4375 6 27.484375 6  Q 33.546875 6 37.671875 11.859375  Q 41.796875 17.71875 41.796875 35.296875  Q 41.796875 52.984375 37.671875 58.78125  Q 33.546875 64.59375 27.390625 64.59375  Q 21.34375 64.59375 17.71875 59.46875  Q 13.1875 52.9375 13.1875 35.296875  z "
                   id="ArialMT-48" />
              </defs>
              <use
                 xlink:href="#ArialMT-48"
                 id="use91" />
            </g>
          </g>
        </g>
        <g
           id="ytick_2">
          <g
             id="text_5">
            <!-- 2 -->
            <g
               style="fill:#262626;"
               transform="translate(14.324453 154.135195)scale(0.165 -0.165)"
               id="g95">
              <defs
                 id="defs97">
                <path
                   d="M 50.34375 8.453125  L 50.34375 0  L 3.03125 0  Q 2.9375 3.171875 4.046875 6.109375  Q 5.859375 10.9375 9.828125 15.625  Q 13.8125 20.3125 21.34375 26.46875  Q 33.015625 36.03125 37.109375 41.625  Q 41.21875 47.21875 41.21875 52.203125  Q 41.21875 57.421875 37.46875 61  Q 33.734375 64.59375 27.734375 64.59375  Q 21.390625 64.59375 17.578125 60.78125  Q 13.765625 56.984375 13.71875 50.25  L 4.6875 51.171875  Q 5.609375 61.28125 11.65625 66.578125  Q 17.71875 71.875 27.9375 71.875  Q 38.234375 71.875 44.234375 66.15625  Q 50.25 60.453125 50.25 52  Q 50.25 47.703125 48.484375 43.546875  Q 46.734375 39.40625 42.65625 34.8125  Q 38.578125 30.21875 29.109375 22.21875  Q 21.1875 15.578125 18.9375 13.203125  Q 16.703125 10.84375 15.234375 8.453125  z "
                   id="ArialMT-50" />
              </defs>
              <use
                 xlink:href="#ArialMT-50"
                 id="use100" />
            </g>
          </g>
        </g>
        <g
           id="ytick_3">
          <g
             id="text_6">
            <!-- 4 -->
            <g
               style="fill:#262626;"
               transform="translate(14.324453 113.365195)scale(0.165 -0.165)"
               id="g104">
              <defs
                 id="defs106">
                <path
                   d="M 32.328125 0  L 32.328125 17.140625  L 1.265625 17.140625  L 1.265625 25.203125  L 33.9375 71.578125  L 41.109375 71.578125  L 41.109375 25.203125  L 50.78125 25.203125  L 50.78125 17.140625  L 41.109375 17.140625  L 41.109375 0  z M 32.328125 25.203125  L 32.328125 57.46875  L 9.90625 25.203125  z "
                   id="ArialMT-52" />
              </defs>
              <use
                 xlink:href="#ArialMT-52"
                 id="use109" />
            </g>
          </g>
        </g>
        <g
           id="ytick_4">
          <g
             id="text_7">
            <!-- 6 -->
            <g
               style="fill:#262626;"
               transform="translate(14.324453 72.595195)scale(0.165 -0.165)"
               id="g113">
              <defs
                 id="defs115">
                <path
                   d="M 49.75 54.046875  L 41.015625 53.375  Q 39.84375 58.546875 37.703125 60.890625  Q 34.125 64.65625 28.90625 64.65625  Q 24.703125 64.65625 21.53125 62.3125  Q 17.390625 59.28125 14.984375 53.46875  Q 12.59375 47.65625 12.5 36.921875  Q 15.671875 41.75 20.265625 44.09375  Q 24.859375 46.4375 29.890625 46.4375  Q 38.671875 46.4375 44.84375 39.96875  Q 51.03125 33.5 51.03125 23.25  Q 51.03125 16.5 48.125 10.71875  Q 45.21875 4.9375 40.140625 1.859375  Q 35.0625 -1.21875 28.609375 -1.21875  Q 17.625 -1.21875 10.6875 6.859375  Q 3.765625 14.9375 3.765625 33.5  Q 3.765625 54.25 11.421875 63.671875  Q 18.109375 71.875 29.4375 71.875  Q 37.890625 71.875 43.28125 67.140625  Q 48.6875 62.40625 49.75 54.046875  z M 13.875 23.1875  Q 13.875 18.65625 15.796875 14.5  Q 17.71875 10.359375 21.1875 8.171875  Q 24.65625 6 28.46875 6  Q 34.03125 6 38.03125 10.484375  Q 42.046875 14.984375 42.046875 22.703125  Q 42.046875 30.125 38.078125 34.390625  Q 34.125 38.671875 28.125 38.671875  Q 22.171875 38.671875 18.015625 34.390625  Q 13.875 30.125 13.875 23.1875  z "
                   id="ArialMT-54" />
              </defs>
              <use
                 xlink:href="#ArialMT-54"
                 id="use118" />
            </g>
          </g>
        </g>
        <g
           id="ytick_5">
          <g
             id="text_8">
            <!-- 8 -->
            <g
               style="fill:#262626;"
               transform="translate(14.324453 31.825195)scale(0.165 -0.165)"
               id="g122">
              <defs
                 id="defs124">
                <path
                   d="M 17.671875 38.8125  Q 12.203125 40.828125 9.5625 44.53125  Q 6.9375 48.25 6.9375 53.421875  Q 6.9375 61.234375 12.546875 66.546875  Q 18.171875 71.875 27.484375 71.875  Q 36.859375 71.875 42.578125 66.421875  Q 48.296875 60.984375 48.296875 53.171875  Q 48.296875 48.1875 45.671875 44.5  Q 43.0625 40.828125 37.75 38.8125  Q 44.34375 36.671875 47.78125 31.875  Q 51.21875 27.09375 51.21875 20.453125  Q 51.21875 11.28125 44.71875 5.03125  Q 38.234375 -1.21875 27.640625 -1.21875  Q 17.046875 -1.21875 10.546875 5.046875  Q 4.046875 11.328125 4.046875 20.703125  Q 4.046875 27.6875 7.59375 32.390625  Q 11.140625 37.109375 17.671875 38.8125  z M 15.921875 53.71875  Q 15.921875 48.640625 19.1875 45.40625  Q 22.46875 42.1875 27.6875 42.1875  Q 32.765625 42.1875 36.015625 45.375  Q 39.265625 48.578125 39.265625 53.21875  Q 39.265625 58.0625 35.90625 61.359375  Q 32.5625 64.65625 27.59375 64.65625  Q 22.5625 64.65625 19.234375 61.421875  Q 15.921875 58.203125 15.921875 53.71875  z M 13.09375 20.65625  Q 13.09375 16.890625 14.875 13.375  Q 16.65625 9.859375 20.171875 7.921875  Q 23.6875 6 27.734375 6  Q 34.03125 6 38.125 10.046875  Q 42.234375 14.109375 42.234375 20.359375  Q 42.234375 26.703125 38.015625 30.859375  Q 33.796875 35.015625 27.4375 35.015625  Q 21.234375 35.015625 17.15625 30.90625  Q 13.09375 26.8125 13.09375 20.65625  z "
                   id="ArialMT-56" />
              </defs>
              <use
                 xlink:href="#ArialMT-56"
                 id="use127" />
            </g>
          </g>
        </g>
        <g
           id="text_9">
          <!-- Latency to choice (s) -->
          <g
             style="fill:#262626;"
             transform="translate(6.536016 190.493437)rotate(-90)scale(0.18 -0.18)"
             id="g130">
            <defs
               id="defs132">
              <path
                 d="M 7.328125 0  L 7.328125 71.578125  L 16.796875 71.578125  L 16.796875 8.453125  L 52.046875 8.453125  L 52.046875 0  z "
                 id="ArialMT-76" />
              <path
                 d="M 6.59375 0  L 6.59375 51.859375  L 14.5 51.859375  L 14.5 44.484375  Q 20.21875 53.03125 31 53.03125  Q 35.6875 53.03125 39.625 51.34375  Q 43.5625 49.65625 45.515625 46.921875  Q 47.46875 44.1875 48.25 40.4375  Q 48.734375 37.984375 48.734375 31.890625  L 48.734375 0  L 39.9375 0  L 39.9375 31.546875  Q 39.9375 36.921875 38.90625 39.578125  Q 37.890625 42.234375 35.28125 43.8125  Q 32.671875 45.40625 29.15625 45.40625  Q 23.53125 45.40625 19.453125 41.84375  Q 15.375 38.28125 15.375 28.328125  L 15.375 0  z "
                 id="ArialMT-110" />
              <path
                 d="M 6.203125 -19.96875  L 5.21875 -11.71875  Q 8.109375 -12.5 10.25 -12.5  Q 13.1875 -12.5 14.9375 -11.515625  Q 16.703125 -10.546875 17.828125 -8.796875  Q 18.65625 -7.46875 20.515625 -2.25  Q 20.75 -1.515625 21.296875 -0.09375  L 1.609375 51.859375  L 11.078125 51.859375  L 21.875 21.828125  Q 23.96875 16.109375 25.640625 9.8125  Q 27.15625 15.875 29.25 21.625  L 40.328125 51.859375  L 49.125 51.859375  L 29.390625 -0.875  Q 26.21875 -9.421875 24.46875 -12.640625  Q 22.125 -17 19.09375 -19.015625  Q 16.0625 -21.046875 11.859375 -21.046875  Q 9.328125 -21.046875 6.203125 -19.96875  z "
                 id="ArialMT-121" />
              <path
                 id="ArialMT-32" />
              <path
                 d="M 3.328125 25.921875  Q 3.328125 40.328125 11.328125 47.265625  Q 18.015625 53.03125 27.640625 53.03125  Q 38.328125 53.03125 45.109375 46.015625  Q 51.90625 39.015625 51.90625 26.65625  Q 51.90625 16.65625 48.90625 10.90625  Q 45.90625 5.171875 40.15625 2  Q 34.421875 -1.171875 27.640625 -1.171875  Q 16.75 -1.171875 10.03125 5.8125  Q 3.328125 12.796875 3.328125 25.921875  z M 12.359375 25.921875  Q 12.359375 15.96875 16.703125 11.015625  Q 21.046875 6.0625 27.640625 6.0625  Q 34.1875 6.0625 38.53125 11.03125  Q 42.875 16.015625 42.875 26.21875  Q 42.875 35.84375 38.5 40.796875  Q 34.125 45.75 27.640625 45.75  Q 21.046875 45.75 16.703125 40.8125  Q 12.359375 35.890625 12.359375 25.921875  z "
                 id="ArialMT-111" />
              <path
                 d="M 23.390625 -21.046875  Q 16.109375 -11.859375 11.078125 0.4375  Q 6.0625 12.75 6.0625 25.921875  Q 6.0625 37.546875 9.8125 48.1875  Q 14.203125 60.546875 23.390625 72.796875  L 29.6875 72.796875  Q 23.78125 62.640625 21.875 58.296875  Q 18.890625 51.5625 17.1875 44.234375  Q 15.09375 35.109375 15.09375 25.875  Q 15.09375 2.390625 29.6875 -21.046875  z "
                 id="ArialMT-40" />
              <path
                 d="M 3.078125 15.484375  L 11.765625 16.84375  Q 12.5 11.625 15.84375 8.84375  Q 19.1875 6.0625 25.203125 6.0625  Q 31.25 6.0625 34.171875 8.515625  Q 37.109375 10.984375 37.109375 14.3125  Q 37.109375 17.28125 34.515625 19  Q 32.71875 20.171875 25.53125 21.96875  Q 15.875 24.421875 12.140625 26.203125  Q 8.40625 27.984375 6.46875 31.125  Q 4.546875 34.28125 4.546875 38.09375  Q 4.546875 41.546875 6.125 44.5  Q 7.71875 47.46875 10.453125 49.421875  Q 12.5 50.921875 16.03125 51.96875  Q 19.578125 53.03125 23.640625 53.03125  Q 29.734375 53.03125 34.34375 51.265625  Q 38.96875 49.515625 41.15625 46.5  Q 43.359375 43.5 44.1875 38.484375  L 35.59375 37.3125  Q 35.015625 41.3125 32.203125 43.546875  Q 29.390625 45.796875 24.265625 45.796875  Q 18.21875 45.796875 15.625 43.796875  Q 13.03125 41.796875 13.03125 39.109375  Q 13.03125 37.40625 14.109375 36.03125  Q 15.1875 34.625 17.484375 33.6875  Q 18.796875 33.203125 25.25 31.453125  Q 34.578125 28.953125 38.25 27.359375  Q 41.9375 25.78125 44.03125 22.75  Q 46.140625 19.734375 46.140625 15.234375  Q 46.140625 10.84375 43.578125 6.953125  Q 41.015625 3.078125 36.171875 0.953125  Q 31.34375 -1.171875 25.25 -1.171875  Q 15.140625 -1.171875 9.84375 3.03125  Q 4.546875 7.234375 3.078125 15.484375  z "
                 id="ArialMT-115" />
              <path
                 d="M 12.359375 -21.046875  L 6.0625 -21.046875  Q 20.65625 2.390625 20.65625 25.875  Q 20.65625 35.0625 18.5625 44.09375  Q 16.890625 51.421875 13.921875 58.15625  Q 12.015625 62.546875 6.0625 72.796875  L 12.359375 72.796875  Q 21.53125 60.546875 25.921875 48.1875  Q 29.6875 37.546875 29.6875 25.921875  Q 29.6875 12.75 24.625 0.4375  Q 19.578125 -11.859375 12.359375 -21.046875  z "
                 id="ArialMT-41" />
            </defs>
            <use
               xlink:href="#ArialMT-76"
               id="use142" />
            <use
               x="55.615234"
               xlink:href="#ArialMT-97"
               id="use144" />
            <use
               x="111.230469"
               xlink:href="#ArialMT-116"
               id="use146" />
            <use
               x="139.013672"
               xlink:href="#ArialMT-101"
               id="use148" />
            <use
               x="194.628906"
               xlink:href="#ArialMT-110"
               id="use150" />
            <use
               x="250.244141"
               xlink:href="#ArialMT-99"
               id="use152" />
            <use
               x="300.244141"
               xlink:href="#ArialMT-121"
               id="use154" />
            <use
               x="350.244141"
               xlink:href="#ArialMT-32"
               id="use156" />
            <use
               x="378.027344"
               xlink:href="#ArialMT-116"
               id="use158" />
            <use
               x="405.810547"
               xlink:href="#ArialMT-111"
               id="use160" />
            <use
               x="461.425781"
               xlink:href="#ArialMT-32"
               id="use162" />
            <use
               x="489.208984"
               xlink:href="#ArialMT-99"
               id="use164" />
            <use
               x="539.208984"
               xlink:href="#ArialMT-104"
               id="use166" />
            <use
               x="594.824219"
               xlink:href="#ArialMT-111"
               id="use168" />
            <use
               x="650.439453"
               xlink:href="#ArialMT-105"
               id="use170" />
            <use
               x="672.65625"
               xlink:href="#ArialMT-99"
               id="use172" />
            <use
               x="722.65625"
               xlink:href="#ArialMT-101"
               id="use174" />
            <use
               x="778.271484"
               xlink:href="#ArialMT-32"
               id="use176" />
            <use
               x="806.054688"
               xlink:href="#ArialMT-40"
               id="use178" />
            <use
               x="839.355469"
               xlink:href="#ArialMT-115"
               id="use180" />
            <use
               x="889.355469"
               xlink:href="#ArialMT-41"
               id="use182" />
          </g>
        </g>
      </g>
      <g
         id="patch_3"
         inkscape:export-xdpi="400"
         inkscape:export-ydpi="400">
        <path
           clip-path="url(#pee14a00c72)"
           d="M 47.16 166.9842  L 136.44 166.9842  L 136.44 139.923113  L 47.16 139.923113  L 47.16 166.9842  z "
           style="fill:none;stroke:#000000;stroke-linejoin:miter;stroke-width:1.5;"
           id="path185" />
      </g>
      <g
         id="patch_4"
         inkscape:export-xdpi="400"
         inkscape:export-ydpi="400">
        <path
           clip-path="url(#pee14a00c72)"
           d="M 158.76 141.604875  L 248.04 141.604875  L 248.04 83.4057  L 158.76 83.4057  L 158.76 141.604875  z "
           style="fill:none;stroke:#000000;stroke-linejoin:miter;stroke-width:1.5;"
           id="path188" />
      </g>
      <g
         id="line2d_1"
         inkscape:export-xdpi="400"
         inkscape:export-ydpi="400">
        <path
           clip-path="url(#pee14a00c72)"
           d="M 91.8 166.9842  L 91.8 174.93435  "
           style="fill:none;stroke:#000000;stroke-linecap:round;stroke-width:1.5;"
           id="path191" />
      </g>
      <g
         id="line2d_2"
         inkscape:export-xdpi="400"
         inkscape:export-ydpi="400">
        <path
           clip-path="url(#pee14a00c72)"
           d="M 91.8 139.923113  L 91.8 107.25615  "
           style="fill:none;stroke:#000000;stroke-linecap:round;stroke-width:1.5;"
           id="path194" />
      </g>
      <g
         id="line2d_3"
         inkscape:export-xdpi="400"
         inkscape:export-ydpi="400">
        <path
           clip-path="url(#pee14a00c72)"
           d="M 69.48 174.93435  L 114.12 174.93435  "
           style="fill:none;stroke:#000000;stroke-linecap:round;stroke-width:1.5;"
           id="path197" />
      </g>
      <g
         id="line2d_4"
         inkscape:export-xdpi="400"
         inkscape:export-ydpi="400">
        <path
           clip-path="url(#pee14a00c72)"
           d="M 69.48 107.25615  L 114.12 107.25615  "
           style="fill:none;stroke:#000000;stroke-linecap:round;stroke-width:1.5;"
           id="path200" />
      </g>
      <g
         id="line2d_5" />
      <g
         id="line2d_6"
         inkscape:export-xdpi="400"
         inkscape:export-ydpi="400">
        <path
           clip-path="url(#pee14a00c72)"
           d="M 203.4 141.604875  L 203.4 163.51875  "
           style="fill:none;stroke:#000000;stroke-linecap:round;stroke-width:1.5;"
           id="path204" />
      </g>
      <g
         id="line2d_7"
         inkscape:export-xdpi="400"
         inkscape:export-ydpi="400">
        <path
           clip-path="url(#pee14a00c72)"
           d="M 203.4 83.4057  L 203.4 40.39335  "
           style="fill:none;stroke:#000000;stroke-linecap:round;stroke-width:1.5;"
           id="path207" />
      </g>
      <g
         id="line2d_8"
         inkscape:export-xdpi="400"
         inkscape:export-ydpi="400">
        <path
           clip-path="url(#pee14a00c72)"
           d="M 181.08 163.51875  L 225.72 163.51875  "
           style="fill:none;stroke:#000000;stroke-linecap:round;stroke-width:1.5;"
           id="path210" />
      </g>
      <g
         id="line2d_9"
         inkscape:export-xdpi="400"
         inkscape:export-ydpi="400">
        <path
           clip-path="url(#pee14a00c72)"
           d="M 181.08 40.39335  L 225.72 40.39335  "
           style="fill:none;stroke:#000000;stroke-linecap:round;stroke-width:1.5;"
           id="path213" />
      </g>
      <g
         id="line2d_10" />
      <g
         id="line2d_11"
         inkscape:export-xdpi="400"
         inkscape:export-ydpi="400">
        <path
           clip-path="url(#pee14a00c72)"
           d="M 47.16 164.74185  L 136.44 164.74185  "
           style="fill:none;stroke:#000000;stroke-linecap:round;stroke-width:1.5;"
           id="path217" />
      </g>
      <g
         id="line2d_12"
         inkscape:export-xdpi="400"
         inkscape:export-ydpi="400">
        <path
           clip-path="url(#pee14a00c72)"
           d="M 158.76 122.239125  L 248.04 122.239125  "
           style="fill:none;stroke:#000000;stroke-linecap:round;stroke-width:1.5;"
           id="path220" />
      </g>
      <g
         id="patch_5"
         inkscape:export-xdpi="400"
         inkscape:export-ydpi="400">
        <path
           d="M 36 189  L 36 25.92  "
           style="fill:none;stroke:#262626;stroke-linecap:square;stroke-linejoin:miter;stroke-width:1.875;"
           id="path223" />
      </g>
      <g
         id="patch_6"
         inkscape:export-xdpi="400"
         inkscape:export-ydpi="400">
        <path
           d="M 36 189  L 259.2 189  "
           style="fill:none;stroke:#262626;stroke-linecap:square;stroke-linejoin:miter;stroke-width:1.875;"
           id="path226" />
      </g>
      <use
         transform="matrix(0.18,0,0,-0.18,134.92382,233.21837)"
         style="fill:#262626;stroke-linecap:butt;stroke-linejoin:round"
         xlink:href="#ArialMT-116"
         id="use4954"
         x="0"
         y="0"
         width="100%"
         height="100%" />
    </g>
  </g>
  <defs
     id="defs228">
    <clipPath
       id="pee14a00c72">
      <rect
         height="163.08"
         width="223.2"
         x="36"
         y="25.92"
         id="rect231" />
    </clipPath>
  </defs>
  <path
     style="fill:none;fill-rule:evenodd;stroke:#000000;stroke-width:1.60000002;stroke-linecap:butt;stroke-linejoin:miter;stroke-miterlimit:4;stroke-dasharray:none;stroke-opacity:1"
     d="M 91.899912,96.091488 91.738118,26.519374 203.49317,26.357577 203.48154,32.50581"
     id="path4361"
     inkscape:connector-curvature="0"
     sodipodi:nodetypes="cccc"
     inkscape:export-xdpi="400"
     inkscape:export-ydpi="400" />
  <text
     xml:space="preserve"
     style="font-style:normal;font-variant:normal;font-weight:normal;font-stretch:normal;font-size:4px;line-height:125%;font-family:sans-serif;-inkscape-font-specification:'sans-serif, Normal';text-align:center;letter-spacing:0px;word-spacing:0px;writing-mode:lr-tb;text-anchor:middle;fill:#000000;fill-opacity:1;stroke:none;stroke-width:1px;stroke-linecap:butt;stroke-linejoin:miter;stroke-opacity:1"
     x="149.07202"
     y="27.116102"
     id="text4363"
     sodipodi:linespacing="125%"
     inkscape:export-xdpi="400"
     inkscape:export-ydpi="400"><tspan
       sodipodi:role="line"
       id="tspan4365"
       style="font-style:normal;font-variant:normal;font-weight:bold;font-stretch:normal;font-size:14px;font-family:sans-serif;-inkscape-font-specification:'sans-serif Bold';stroke-linecap:butt;stroke-linejoin:round"
       x="149.07202"
       y="27.116102">*</tspan></text>
</svg>
