<?xml version="1.0" encoding="UTF-8" standalone="no"?>
<!-- Created with matplotlib (https://matplotlib.org/) -->

<svg
   xmlns:dc="http://purl.org/dc/elements/1.1/"
   xmlns:cc="http://creativecommons.org/ns#"
   xmlns:rdf="http://www.w3.org/1999/02/22-rdf-syntax-ns#"
   xmlns:svg="http://www.w3.org/2000/svg"
   xmlns="http://www.w3.org/2000/svg"
   xmlns:xlink="http://www.w3.org/1999/xlink"
   xmlns:sodipodi="http://sodipodi.sourceforge.net/DTD/sodipodi-0.dtd"
   xmlns:inkscape="http://www.inkscape.org/namespaces/inkscape"
   height="216pt"
   version="1.1"
   viewBox="0 0 432 216"
   width="432pt"
   id="svg2"
   inkscape:version="0.91 r13725"
   sodipodi:docname="prop_non_match_location_across_catch_trials.svg">
  <sodipodi:namedview
     pagecolor="#ffffff"
     bordercolor="#666666"
     borderopacity="1"
     objecttolerance="10"
     gridtolerance="10"
     guidetolerance="10"
     inkscape:pageopacity="0"
     inkscape:pageshadow="2"
     inkscape:window-width="1536"
     inkscape:window-height="801"
     id="namedview203"
     showgrid="false"
     inkscape:zoom="0.66296296"
     inkscape:cx="270"
     inkscape:cy="135"
     inkscape:window-x="-8"
     inkscape:window-y="-8"
     inkscape:window-maximized="1"
     inkscape:current-layer="svg2" />
  <metadata
     id="metadata4">
    <rdf:RDF>
      <cc:Work>
        <dc:type
           rdf:resource="http://purl.org/dc/dcmitype/StillImage" />
        <dc:date>2021-09-02T15:07:16.842293</dc:date>
        <dc:format>image/svg+xml</dc:format>
        <dc:creator>
          <cc:Agent>
            <dc:title>Matplotlib v3.3.4, https://matplotlib.org/</dc:title>
          </cc:Agent>
        </dc:creator>
      </cc:Work>
    </rdf:RDF>
  </metadata>
  <defs
     id="defs6">
    <style
       type="text/css"
       id="style8">*{stroke-linecap:butt;stroke-linejoin:round;}</style>
  </defs>
  <g
     id="figure_1"
     inkscape:export-xdpi="400"
     inkscape:export-ydpi="400">
    <g
       id="patch_1">
      <path
         d="M 0 216  L 432 216  L 432 0  L 0 0  z "
         style="fill:#ffffff;"
         id="path12" />
    </g>
    <g
       id="axes_1">
      <g
         id="patch_2">
        <path
           d="M 54 189  L 388.8 189  L 388.8 25.92  L 54 25.92  z "
           style="fill:#ffffff;"
           id="path16" />
      </g>
      <g
         id="matplotlib.axis_1">
        <g
           id="xtick_1">
          <g
             id="text_1">
            <!-- 1 -->
            <g
               style="fill:#262626;"
               transform="translate(59.874727 213.310391)scale(0.165 -0.165)"
               id="g21">
              <defs
                 id="defs23">
                <path
                   d="M 37.25 0  L 28.46875 0  L 28.46875 56  Q 25.296875 52.984375 20.140625 49.953125  Q 14.984375 46.921875 10.890625 45.40625  L 10.890625 53.90625  Q 18.265625 57.375 23.78125 62.296875  Q 29.296875 67.234375 31.59375 71.875  L 37.25 71.875  z "
                   id="ArialMT-49" />
              </defs>
              <use
                 xlink:href="#ArialMT-49"
                 id="use26" />
            </g>
          </g>
        </g>
        <g
           id="xtick_2">
          <g
             id="text_2">
            <!-- 2 -->
            <g
               style="fill:#262626;"
               transform="translate(164.499727 213.310391)scale(0.165 -0.165)"
               id="g30">
              <defs
                 id="defs32">
                <path
                   d="M 50.34375 8.453125  L 50.34375 0  L 3.03125 0  Q 2.9375 3.171875 4.046875 6.109375  Q 5.859375 10.9375 9.828125 15.625  Q 13.8125 20.3125 21.34375 26.46875  Q 33.015625 36.03125 37.109375 41.625  Q 41.21875 47.21875 41.21875 52.203125  Q 41.21875 57.421875 37.46875 61  Q 33.734375 64.59375 27.734375 64.59375  Q 21.390625 64.59375 17.578125 60.78125  Q 13.765625 56.984375 13.71875 50.25  L 4.6875 51.171875  Q 5.609375 61.28125 11.65625 66.578125  Q 17.71875 71.875 27.9375 71.875  Q 38.234375 71.875 44.234375 66.15625  Q 50.25 60.453125 50.25 52  Q 50.25 47.703125 48.484375 43.546875  Q 46.734375 39.40625 42.65625 34.8125  Q 38.578125 30.21875 29.109375 22.21875  Q 21.1875 15.578125 18.9375 13.203125  Q 16.703125 10.84375 15.234375 8.453125  z "
                   id="ArialMT-50" />
              </defs>
              <use
                 xlink:href="#ArialMT-50"
                 id="use35" />
            </g>
          </g>
        </g>
        <g
           id="xtick_3">
          <g
             id="text_3">
            <!-- 3 -->
            <g
               style="fill:#262626;"
               transform="translate(269.124727 213.310391)scale(0.165 -0.165)"
               id="g39">
              <defs
                 id="defs41">
                <path
                   d="M 4.203125 18.890625  L 12.984375 20.0625  Q 14.5 12.59375 18.140625 9.296875  Q 21.78125 6 27 6  Q 33.203125 6 37.46875 10.296875  Q 41.75 14.59375 41.75 20.953125  Q 41.75 27 37.796875 30.921875  Q 33.84375 34.859375 27.734375 34.859375  Q 25.25 34.859375 21.53125 33.890625  L 22.515625 41.609375  Q 23.390625 41.5 23.921875 41.5  Q 29.546875 41.5 34.03125 44.421875  Q 38.53125 47.359375 38.53125 53.46875  Q 38.53125 58.296875 35.25 61.46875  Q 31.984375 64.65625 26.8125 64.65625  Q 21.6875 64.65625 18.265625 61.421875  Q 14.84375 58.203125 13.875 51.765625  L 5.078125 53.328125  Q 6.6875 62.15625 12.390625 67.015625  Q 18.109375 71.875 26.609375 71.875  Q 32.46875 71.875 37.390625 69.359375  Q 42.328125 66.84375 44.9375 62.5  Q 47.5625 58.15625 47.5625 53.265625  Q 47.5625 48.640625 45.0625 44.828125  Q 42.578125 41.015625 37.703125 38.765625  Q 44.046875 37.3125 47.5625 32.6875  Q 51.078125 28.078125 51.078125 21.140625  Q 51.078125 11.765625 44.234375 5.25  Q 37.40625 -1.265625 26.953125 -1.265625  Q 17.53125 -1.265625 11.296875 4.34375  Q 5.078125 9.96875 4.203125 18.890625  z "
                   id="ArialMT-51" />
              </defs>
              <use
                 xlink:href="#ArialMT-51"
                 id="use44" />
            </g>
          </g>
        </g>
        <g
           id="xtick_4">
          <g
             id="text_4">
            <!-- 4 -->
            <g
               style="fill:#262626;"
               transform="translate(373.749727 213.310391)scale(0.165 -0.165)"
               id="g48">
              <defs
                 id="defs50">
                <path
                   d="M 32.328125 0  L 32.328125 17.140625  L 1.265625 17.140625  L 1.265625 25.203125  L 33.9375 71.578125  L 41.109375 71.578125  L 41.109375 25.203125  L 50.78125 25.203125  L 50.78125 17.140625  L 41.109375 17.140625  L 41.109375 0  z M 32.328125 25.203125  L 32.328125 57.46875  L 9.90625 25.203125  z "
                   id="ArialMT-52" />
              </defs>
              <use
                 xlink:href="#ArialMT-52"
                 id="use53" />
            </g>
          </g>
        </g>
        <g
           id="text_5">
          <!-- Catch trial -->
          <g
             style="fill:#262626;"
             transform="translate(180.88875 233.473828)scale(0.18 -0.18)"
             id="g56">
            <defs
               id="defs58">
              <path
                 d="M 58.796875 25.09375  L 68.265625 22.703125  Q 65.28125 11.03125 57.546875 4.90625  Q 49.8125 -1.21875 38.625 -1.21875  Q 27.046875 -1.21875 19.796875 3.484375  Q 12.546875 8.203125 8.765625 17.140625  Q 4.984375 26.078125 4.984375 36.328125  Q 4.984375 47.515625 9.25 55.828125  Q 13.53125 64.15625 21.40625 68.46875  Q 29.296875 72.796875 38.765625 72.796875  Q 49.515625 72.796875 56.828125 67.328125  Q 64.15625 61.859375 67.046875 51.953125  L 57.71875 49.75  Q 55.21875 57.5625 50.484375 61.125  Q 45.75 64.703125 38.578125 64.703125  Q 30.328125 64.703125 24.78125 60.734375  Q 19.234375 56.78125 16.984375 50.109375  Q 14.75 43.453125 14.75 36.375  Q 14.75 27.25 17.40625 20.4375  Q 20.0625 13.625 25.671875 10.25  Q 31.296875 6.890625 37.84375 6.890625  Q 45.796875 6.890625 51.3125 11.46875  Q 56.84375 16.0625 58.796875 25.09375  z "
                 id="ArialMT-67" />
              <path
                 d="M 40.4375 6.390625  Q 35.546875 2.25 31.03125 0.53125  Q 26.515625 -1.171875 21.34375 -1.171875  Q 12.796875 -1.171875 8.203125 3  Q 3.609375 7.171875 3.609375 13.671875  Q 3.609375 17.484375 5.34375 20.625  Q 7.078125 23.78125 9.890625 25.6875  Q 12.703125 27.59375 16.21875 28.5625  Q 18.796875 29.25 24.03125 29.890625  Q 34.671875 31.15625 39.703125 32.90625  Q 39.75 34.71875 39.75 35.203125  Q 39.75 40.578125 37.25 42.78125  Q 33.890625 45.75 27.25 45.75  Q 21.046875 45.75 18.09375 43.578125  Q 15.140625 41.40625 13.71875 35.890625  L 5.125 37.0625  Q 6.296875 42.578125 8.984375 45.96875  Q 11.671875 49.359375 16.75 51.1875  Q 21.828125 53.03125 28.515625 53.03125  Q 35.15625 53.03125 39.296875 51.46875  Q 43.453125 49.90625 45.40625 47.53125  Q 47.359375 45.171875 48.140625 41.546875  Q 48.578125 39.3125 48.578125 33.453125  L 48.578125 21.734375  Q 48.578125 9.46875 49.140625 6.21875  Q 49.703125 2.984375 51.375 0  L 42.1875 0  Q 40.828125 2.734375 40.4375 6.390625  z M 39.703125 26.03125  Q 34.90625 24.078125 25.34375 22.703125  Q 19.921875 21.921875 17.671875 20.9375  Q 15.4375 19.96875 14.203125 18.09375  Q 12.984375 16.21875 12.984375 13.921875  Q 12.984375 10.40625 15.640625 8.0625  Q 18.3125 5.71875 23.4375 5.71875  Q 28.515625 5.71875 32.46875 7.9375  Q 36.421875 10.15625 38.28125 14.015625  Q 39.703125 17 39.703125 22.796875  z "
                 id="ArialMT-97" />
              <path
                 d="M 25.78125 7.859375  L 27.046875 0.09375  Q 23.34375 -0.6875 20.40625 -0.6875  Q 15.625 -0.6875 12.984375 0.828125  Q 10.359375 2.34375 9.28125 4.8125  Q 8.203125 7.28125 8.203125 15.1875  L 8.203125 45.015625  L 1.765625 45.015625  L 1.765625 51.859375  L 8.203125 51.859375  L 8.203125 64.703125  L 16.9375 69.96875  L 16.9375 51.859375  L 25.78125 51.859375  L 25.78125 45.015625  L 16.9375 45.015625  L 16.9375 14.703125  Q 16.9375 10.9375 17.40625 9.859375  Q 17.875 8.796875 18.921875 8.15625  Q 19.96875 7.515625 21.921875 7.515625  Q 23.390625 7.515625 25.78125 7.859375  z "
                 id="ArialMT-116" />
              <path
                 d="M 40.4375 19  L 49.078125 17.875  Q 47.65625 8.9375 41.8125 3.875  Q 35.984375 -1.171875 27.484375 -1.171875  Q 16.84375 -1.171875 10.375 5.78125  Q 3.90625 12.75 3.90625 25.734375  Q 3.90625 34.125 6.6875 40.421875  Q 9.46875 46.734375 15.15625 49.875  Q 20.84375 53.03125 27.546875 53.03125  Q 35.984375 53.03125 41.359375 48.75  Q 46.734375 44.484375 48.25 36.625  L 39.703125 35.296875  Q 38.484375 40.53125 35.375 43.15625  Q 32.28125 45.796875 27.875 45.796875  Q 21.234375 45.796875 17.078125 41.03125  Q 12.9375 36.28125 12.9375 25.984375  Q 12.9375 15.53125 16.9375 10.796875  Q 20.953125 6.0625 27.390625 6.0625  Q 32.5625 6.0625 36.03125 9.234375  Q 39.5 12.40625 40.4375 19  z "
                 id="ArialMT-99" />
              <path
                 d="M 6.59375 0  L 6.59375 71.578125  L 15.375 71.578125  L 15.375 45.90625  Q 21.53125 53.03125 30.90625 53.03125  Q 36.671875 53.03125 40.921875 50.75  Q 45.171875 48.484375 47 44.484375  Q 48.828125 40.484375 48.828125 32.859375  L 48.828125 0  L 40.046875 0  L 40.046875 32.859375  Q 40.046875 39.453125 37.1875 42.453125  Q 34.328125 45.453125 29.109375 45.453125  Q 25.203125 45.453125 21.75 43.421875  Q 18.3125 41.40625 16.84375 37.9375  Q 15.375 34.46875 15.375 28.375  L 15.375 0  z "
                 id="ArialMT-104" />
              <path
                 id="ArialMT-32" />
              <path
                 d="M 6.5 0  L 6.5 51.859375  L 14.40625 51.859375  L 14.40625 44  Q 17.4375 49.515625 20 51.265625  Q 22.5625 53.03125 25.640625 53.03125  Q 30.078125 53.03125 34.671875 50.203125  L 31.640625 42.046875  Q 28.421875 43.953125 25.203125 43.953125  Q 22.3125 43.953125 20.015625 42.21875  Q 17.71875 40.484375 16.75 37.40625  Q 15.28125 32.71875 15.28125 27.15625  L 15.28125 0  z "
                 id="ArialMT-114" />
              <path
                 d="M 6.640625 61.46875  L 6.640625 71.578125  L 15.4375 71.578125  L 15.4375 61.46875  z M 6.640625 0  L 6.640625 51.859375  L 15.4375 51.859375  L 15.4375 0  z "
                 id="ArialMT-105" />
              <path
                 d="M 6.390625 0  L 6.390625 71.578125  L 15.1875 71.578125  L 15.1875 0  z "
                 id="ArialMT-108" />
            </defs>
            <use
               xlink:href="#ArialMT-67"
               id="use69" />
            <use
               x="72.216797"
               xlink:href="#ArialMT-97"
               id="use71" />
            <use
               x="127.832031"
               xlink:href="#ArialMT-116"
               id="use73" />
            <use
               x="155.615234"
               xlink:href="#ArialMT-99"
               id="use75" />
            <use
               x="205.615234"
               xlink:href="#ArialMT-104"
               id="use77" />
            <use
               x="261.230469"
               xlink:href="#ArialMT-32"
               id="use79" />
            <use
               x="289.013672"
               xlink:href="#ArialMT-116"
               id="use81" />
            <use
               x="316.796875"
               xlink:href="#ArialMT-114"
               id="use83" />
            <use
               x="350.097656"
               xlink:href="#ArialMT-105"
               id="use85" />
            <use
               x="372.314453"
               xlink:href="#ArialMT-97"
               id="use87" />
            <use
               x="427.929688"
               xlink:href="#ArialMT-108"
               id="use89" />
          </g>
        </g>
      </g>
      <g
         id="matplotlib.axis_2">
        <g
           id="ytick_1">
          <g
             id="text_6">
            <!-- 0 -->
            <g
               style="fill:#262626;"
               transform="translate(32.324453 194.905195)scale(0.165 -0.165)"
               id="g94">
              <defs
                 id="defs96">
                <path
                   d="M 4.15625 35.296875  Q 4.15625 48 6.765625 55.734375  Q 9.375 63.484375 14.515625 67.671875  Q 19.671875 71.875 27.484375 71.875  Q 33.25 71.875 37.59375 69.546875  Q 41.9375 67.234375 44.765625 62.859375  Q 47.609375 58.5 49.21875 52.21875  Q 50.828125 45.953125 50.828125 35.296875  Q 50.828125 22.703125 48.234375 14.96875  Q 45.65625 7.234375 40.5 3  Q 35.359375 -1.21875 27.484375 -1.21875  Q 17.140625 -1.21875 11.234375 6.203125  Q 4.15625 15.140625 4.15625 35.296875  z M 13.1875 35.296875  Q 13.1875 17.671875 17.3125 11.828125  Q 21.4375 6 27.484375 6  Q 33.546875 6 37.671875 11.859375  Q 41.796875 17.71875 41.796875 35.296875  Q 41.796875 52.984375 37.671875 58.78125  Q 33.546875 64.59375 27.390625 64.59375  Q 21.34375 64.59375 17.71875 59.46875  Q 13.1875 52.9375 13.1875 35.296875  z "
                   id="ArialMT-48" />
              </defs>
              <use
                 xlink:href="#ArialMT-48"
                 id="use99" />
            </g>
          </g>
        </g>
        <g
           id="ytick_2">
          <g
             id="text_7">
            <!-- 5 -->
            <g
               style="fill:#262626;"
               transform="translate(32.324453 126.955195)scale(0.165 -0.165)"
               id="g103">
              <defs
                 id="defs105">
                <path
                   d="M 4.15625 18.75  L 13.375 19.53125  Q 14.40625 12.796875 18.140625 9.390625  Q 21.875 6 27.15625 6  Q 33.5 6 37.890625 10.78125  Q 42.28125 15.578125 42.28125 23.484375  Q 42.28125 31 38.0625 35.34375  Q 33.84375 39.703125 27 39.703125  Q 22.75 39.703125 19.328125 37.765625  Q 15.921875 35.84375 13.96875 32.765625  L 5.71875 33.84375  L 12.640625 70.609375  L 48.25 70.609375  L 48.25 62.203125  L 19.671875 62.203125  L 15.828125 42.96875  Q 22.265625 47.46875 29.34375 47.46875  Q 38.71875 47.46875 45.15625 40.96875  Q 51.609375 34.46875 51.609375 24.265625  Q 51.609375 14.546875 45.953125 7.46875  Q 39.0625 -1.21875 27.15625 -1.21875  Q 17.390625 -1.21875 11.203125 4.25  Q 5.03125 9.71875 4.15625 18.75  z "
                   id="ArialMT-53" />
              </defs>
              <use
                 xlink:href="#ArialMT-53"
                 id="use108" />
            </g>
          </g>
        </g>
        <g
           id="ytick_3">
          <g
             id="text_8">
            <!-- 10 -->
            <g
               style="fill:#262626;"
               transform="translate(23.148906 59.005195)scale(0.165 -0.165)"
               id="g112">
              <use
                 xlink:href="#ArialMT-49"
                 id="use114" />
              <use
                 x="55.615234"
                 xlink:href="#ArialMT-48"
                 id="use116" />
            </g>
          </g>
        </g>
        <g
           id="text_9">
          <!-- Non-match to locations -->
          <g
             style="fill:#262626;"
             transform="translate(15.571406 199.497656)rotate(-90)scale(0.18 -0.18)"
             id="g119">
            <defs
               id="defs121">
              <path
                 d="M 7.625 0  L 7.625 71.578125  L 17.328125 71.578125  L 54.9375 15.375  L 54.9375 71.578125  L 64.015625 71.578125  L 64.015625 0  L 54.296875 0  L 16.703125 56.25  L 16.703125 0  z "
                 id="ArialMT-78" />
              <path
                 d="M 3.328125 25.921875  Q 3.328125 40.328125 11.328125 47.265625  Q 18.015625 53.03125 27.640625 53.03125  Q 38.328125 53.03125 45.109375 46.015625  Q 51.90625 39.015625 51.90625 26.65625  Q 51.90625 16.65625 48.90625 10.90625  Q 45.90625 5.171875 40.15625 2  Q 34.421875 -1.171875 27.640625 -1.171875  Q 16.75 -1.171875 10.03125 5.8125  Q 3.328125 12.796875 3.328125 25.921875  z M 12.359375 25.921875  Q 12.359375 15.96875 16.703125 11.015625  Q 21.046875 6.0625 27.640625 6.0625  Q 34.1875 6.0625 38.53125 11.03125  Q 42.875 16.015625 42.875 26.21875  Q 42.875 35.84375 38.5 40.796875  Q 34.125 45.75 27.640625 45.75  Q 21.046875 45.75 16.703125 40.8125  Q 12.359375 35.890625 12.359375 25.921875  z "
                 id="ArialMT-111" />
              <path
                 d="M 6.59375 0  L 6.59375 51.859375  L 14.5 51.859375  L 14.5 44.484375  Q 20.21875 53.03125 31 53.03125  Q 35.6875 53.03125 39.625 51.34375  Q 43.5625 49.65625 45.515625 46.921875  Q 47.46875 44.1875 48.25 40.4375  Q 48.734375 37.984375 48.734375 31.890625  L 48.734375 0  L 39.9375 0  L 39.9375 31.546875  Q 39.9375 36.921875 38.90625 39.578125  Q 37.890625 42.234375 35.28125 43.8125  Q 32.671875 45.40625 29.15625 45.40625  Q 23.53125 45.40625 19.453125 41.84375  Q 15.375 38.28125 15.375 28.328125  L 15.375 0  z "
                 id="ArialMT-110" />
              <path
                 d="M 3.171875 21.484375  L 3.171875 30.328125  L 30.171875 30.328125  L 30.171875 21.484375  z "
                 id="ArialMT-45" />
              <path
                 d="M 6.59375 0  L 6.59375 51.859375  L 14.453125 51.859375  L 14.453125 44.578125  Q 16.890625 48.390625 20.9375 50.703125  Q 25 53.03125 30.171875 53.03125  Q 35.9375 53.03125 39.625 50.640625  Q 43.3125 48.25 44.828125 43.953125  Q 50.984375 53.03125 60.84375 53.03125  Q 68.5625 53.03125 72.703125 48.75  Q 76.859375 44.484375 76.859375 35.59375  L 76.859375 0  L 68.109375 0  L 68.109375 32.671875  Q 68.109375 37.9375 67.25 40.25  Q 66.40625 42.578125 64.15625 43.984375  Q 61.921875 45.40625 58.890625 45.40625  Q 53.421875 45.40625 49.796875 41.765625  Q 46.1875 38.140625 46.1875 30.125  L 46.1875 0  L 37.40625 0  L 37.40625 33.6875  Q 37.40625 39.546875 35.25 42.46875  Q 33.109375 45.40625 28.21875 45.40625  Q 24.515625 45.40625 21.359375 43.453125  Q 18.21875 41.5 16.796875 37.734375  Q 15.375 33.984375 15.375 26.90625  L 15.375 0  z "
                 id="ArialMT-109" />
              <path
                 d="M 3.078125 15.484375  L 11.765625 16.84375  Q 12.5 11.625 15.84375 8.84375  Q 19.1875 6.0625 25.203125 6.0625  Q 31.25 6.0625 34.171875 8.515625  Q 37.109375 10.984375 37.109375 14.3125  Q 37.109375 17.28125 34.515625 19  Q 32.71875 20.171875 25.53125 21.96875  Q 15.875 24.421875 12.140625 26.203125  Q 8.40625 27.984375 6.46875 31.125  Q 4.546875 34.28125 4.546875 38.09375  Q 4.546875 41.546875 6.125 44.5  Q 7.71875 47.46875 10.453125 49.421875  Q 12.5 50.921875 16.03125 51.96875  Q 19.578125 53.03125 23.640625 53.03125  Q 29.734375 53.03125 34.34375 51.265625  Q 38.96875 49.515625 41.15625 46.5  Q 43.359375 43.5 44.1875 38.484375  L 35.59375 37.3125  Q 35.015625 41.3125 32.203125 43.546875  Q 29.390625 45.796875 24.265625 45.796875  Q 18.21875 45.796875 15.625 43.796875  Q 13.03125 41.796875 13.03125 39.109375  Q 13.03125 37.40625 14.109375 36.03125  Q 15.1875 34.625 17.484375 33.6875  Q 18.796875 33.203125 25.25 31.453125  Q 34.578125 28.953125 38.25 27.359375  Q 41.9375 25.78125 44.03125 22.75  Q 46.140625 19.734375 46.140625 15.234375  Q 46.140625 10.84375 43.578125 6.953125  Q 41.015625 3.078125 36.171875 0.953125  Q 31.34375 -1.171875 25.25 -1.171875  Q 15.140625 -1.171875 9.84375 3.03125  Q 4.546875 7.234375 3.078125 15.484375  z "
                 id="ArialMT-115" />
            </defs>
            <use
               xlink:href="#ArialMT-78"
               id="use129" />
            <use
               x="72.216797"
               xlink:href="#ArialMT-111"
               id="use131" />
            <use
               x="127.832031"
               xlink:href="#ArialMT-110"
               id="use133" />
            <use
               x="183.447266"
               xlink:href="#ArialMT-45"
               id="use135" />
            <use
               x="216.748047"
               xlink:href="#ArialMT-109"
               id="use137" />
            <use
               x="300.048828"
               xlink:href="#ArialMT-97"
               id="use139" />
            <use
               x="355.664062"
               xlink:href="#ArialMT-116"
               id="use141" />
            <use
               x="383.447266"
               xlink:href="#ArialMT-99"
               id="use143" />
            <use
               x="433.447266"
               xlink:href="#ArialMT-104"
               id="use145" />
            <use
               x="489.0625"
               xlink:href="#ArialMT-32"
               id="use147" />
            <use
               x="516.845703"
               xlink:href="#ArialMT-116"
               id="use149" />
            <use
               x="544.628906"
               xlink:href="#ArialMT-111"
               id="use151" />
            <use
               x="600.244141"
               xlink:href="#ArialMT-32"
               id="use153" />
            <use
               x="628.027344"
               xlink:href="#ArialMT-108"
               id="use155" />
            <use
               x="650.244141"
               xlink:href="#ArialMT-111"
               id="use157" />
            <use
               x="705.859375"
               xlink:href="#ArialMT-99"
               id="use159" />
            <use
               x="755.859375"
               xlink:href="#ArialMT-97"
               id="use161" />
            <use
               x="811.474609"
               xlink:href="#ArialMT-116"
               id="use163" />
            <use
               x="839.257812"
               xlink:href="#ArialMT-105"
               id="use165" />
            <use
               x="861.474609"
               xlink:href="#ArialMT-111"
               id="use167" />
            <use
               x="917.089844"
               xlink:href="#ArialMT-110"
               id="use169" />
            <use
               x="972.705078"
               xlink:href="#ArialMT-115"
               id="use171" />
          </g>
        </g>
      </g>
      <g
         id="line2d_1">
        <path
           clip-path="url(#pc82bb00ee6)"
           d="M 64.4625 93.87  L 169.0875 80.28  L 273.7125 93.87  L 378.3375 148.23  "
           style="fill:none;stroke:#4169e1;stroke-linecap:round;stroke-width:2.25;"
           id="path174" />
        <defs
           id="defs176">
          <path
             d="M 0 5  C 1.326016 5 2.597899 4.473168 3.535534 3.535534  C 4.473168 2.597899 5 1.326016 5 0  C 5 -1.326016 4.473168 -2.597899 3.535534 -3.535534  C 2.597899 -4.473168 1.326016 -5 0 -5  C -1.326016 -5 -2.597899 -4.473168 -3.535534 -3.535534  C -4.473168 -2.597899 -5 -1.326016 -5 0  C -5 1.326016 -4.473168 2.597899 -3.535534 3.535534  C -2.597899 4.473168 -1.326016 5 0 5  z "
             id="m3f001d6caf"
             style="stroke:#ffffff;stroke-width:0.75;" />
        </defs>
        <g
           clip-path="url(#pc82bb00ee6)"
           id="g179">
          <use
             style="fill:#4169e1;stroke:#ffffff;stroke-width:0.75;"
             x="64.4625"
             xlink:href="#m3f001d6caf"
             y="93.87"
             id="use181" />
          <use
             style="fill:#4169e1;stroke:#ffffff;stroke-width:0.75;"
             x="169.0875"
             xlink:href="#m3f001d6caf"
             y="80.28"
             id="use183" />
          <use
             style="fill:#4169e1;stroke:#ffffff;stroke-width:0.75;"
             x="273.7125"
             xlink:href="#m3f001d6caf"
             y="93.87"
             id="use185" />
          <use
             style="fill:#4169e1;stroke:#ffffff;stroke-width:0.75;"
             x="378.3375"
             xlink:href="#m3f001d6caf"
             y="148.23"
             id="use187" />
        </g>
      </g>
      <g
         id="line2d_2">
        <path
           clip-path="url(#pc82bb00ee6)"
           d="M 54 107.46  L 388.8 107.46  "
           style="fill:none;stroke:#000000;stroke-dasharray:2.25,3.7125;stroke-dashoffset:0;stroke-width:2.25;"
           id="path190" />
      </g>
      <g
         id="patch_3">
        <path
           d="M 54 189  L 54 25.92  "
           style="fill:none;stroke:#262626;stroke-linecap:square;stroke-linejoin:miter;stroke-width:1.875;"
           id="path193" />
      </g>
      <g
         id="patch_4">
        <path
           d="M 54 189  L 388.8 189  "
           style="fill:none;stroke:#262626;stroke-linecap:square;stroke-linejoin:miter;stroke-width:1.875;"
           id="path196" />
      </g>
    </g>
  </g>
  <defs
     id="defs198">
    <clipPath
       id="pc82bb00ee6">
      <rect
         height="163.08"
         width="334.8"
         x="54"
         y="25.92"
         id="rect201" />
    </clipPath>
  </defs>
</svg>
